<svg id="Objects" xmlns="http://www.w3.org/2000/svg" viewBox="0 0 103.79 70.18"><title>mail</title><g id="nbPY0w.tif"><path d="M27.07,27.1L78.93,70.3l51.81-43.16c0,0.62.07,1,.07,1.38q0,26.71,0,53.42c0,3.48-1.81,5.9-4.89,6.54a7.54,7.54,0,0,1-1.54.12H33.52A6.1,6.1,0,0,1,27,82.22q0-27,0-54C27,27.94,27,27.67,27.07,27.1Z" transform="translate(-27.02 -18.43)"/><path d="M78.93,61.15L29.32,19.82a6.15,6.15,0,0,1,4.18-1.38q17.29,0,34.58,0,28.08,0,56.16,0a6.31,6.31,0,0,1,4.31,1.38Z" transform="translate(-27.02 -18.43)"/></g></svg>