<svg id="Calque_1" data-name="Calque 1" xmlns="http://www.w3.org/2000/svg" viewBox="0 0 180.19 90.07"><defs><style>.cls-1,.cls-2,.cls-3{fill:#fff;}.cls-1{opacity:0;}.cls-3{font-size:28.5px;font-family:Dry Brush;}</style></defs><title>deserts</title><path class="cls-1" d="M64.81,58.1c0.36-.64.58-1.68,1.07-1.82,1.78-.51,2.25-1.9,3-3.32,1.43-2.83,3.1-5.45,2.74-8.91A30.52,30.52,0,0,1,72,36.87c0.26-1.89-1.09-4.39,1.77-5.46a0.52,0.52,0,0,0,0-.24L70.93,31a2.29,2.29,0,0,1-1.76,2.8,4.19,4.19,0,0,1,.25,1.77,8.24,8.24,0,0,1-1.34,1.8c0.86,1,1.42,2.14-.2,3.17,1,1.34,1.07,2.52-.14,3.56a10.11,10.11,0,0,1-.24,2.8c-0.12.59-.41,1.14-0.53,1.72A7.72,7.72,0,0,1,65.08,53V47.46l-0.46-7.21,0.46,0c-1-1.44-.83-2.77.47-4.57a2,2,0,0,1,.24-3.17c-1.25-2.17-1.12-4.44.29-6C65,25,65,24.33,65.84,23.06c-0.21-1.25-.81-2.44-0.45-3.14,1-1.9-.58-3.46-0.32-5.33s-0.79-3.92-1.29-5.89c-0.33-1.31-.94-2.63.81-3.91-2.86.54-3,.27-2.2-2.45-3,1.56-3,1.55-3-.82-0.92.11-1,3.14-2.52,0.94l-3.37,1.2L52.67,2.8,51.82,4.66l-1.1-.45L45.55,11.6c0.61,2.14.46,2.7-1.26,3.63,1.5,1,1.24,2,.45,2.61,0.15,6.29-.65,12.12-1.3,18a20.38,20.38,0,0,1-.53-4.47,20.86,20.86,0,0,1,0-2.14c0-.52.18-1,0.24-1.56s0.1-1.09.12-1.63q0.06-1.12.08-2.24a7.5,7.5,0,0,0,0-1.19c-0.16-1.17-.35-2.33-0.49-3.23l-1-2.71-2.29-1.16-3.1.95a9,9,0,0,1-.86,1.45,8.63,8.63,0,0,0-1.92,4.87,43.6,43.6,0,0,1-1,4.76,0.83,0.83,0,0,0,0,.6c1,1.14.28,1.81-.7,2.35,1.24,1.65,1.15,2.52,0,3.58l2.5,10.26c1,0.18,1.47,1,.81,2.5,2,0,1.86,1.15,1.43,2.46l1.44,0.34v1l2.92,1.68,1-.35,0.39,0.26-1,2.28a1.5,1.5,0,0,1-.19,2.62c1,1.43,1,1.43,0,2.16,0,0.71-.12,1.57.14,1.72,1.6,1,.7,2.43.87,3.65s0,2-1.77,1.72a4.7,4.7,0,0,1,.69,6.2c1.3,1.55,1.28,2.54-.09,4,1.46,0.31,1.53.51,1.92,1.74a3.16,3.16,0,0,0,1.37,1.9c1.94,0.76,4,1.2,6,1.85a5.62,5.62,0,0,0,4.67-.51A2.86,2.86,0,0,1,56.73,81c3.51,0.61,6.3-.77,8.79-3a1.64,1.64,0,0,0,.5-1.11c-0.09-3.61-.14-7.23-0.4-10.83-0.16-2.18-.05-2.41,2-1.78,1-2.26,2.64-2.44,4.75-1.48l-0.77-1.1,4.83-9c0-.72-0.34-1.6-0.08-1.81,1.6-1.3,1-3.19,1.5-4.76A6.74,6.74,0,0,1,79,44.57c-1.2-1.49-.32-3,0.06-4.51a3.84,3.84,0,0,0,.35-1c-0.08-1.16-.26-2.32-0.43-3.76L78,32.52l-2-1L74.8,32.77c0.51,1,1.6,1.91.38,3.06a0.62,0.62,0,0,0,0,.59c1,1.2.46,2.19-.41,3.1,1.07,2.24.91,2.89-.92,3.58,1.76,1.09,1.29,2.47.63,3.9a4.7,4.7,0,0,0-.18,1.19,9.34,9.34,0,0,1-.57,3.1c-1.35,2.33-2.89,4.55-4.46,6.73s-3.76,2.57-6.16,2.58a13.6,13.6,0,0,1-1.85-.23,1.53,1.53,0,0,0,1.09,1c2.26,0,4.52,0,6.34-1.79A11.4,11.4,0,0,1,71,58.22a8.36,8.36,0,0,1,.92-2.3c0.17-.23,1.19.19,1.91,0.33-0.16.49-.22,0.75-0.33,1-1.63,3.65-4.77,5.34-8.41,6.15a3.87,3.87,0,0,1-4.48-4.24c0.27-1.7.71-1.9,2.17-1l1-1.25Z" transform="translate(-3.78 -1.52)"/><path class="cls-2" d="M64.81,58.1l-1-1.22-1,1.25c-1.46-.87-1.9-0.66-2.17,1a3.87,3.87,0,0,0,4.48,4.24c3.64-.81,6.78-2.5,8.41-6.15,0.11-.24.17-0.49,0.33-1-0.72-.14-1.74-0.56-1.91-0.33a8.36,8.36,0,0,0-.92,2.3,11.4,11.4,0,0,0-2.25,1.37c-1.82,1.76-4.08,1.77-6.34,1.79a1.53,1.53,0,0,1-1.09-1,13.6,13.6,0,0,0,1.85.23c2.4,0,4.67-.5,6.16-2.58s3.11-4.41,4.46-6.73a9.34,9.34,0,0,0,.57-3.1A4.7,4.7,0,0,1,74.52,47c0.66-1.44,1.13-2.82-.63-3.9,1.83-.69,2-1.34.92-3.58,0.87-.91,1.4-1.9.41-3.1a0.62,0.62,0,0,1,0-.59c1.23-1.15.14-2-.38-3.06L76,31.56l2,1L79,35.33c0.17,1.44.35,2.59,0.43,3.76a3.84,3.84,0,0,1-.35,1c-0.38,1.51-1.26,3-.06,4.51a6.74,6.74,0,0,0-1.14,1.61c-0.52,1.57.1,3.46-1.5,4.76-0.26.21,0,1.09,0.08,1.81l-4.83,9,0.77,1.1c-2.11-1-3.75-.78-4.75,1.48-2.1-.64-2.21-0.41-2,1.78,0.27,3.6.31,7.22,0.4,10.83a1.64,1.64,0,0,1-.5,1.11c-2.49,2.26-5.28,3.64-8.79,3a2.86,2.86,0,0,0-1.63.51,5.62,5.62,0,0,1-4.67.51c-2-.64-4.06-1.09-6-1.85a3.16,3.16,0,0,1-1.37-1.9c-0.39-1.23-.46-1.43-1.92-1.74,1.37-1.44,1.39-2.43.09-4a4.7,4.7,0,0,0-.69-6.2c1.73,0.32,1.93-.62,1.77-1.72S43,62,41.45,61c-0.26-.16-0.1-1-0.14-1.72,1-.73,1-0.73,0-2.16a1.5,1.5,0,0,0,.19-2.62l1-2.28L42.1,52l-1,.35-2.92-1.68v-1l-1.44-.34c0.43-1.31.55-2.47-1.43-2.46,0.66-1.46.22-2.32-.81-2.5L32,34.06c1.12-1.05,1.21-1.92,0-3.58,1-.54,1.7-1.2.7-2.35a0.83,0.83,0,0,1,0-.6,43.6,43.6,0,0,0,1-4.76A8.63,8.63,0,0,1,35.6,17.9a9,9,0,0,0,.86-1.45l3.1-.95,2.29,1.16,1,2.71c0.14,0.9.33,2.06,0.49,3.23a7.5,7.5,0,0,1,0,1.19q0,1.12-.08,2.24c0,0.54-.06,1.09-0.12,1.63s-0.2,1-.24,1.56a20.86,20.86,0,0,0,0,2.14,20.38,20.38,0,0,0,.53,4.47c0.64-5.86,1.45-11.69,1.3-18,0.79-.61,1.06-1.63-0.45-2.61,1.71-.93,1.86-1.49,1.26-3.63l5.17-7.39,1.1,0.45L52.67,2.8l0.79,0.85,3.37-1.2c1.53,2.2,1.6-.83,2.52-0.94,0.07,2.37.08,2.38,3,.82-0.84,2.72-.66,3,2.2,2.45-1.76,1.28-1.15,2.6-.81,3.91,0.5,2,1.55,4,1.29,5.89s1.29,3.44.32,5.33c-0.36.7,0.24,1.89,0.45,3.14C65,24.33,65,25,66.07,26.48c-1.41,1.57-1.54,3.83-.29,6a2,2,0,0,0-.24,3.17c-1.29,1.81-1.42,3.14-.47,4.57l-0.46,0,0.46,7.21V53A7.72,7.72,0,0,0,67,48.64c0.12-.59.41-1.14,0.53-1.72a10.11,10.11,0,0,0,.24-2.8c1.21-1,1.17-2.21.14-3.56,1.62-1,1.06-2.15.2-3.17a8.24,8.24,0,0,0,1.34-1.8,4.19,4.19,0,0,0-.25-1.77A2.29,2.29,0,0,0,70.93,31l2.84,0.15a0.52,0.52,0,0,1,0,.24C70.87,32.48,72.22,35,72,36.87a30.52,30.52,0,0,0-.37,7.18C72,47.51,70.28,50.13,68.85,53c-0.72,1.42-1.2,2.81-3,3.32C65.39,56.42,65.16,57.46,64.81,58.1ZM54.73,68.26a6.38,6.38,0,0,0,.55-1.87c0.06-4.59.09-9.18,0-13.76a12.72,12.72,0,0,0-.73-2.95c1.35-2.19,2.48-4.38.15-6.88l1.35-.16c0-1.17,0-2.29,0-3.42,0.07-2.59.12-5.18,0.25-7.76s0.39-5,.5-7.56c0.12-2.7.16-5.4,0.15-8.1a11.39,11.39,0,0,0-.34-2.16c0.21-1.25.62-2.21,0.43-3A4.9,4.9,0,0,1,57,8.11a4.74,4.74,0,0,0-.76-3.27c-0.26-.4-1.67-0.22-2.51,0a4.39,4.39,0,0,0-3.29,3.05,20.41,20.41,0,0,0-1.27,4.5,88.37,88.37,0,0,0-.24,16.57,1.43,1.43,0,0,1-.12.76,2.09,2.09,0,0,0,.37,2.86c-0.24,2.47-.51,4.68-0.66,6.89S48.43,44,48.2,46.3c-0.35,3.47-1,6.91-1.28,10.39-0.13,1.74.58,3.55,0.45,5.3a68.82,68.82,0,0,0,.38,15.8c0.46,2.95,3,4.64,5.77,3.65A2,2,0,0,0,55,79.31c0-2.39.28-4.78,0.28-7.18A26.23,26.23,0,0,0,54.73,68.26ZM56.62,80a4.46,4.46,0,0,0,6.44-3,32,32,0,0,0,.27-11.72,2.67,2.67,0,0,0-.86-1.61c-3.16-2.38-3.09-7.62.33-9.62a2.79,2.79,0,0,0,1.58-3c-0.09-1.18-.16-2.37-0.15-3.56,0-4.74,0-9.48.1-14.21,0-1.94.29-3.88,0.3-5.82a4.26,4.26,0,0,0-.78-1.59,3.58,3.58,0,0,0-1,1.4,22.67,22.67,0,0,0,.37,3.47,4,4,0,0,0-.56,1.62c0.28,6.35.65,12.7,1,19,0,0.39,0,.78,0,1.16l-0.4.06a13.61,13.61,0,0,1-.47-2.25c-0.25-6.19-.54-12.37-0.65-18.56-0.07-3.91.32-7.83,0.22-11.74A87.29,87.29,0,0,0,61.41,9C61.19,7.57,60,6.26,59.19,5a2.75,2.75,0,0,0-1.26-.51,7,7,0,0,0-.24,1.31c0,3.14.59,6.26-.08,9.43-0.25,1.18-.74,2.7.71,3.49a5.85,5.85,0,0,0-1,2.06c0,0.53.68,1.1,1.13,1.74-1.53,1.76-1.52,3.73.24,4.31-1.78,2.07-2.06,4.59-1,5.39a14.1,14.1,0,0,0-1,3.29c-0.22,4.25-.26,8.51-0.39,12.77-0.06,2-.56,4.17-0.18,6.12C56.35,56,56,57.45,56,59a10.9,10.9,0,0,0,.81,2.5c-1.23,1.51-1.48,10.33,0,12.39C55,75.62,55.65,77.68,56.62,80Zm-9.4-55.1c1-.8,1.25-2,0.5-3.44a1.76,1.76,0,0,1-.08-0.9c0.16-1.89.33-3.78,0.51-5.66,0.07-.79.2-1.58,0.23-2.37s0.79-1.87-.72-2.69a14.61,14.61,0,0,0-1,2.87c-0.54,4-1,8-1.41,12-0.26,2.57-.47,5.16-0.55,7.75s-0.68,5.23.58,8a9.5,9.5,0,0,1-1.54,10.84,3,3,0,0,0-.79,1.71c-0.12,2.09-.12,4.2-0.12,6.3,0,2.37,0,4.75.06,7.12C43,70,43,73.59,43.28,77.12c0.18,2.29,1.94,3.45,4.36,3.33Q47,76.62,46.29,72.78a2.53,2.53,0,0,1-.1-0.31c0-.35,0-0.71,0-1.06,0-.9-0.08-1.81-0.13-2.71a3.08,3.08,0,0,0-.73-4.32c1.57-.89,1.87-2.12.94-3.69a1.36,1.36,0,0,1-.16-0.78c0.07-.77.27-1.54,0.3-2.32,0.06-1.83-.08-3.67.08-5.49,0.37-4.2,2-8.23,1.44-12.58-0.24-1.86.17-3.79,0.17-5.69,0-2.1-.1-4.2-0.26-6.3A17.21,17.21,0,0,0,47.22,24.92Zm-8.07-1.58c2.22,0,1.48-1.33,1.22-2.23A21.42,21.42,0,0,0,39,18.05c-0.65,1-1.74,2-1.86,3.13a98.25,98.25,0,0,0-.65,11.59,18.22,18.22,0,0,0,1.26,6.1c1.14,3,2.65,5.94,4,9l1.6-.58c-0.81,1.57-.27,2.15,1.09,2.27,0.77-1.42,1-2.91,0-4.14-1.26-1.56-1.34-3.86-3.26-5a0.59,0.59,0,0,1-.1-0.45c0.28-2.9-2.17-5.45-.88-8.59,0.45-1.1-.37-2.72-0.6-4.1a0.94,0.94,0,0,1,0-.59C40.94,25.53,40.14,24.51,39.16,23.34Zm-4.53,2.74a29.35,29.35,0,0,0-1.25,11.12c0.44,4.61,3.27,8.21,5.34,12.13a3,3,0,0,0,1.13,1.13,5.24,5.24,0,0,0,1.94.65A3.07,3.07,0,0,0,43,50.59c-0.19-.36-0.36-0.73-0.58-1.07C41.63,48.23,40.69,47,40,45.64c-0.55-1-.71-2.27-1.23-3.33a31.77,31.77,0,0,0-2-3.1l-1.32-6.46c0.75-1.12.71-1.56-.32-2.52A9.28,9.28,0,0,0,36,27.87c0.29-3.24.44-6.49,0.65-9.8a5.4,5.4,0,0,0-1.15,1.48c-0.42,1.2-.38,2.59-1,3.68S34,25.3,34.62,26.09Zm37,7.5-0.81-.18a38.66,38.66,0,0,0-1.29,4.52c-0.43,2.63-.51,5.33-1,7.95a40.23,40.23,0,0,1-1.79,6c-0.51,1.44-1.21,2.72-3.21,2.58-0.54,0-1.16.89-1.74,1.37l0.36,0.63c1-.28,2.11-0.51,3.13-0.87s1.84-.6,2.18-2a11.16,11.16,0,0,1,2.32-4.3c0.8-1,1-1.58.48-2.1a14,14,0,0,0,.82-2.47c0.12-1,0-2,0-3C71.26,39,71.46,36.29,71.64,33.59Zm5-.29c-0.43,4.35-.91,8.62-1.26,12.9-0.22,2.61-.59,5.13-2.26,7.27-0.55.7-.6,1.49,0.32,1.84a1.84,1.84,0,0,0,1.22-1c0.8-2,1.25-4.07,1.95-6.08,1.12-3.24,1.31-6.83,1.64-10.29A5.27,5.27,0,0,0,76.66,33.3ZM45.06,43.72l0.66-.31c-0.61-1.41-1.22-2.82-1.84-4.22a8.91,8.91,0,0,1-1.14-2.64c-0.2-3.06-.16-6.13-0.25-9.19-0.06-2.25,0-4.52-.32-6.74a11.86,11.86,0,0,0-1.35-3.1l-0.39.21a21.43,21.43,0,0,1,.78,4.06,101,101,0,0,1-.36,10.93C40.36,37.27,43.19,40.25,45.06,43.72Zm18.7,34.6c2.17-1,2.66-10.91.52-13.8ZM64,25l0.72-.25c0-2.4,0-4.8,0-7.2A4.36,4.36,0,0,0,63.88,16,3.91,3.91,0,0,0,63,17.66a26.64,26.64,0,0,1,.2,5.7A3.9,3.9,0,0,0,64,25Zm-0.4-14.93-0.74.06c0,1.46,0,2.92,0,4.38a1.62,1.62,0,0,0,.61.59A1.64,1.64,0,0,0,64,14.47C63.91,13,63.73,11.57,63.58,10.12ZM60.77,5.61l2,4.38C63.31,7.84,62.61,6.3,60.77,5.61Z" transform="translate(-3.78 -1.52)"/><path class="cls-2" d="M4.14,64c1.09-1.46,1-1.91-.21-2.94l0.21-3.75-0.36.07L6,55.41A2.87,2.87,0,0,0,7.31,56c1.93-.28,2.35,1,2.82,2.38a26.47,26.47,0,0,0,2.07,4.7c-0.2-2,1.46-3.92,0-6.06,0.63-1,.24-2.16.27-3.31A33.84,33.84,0,0,0,12,48.36c-0.14-1-.2-2.06-0.26-3.09a2.81,2.81,0,0,1,.13-0.88,4,4,0,0,0,.4-1.37c-0.39-2.61.7-4.64,2.22-6.62a4.67,4.67,0,0,0,.32-2c1.45,0.59,4.89,0,5.91-1.11A4,4,0,0,0,21.24,35,3.69,3.69,0,0,0,23,35.2c-0.36,1.55-.37,3.21,1.82,3.93a3.22,3.22,0,0,0,.31,4.09,1,1,0,0,1,.21.73c-0.88,4.47.19,8.84,0.57,13.25a12.42,12.42,0,0,1-.09,1.91c-0.09,1.2-.55,2.49.85,3.36A2.73,2.73,0,0,0,27,66a2.11,2.11,0,0,1,.07,1.12c0,1.18-.56,2.58,1.24,3-1,2-.76,3.75.15,4.72a9.14,9.14,0,0,1-.38,2.82c-0.56,1-1.27,2.37-2.25,2.77a8.88,8.88,0,0,1-6.33.35,2.94,2.94,0,0,0-.94-0.17,4.88,4.88,0,0,1-5.05-4,16.79,16.79,0,0,0-1-2.9,2.07,2.07,0,0,0-1.17-1.17c-1.76.37-2.16-1.36-3.26-2a2.77,2.77,0,0,1-.58-1.07c-0.37-.65-0.75-1.29-1.34-2.32C6.5,65.87,6.07,65,4.14,64ZM19,59.1a18.11,18.11,0,0,0-.18,3.15c0.72,5.28,1.91,10.51,1.06,15.9a1.71,1.71,0,0,0,1.74,2.2c1.27,0,2.34-.48,2.25-1.93C23.65,75.69,23.31,73,23,70.25c-0.17-1.64-.42-3.27-0.5-4.91-0.15-3.23-.07-6.48-0.33-9.69C22,52.82,21.24,50,21,47.21c-0.18-2.51.18-5.06,0.09-7.59a8.57,8.57,0,0,0-.93-3.36c-0.63-1.29-1.63-1.33-2.23,0a7,7,0,0,0-.85,4c0.57,2.61.21,5.39,1.43,7.88a2.32,2.32,0,0,1-.18.91c-0.09.78-.19,1.56-0.21,2.35a38.39,38.39,0,0,1-.07,4.2A3.77,3.77,0,0,0,19,59.1Zm-0.82,8.24c1.5-1.14.5-2.58,0.38-3.88-0.38-3.94-1-7.85-1.29-11.8-0.34-4.49-.46-9-0.67-13.49l-0.5-.08a3.73,3.73,0,0,0-.62,1.17c-0.33,2.94-.73,5.88-0.83,8.83-0.08,2.3.49,4.63,0.32,6.92a42.41,42.41,0,0,0,.46,10.93,18,18,0,0,1,.06,5.27c-0.27,2.3,1.47,6.66,3.67,8.08,0.08-1.86.94-3.57-.24-5.27l0.71-1.28-1-1.25C19.62,70.08,19.48,68.82,18.13,67.33Zm5.38-12.26A8.24,8.24,0,0,0,23.08,57c0,1.47.73,2.88,0.17,4.44-0.19.52,0.52,1.31,0.5,2a36.12,36.12,0,0,0-.45,3.86,32.66,32.66,0,0,0,1,5.14,2.41,2.41,0,0,0,.83.7,1.75,1.75,0,0,1,.25.37l-0.78.67a13,13,0,0,1,.2,1.94c-0.05,1-.27,2-0.29,3a1.11,1.11,0,0,0,.64.87,1.25,1.25,0,0,0,1-.59c0.76-2.15,1.49-4.25,1-6.68a127.65,127.65,0,0,1-2-13.87c-0.45-6-.49-12-1.69-17.85a4.77,4.77,0,0,0-1.89-3.47c0.19,5.42.56,10.78,1,16.14A4,4,0,0,0,23.51,55.07Zm-17.37,3-0.62.33c0.25,1.16.44,2.34,0.75,3.49a13.14,13.14,0,0,0,5.35,8c0.6,0.4,1.66.1,2.51,0.12-0.34-.59-0.54-1.45-1-1.71C10.6,67,9.49,64.86,8.75,62.37a12.31,12.31,0,0,0-1.15-2.66A10.9,10.9,0,0,0,6.14,58.07Zm7.66,7.19a5,5,0,0,0,.48-1.08c0.05-3.71.46-7.47,0-11.13a47.48,47.48,0,0,1,.36-12.87,8.22,8.22,0,0,0-.25-1.84,4.84,4.84,0,0,0-.94,1.21,26.84,26.84,0,0,0-.69,4.26c-0.23,6.67,1.58,13.3.39,20A4.26,4.26,0,0,0,13.8,65.25ZM14.16,68l0.41-.35a6.48,6.48,0,0,0-1.27-1.85,7.63,7.63,0,0,1-2.82-4.21,20.51,20.51,0,0,0-1.72-4c-0.27-.46-1.16-0.57-2-0.92,1.33,3.08,2.41,5.71,3.59,8.29A6,6,0,0,0,14.16,68Zm0.21,5.3H13.92a5.59,5.59,0,0,0,.88,4.42,3.25,3.25,0,0,0,2.6,2ZM8.68,68.4c0.47,2.91,4,4.55,5.81,2.87a13.83,13.83,0,0,1-3.2-.76A15.19,15.19,0,0,1,8.68,68.4Z" transform="translate(-3.78 -1.52)"/><text class="cls-3" transform="translate(87.53 32.56)">dé<tspan x="29.68" y="0">s</tspan><tspan x="42.89" y="0">e</tspan><tspan x="57.25" y="0">r</tspan><tspan x="68.25" y="0">t</tspan><tspan x="79" y="0">s</tspan><tspan x="0" y="36">a</tspan><tspan x="15.53" y="36">r</tspan><tspan x="25.86" y="36">i</tspan><tspan x="33.03" y="36">d</tspan><tspan x="47.4" y="36">e</tspan><tspan x="61.58" y="36">s</tspan></text></svg>