<svg id="Objects" xmlns="http://www.w3.org/2000/svg" viewBox="0 0 693.55 314.2"><defs><style>.cls-1{fill:#fff;}</style></defs><title>eau</title><path class="cls-1" d="M201.54,99.3a3.49,3.49,0,0,0,.62.61c5.67,3.32,8.17,8.64,6.87,15.16-0.69,3.47-1.74,6.88-2.61,10.32-1.17,4.63-1,9,2.4,13l-4.53,3.92c1.27,0.39,2.31.69,3.33,1a2.23,2.23,0,0,1,1.63,2.86c-0.31,1.82-.54,3.65-0.84,5.67,11.63-.1,22.32,2.87,32.74,7s20.15,9.48,27.67,17.93c1.49-1.4,3.12-2.9,4.72-4.43s1.61-1.57,3.58-.36a5.67,5.67,0,0,0,.58.28l0.44-.16-1-5.14a23,23,0,0,1,2.88-1.36,16.47,16.47,0,0,0,10.3-9.35,36.52,36.52,0,0,1,2.51-4.54,15.35,15.35,0,0,1,18.39-5.56,1.35,1.35,0,0,1,.63.76,13.4,13.4,0,0,1-4.43,15.34,56.46,56.46,0,0,1-5.72,3.71c-1.44.88-3,1.61-4.4,2.49-4.13,2.51-6.94,5-7.79,11L283.6,179l2.22,4.28c-0.95.9-1.89,1.81-2.85,2.71s-1.87,1.74-2.89,2.69A110.72,110.72,0,0,1,305,249.32h6.7c2,0,2,0,2.32,2,0,0.31.08,0.63,0.15,1.14,1.78-1.1,2.45-2.8,3.21-4.65a30.58,30.58,0,0,1,3.44,1.25,16.54,16.54,0,0,0,13.38.75,35.27,35.27,0,0,1,6.6-1.67A15.08,15.08,0,0,1,356,256.55a6.05,6.05,0,0,0,.7.95v0.27a16.54,16.54,0,0,1-4.76,5.89c-3.83,2.7-8.05,2.91-12.42,1.91-2.7-.62-5.37-1.41-8-2.14-4.91-1.34-9.65-1.5-13.92,2.19l-3.91-4.55-1.43,4.64c-2-.09-3.93-0.15-5.88-0.28a1.09,1.09,0,0,0-1.43,1.21c-1.93,21.79-10.48,40.74-24.64,57.28L279,325.44c1.66,1.76,3.23,3.45,4.84,5.11,1.44,1.49,1.45,1.47.31,3.13l-0.63.91a7.44,7.44,0,0,0,5.36-1c0.61,1.34,1.32,2.64,1.82,4a15.39,15.39,0,0,0,8.22,9.05c1.52,0.71,3,1.53,4.46,2.38a14.9,14.9,0,0,1,6.95,9.12,17.11,17.11,0,0,1,0,8.49c-0.35,1.68-1.17,2-2.51,2.34-5.8,1.37-10.56-.36-14.24-4.91a53.66,53.66,0,0,1-3.82-6c-0.71-1.17-1.32-2.39-2-3.58-2.51-4.38-5.77-7.77-11.26-8.14l0.43-6-4,2.08a20.84,20.84,0,0,1-3.3-2.37,22,22,0,0,1-2.23-3.47c-17.91,14.53-38,23-60.74,24.57,0,2.56-.11,5,0,7.45,0.1,1.54-.58,2-1.91,2.1-0.39,0-.79.11-1.36,0.19,1.15,1.73,2.81,2.4,4.65,3.17a22.31,22.31,0,0,1-1,3,17.18,17.18,0,0,0-.66,14.54c1.42,3.75,2.19,7.62.93,11.63-1.35,4.29-3.79,7.63-8,9.55a3.93,3.93,0,0,0-.79.65h-0.27c-4.15-2-7.11-5-8.11-9.69-0.74-3.45,0-6.79.89-10.11,0.57-2.06,1.2-4.11,1.71-6.19,1.16-4.71,1.11-9.24-2.41-13.17l4.54-3.86-4.32-1.4c0-2.48,0-4.85,0-7.21a1,1,0,0,0-1.1-1.26,108.56,108.56,0,0,1-61.81-29.23c-2.09-2-4.07-4-6.44-6a2.77,2.77,0,0,0,.28,1.15,57.09,57.09,0,0,0,5.18,5.59,10.39,10.39,0,0,1,1.53,2.22l-0.84,2,0.39,0.21,2.53-2.05,0.34,0.29a6,6,0,0,1-.65,1c-1.8,1.87-3.6,3.74-5.47,5.54a1.48,1.48,0,0,1-1.29.05,12.6,12.6,0,0,1-1.82-1.14l-0.43.15,1.12,5.28a26.93,26.93,0,0,1-3,1.43,16.32,16.32,0,0,0-10,9.07c-1.25,2.73-2.58,5.48-5,7.45-4.76,3.92-10.06,5.11-16,2.89a1.36,1.36,0,0,1-.72-0.67A13.23,13.23,0,0,1,91,351.2a66,66,0,0,1,7.37-4.91c1.34-.85,2.8-1.53,4.15-2.38,4.55-2.88,6.2-5.33,7.2-10.62l5.83,0.45-1.66-3.24a2.83,2.83,0,0,1,.65-2.69c1.73-1.34,3.43-2.72,5.14-4.09,0.43,1.43-.64,3.26.68,5.09l0.54-4.37a99,99,0,0,1-19.58-34,106.56,106.56,0,0,1-5-39.58c-0.94,1.62-1.26,7.23-.53,8.16l-0.2.3-2.13-1.39-0.27.18,1.9,2.75-0.17.21-1.59-1.4-0.26.18,1.38,2-0.2.19-2.76-2.33c-0.31,1.17-.31,1.17,1.33,2a11.39,11.39,0,0,1,2.47,1.6c-1,.06-1.91.16-2.87,0.17-1.82,0-3.65-.08-5.47,0A1.35,1.35,0,0,1,85.3,262c-0.06-.57-0.18-1.14-0.27-1.71l-0.43-.17-3,4.62c-0.9-.32-2.11-0.65-3.24-1.16a18.27,18.27,0,0,0-8.2-1.77c-0.5,0-1,.07-1.6.12l0.23,1.51c-1.2-1.49-2.35-1-3.54-.63-1.82.57-3.66,1.13-5.52,1.52a14.94,14.94,0,0,1-16.58-8.22,5.84,5.84,0,0,0-.62-0.85v-0.82a2.44,2.44,0,0,0,.55-0.54c2.74-5.42,8.55-8.48,15.75-6.92,2.71,0.59,5.38,1.35,8.06,2.09,5.19,1.43,10.25,2,14.73-2l3.9,4.53,1.37-4.33h8.38v0.48h-3.1l-0.08.44L96.4,250A112.16,112.16,0,0,1,104,216.67a102.78,102.78,0,0,1,17.21-28.79c-2.3-2.26-4.53-4.43-6.71-6.66a1.38,1.38,0,0,1,0-1.2,14.48,14.48,0,0,1,1.15-1.82l-0.15-.44-5.27,1.1a25,25,0,0,1-1.38-2.91,16,16,0,0,0-8.88-10c-1.29-.57-2.5-1.32-3.74-2-6.42-3.41-9.85-12-6.81-19.07a1.64,1.64,0,0,1,.92-0.78,13.4,13.4,0,0,1,15.46,4.79,68.33,68.33,0,0,1,3.77,6c0.94,1.56,1.78,3.18,2.74,4.73,2.39,3.83,5.66,6.39,10.4,6.77l-0.47,5.93c1.29-.67,2.44-1.3,3.63-1.85a1.17,1.17,0,0,1,1,0c1.68,1.73,3.31,3.51,4.94,5.3a0.81,0.81,0,0,1,0,.79A7.11,7.11,0,0,1,131,176c-1.32-1.45-2.65-2.89-3.92-4.38a1,1,0,0,0-1.5-.26c-1,.63-2.12,1.24-3.34,1.94l0.82,0.75,2.58-1.49,0.71,2.31,0.47-.06v-1.94l0.29-.18,2.79,3.64-0.69.64,1.19,0.82-0.23.79a5.78,5.78,0,0,0,.62-0.4,102.56,102.56,0,0,1,41.24-22,100.53,100.53,0,0,1,19.33-3.41,1.17,1.17,0,0,0,1.29-1.44c-0.07-2.55,0-5.1-.17-7.65a1.28,1.28,0,0,1,1.34-1.57c0.58-.07,1.15-0.17,1.73-0.26l0.21-.43-4.62-3a28.18,28.18,0,0,1,1.18-3.27,16.31,16.31,0,0,0,.77-13.12,36.66,36.66,0,0,1-1.72-6.87,15.07,15.07,0,0,1,8.45-15.22,6.07,6.07,0,0,0,.87-0.61h0.82ZM142.41,305.12c-0.16,1.08-.33,2.17.58,3l0.53-.16-1.08-2.83L142.26,302A2,2,0,0,0,142.41,305.12Zm60.76-199.78c-0.41.74-.6,1.46,0.62,2.3a16.44,16.44,0,0,0,.17-2,2.78,2.78,0,0,0-.84-0.24l0-2.24-1.6,1.37,1.06-1.62L201,100.65l0.22-.16,1.68,1.94,0.38-.1a2,2,0,0,0-.14-1c-0.81-.4-1.39-1.86-2.5-1a22.64,22.64,0,0,0-2.63,2.94l-0.13-.79a15.28,15.28,0,0,0-4.85,6.91c-1.13,3.36-.57,6.65.37,9.93q0.85,2.95,1.61,5.92a11.26,11.26,0,0,1-1.35,9.05c-0.66,1.08-1.15,2.26-1.85,3.64a6.48,6.48,0,0,0,4.75-5.84c-0.53,1-.93,1.89-1.48,2.71a26.93,26.93,0,0,1-1.72,2.14c1.24-3,2.47-6.06,3.71-9.06a2.57,2.57,0,0,1,.57-0.72c2.35-2.45,3.14-5.62,4-8.8l-1.13,1-0.12-.11,2.56-3.46-0.52-.44-2.38,2.7-0.29-.29a32.36,32.36,0,0,0,3.27-3.94c0.93-1.54.21-3.29,0.22-5.34l-4.51,5.15a33,33,0,0,1,3.57-4.82c0.61-.71.86-1.33,0-2.1l-4.09,5.5a30.35,30.35,0,0,1,3.35-5.07,1.5,1.5,0,0,0,.2-1.94A0.83,0.83,0,0,0,203.17,105.34Zm1.31,4.24,0.31-2.22c-1.4.88-1.39,1.57-.31,2.23l-0.43,3c1.71-.94,1.09-2.08,1-3.1ZM308.92,252.2c1.34,0.1,1.43-.06,1.18-1.93-1.48-.09-1.64.16-1.13,1.95a11.23,11.23,0,0,0-.19,1.79,4.19,4.19,0,0,0,1.1.27l0.13-1.5Zm-34-79.82c-1.72,1.29-1.8,1.51-1,3,1.51-.64,1.36-1.8,1-3l1.09,1.2,1.11-.7-1.59-1.44ZM146,301.26l0.38,2.87c1.46-1.13,1.53-2.79.37-3.66,0.63-.86.1-1.37-0.52-1.92C144.88,299.4,145.43,300.33,146,301.26Zm77.38-73-1.23-1.62-3.88,4.85,0.11,0.39a3.55,3.55,0,0,0,1.27-.36c1.2-1,2.32-2,3.48-3l-3.38,3.92,1.58,1c1.87-1.39,1.87-1.39,2.84-.2l2.56-2ZM123.16,338.38c0-1.15.53-2.39-.56-3.4-0.85,1.37-.2,2.39.57,3.38a0.56,0.56,0,0,1,0,.13,0.53,0.53,0,0,1,0,.13c-0.49-.55-1.63-0.28-1.69-1.42a2.17,2.17,0,0,0-.72-0.84l-0.32.44-1.94-3.59-0.91,1.38c-0.29-1.15.29-2.58-1.15-3.51a7.46,7.46,0,0,0,0,2.14,4.65,4.65,0,0,0,1.14,1.33,1.26,1.26,0,0,0,.06.63c1.92,2.08,3.86,4.13,5.87,6.27l2.2-2.52-1.69-2ZM237.41,215.59l-1.81-1.66c-3,3.28-6,6.29-7.84,10.13,1.2-1,2.29-2,3.45-3,1.82-1.57,3.67-3.1,5.51-4.65l-9.38,9,0.21,0.26,11.94-9-0.11-.47Zm71.44-65.94-2.49,7.85c1.63-2.13,3.09-4.32,3.2-7.15,0-.6-0.09-0.89-0.74-0.67l1.72-2.93c-3.81-.6-7.41-0.73-10.91.75a1.67,1.67,0,0,0-1.22,1.82c0.07,2,0,4.1,0,6.15,0,1.65,0,3.29,0,4.94a1.93,1.93,0,0,0,.81-1.4c0-1.82-.15-3.64-0.12-5.46s0.21-3.4.32-5.1l0.47,0v10.75a1.75,1.75,0,0,0,1.58-1.94c0-3.17.15-6.35,0.24-9.52H302v9.86l0.42,0.08a8.75,8.75,0,0,0,.37-1.49c0.17-2.32.29-4.65,0.43-7l0.46,0v7c1.22-1.14,2.08-2.1,1.88-3.67-0.18-1.41-.27-2.84-0.32-4.27a5.16,5.16,0,0,1,.36-1.41l0.38,0.05,0.59,4.75,0.32,0,1-4,0.35,0.09-0.21,2.44ZM143.62,258.16H136.3c2.39,0.3,4.78.48,7.16,0.79,2.75,0.36,5.48,1.1,8.23,1.2a75.35,75.35,0,0,0,8.44-.61c0.44,0,.88,0,1.33,0l0.09,0.47-6.5,2.61a76,76,0,0,0,8.39-2.16,1,1,0,0,0,.34-0.78,41.91,41.91,0,0,0-.15-4.37,1.9,1.9,0,0,0-.94-1.29,38.39,38.39,0,0,0-20.26-3.23,40.13,40.13,0,0,0-5.62,1.38l0.1,0.44c3.84-.87,7.69-1.44,11.6-0.46l-7.1.6,0,0.31,1.18,0.33-1.92.66,0,0.34h21.38q0,0.31,0,.63H139.47l0,0.51,3.63,0.2,0,0.41h-3.52v0.37c2.48,1,5.19.44,7.72,1.09l-3.64.58h0Zm29.7-30.07h0l-0.11.28a0.46,0.46,0,0,0,.24,0c1-1.32,2.5-1.49,4-1.94a30.65,30.65,0,0,0-6.68-12.23c-4-4.57-9.37-7-14.92-9a1.44,1.44,0,0,0-1.16.32c-1.36,1.14-2.68,2.33-4,3.53a1.16,1.16,0,0,0-.46.74c0.84,2.05,1.74,4.08,2.63,6.11l0.27-.12-0.74-3.7c1.19,2.17,2.38,4.68,3.89,7,1.72,2.62,4.8,5.15,6.18,5.47-0.76-.8-1.55-1.51-2.18-2.34a23.49,23.49,0,0,1-1.47-2.42l0.31-.21,2.11,2.35,0.41-.25c-0.38-.69-0.77-1.38-1.14-2.08s-0.75-1.5-1.12-2.25c3.27,4.66,7,8.65,12.09,11.31a20.47,20.47,0,0,1-7.21-8.83c1.26,1.55,2.32,3.28,3.71,4.69S170.88,227.84,173.31,228.1Zm94.13-11.46,2.77,5.22c0.21,0.55.38,1.11,0.62,1.64a78,78,0,0,1,7.23,30.78,76.74,76.74,0,0,1-3.44,25.21c-0.12.39-.19,0.79-0.28,1.18l0.37,0.06c3.54-10.06,4.58-20.5,4.68-31.12l0.44,5.33c0.86-3.89-.41-7.55-0.87-11.3l-0.43,0v4h-0.25l-1.66-12.92,0.6,0.4c-0.6-2.43-1-4.56-1.66-6.64s-0.78-4-2.77-5.54c-1.26-1-1.71-3-2.43-4.66a21.82,21.82,0,0,0-.56-2.17,69,69,0,0,0-10.28-13.61c-5.16-5.2-10.07-10.74-17.23-13.45-3.14-1.19-6.17-2.7-9.24-4.08-1.12-.5-2.22-1-3.33-1.56l0.13-.28,4.89,1.9c-2.73-2.16-10.19-5.28-11.74-5.08l1.18,0.88-0.13.26-6-2,1.44-.19A56.83,56.83,0,0,0,214,177a73,73,0,0,0-23.1-1.4,78.37,78.37,0,0,0-36.71,13,9.47,9.47,0,0,0-.94,1.18c-0.67.64-1.4,1.23-2.11,1.83l-0.14-.17,0.25-.58c-9.3,6-25,22.43-30.19,45.61-1.42,6.41-2.68,24.38-1.1,26.74a72.8,72.8,0,0,1,1.49-22.6c1.62-7.31,3.32-14.61,6.87-21.3a4.28,4.28,0,0,1-.3,1.7,107.33,107.33,0,0,0-6.81,40.43,55.34,55.34,0,0,0,3.59,17.13c-6.07-22.95-3-44.61,8.94-65.1l-3.12,4.22c2.16-4.62,8.41-13.1,10.2-14.06l-0.19,1c1.23-1.31,2.31-2.49,3.41-3.64s2.39-2.45,3.59-3.67l0,0c2.7-1.86,5.42-3.71,8.11-5.58,2.51-1.75,4.94-3.63,7.52-5.29a52.63,52.63,0,0,1,12.49-5.77c5.74-1.85,14.25-3.09,18.39-2.67-4.43.25-13.34,1.54-15.68,2.88,0.41-.07.63-0.08,0.84-0.14a76.12,76.12,0,0,1,26.32-2.26,98.13,98.13,0,0,1,12.66,2,76,76,0,0,1,38.25,21.8l-0.05-.05c1.85,2.19,3.79,4.3,5.53,6.57C263.89,211.36,265.63,214,267.44,216.64ZM168.23,277l-0.79.49,6.13-7a45.65,45.65,0,0,1-1.75-4.66c-0.35-1.27-.86-1.58-2.16-1.46-2,.18-4.1,0-6.15,0l0-.17,1.71-.73-1.36-.09-0.13-1.34a28,28,0,0,1-16.55,5,23,23,0,0,1-15.84-6.39c-0.71,3.09-.71,3.09-3.72,3.1h-4.31A76.56,76.56,0,0,0,139,303.46l7.29-6.11,1.55,1.72c4.66-9.9,10.93-17.64,22.26-19.73l-1.84-2.3a7,7,0,0,1,1.36.83c1.14,1.11,2.21,2.29,3.33,3.43,0.82,0.83,1.68,1.63,2.53,2.44l0.17-.17-5.44-6,0.26-.24,0.92,0.49c0.82-1.3-.33-1.78-0.84-2.52Zm16.1-46.95a5.46,5.46,0,0,0-.76-1.06c-1.3-1.12-2.64-2.19-4-3.28l-0.95.68c0.6,0.85,1.06,1.57,1.59,2.24,0.77,0.95,1.61,1.75,3,1.25a2.27,2.27,0,0,1,1,.21l0.07,0.82c2.43-1,4.83-2,7.2-3a1.45,1.45,0,0,0,.84-0.86c0.16-2.67.23-5.35,0.34-8.08l2.44-.55c-4.5-10-5.64-19.86.39-29.73-0.51,0-.92-0.09-1.32-0.09-2.12,0-2.16,0-2.27-2.14s-0.24-4.07-.36-6.1c-8.19-.71-33.19,9.42-40.45,16.38l1.72,1.58,0.31-.24-0.86-1.73,0.25-.2,5.65,4.44-2.12,4c5.57,0.69,10.07,3.48,13.94,7.4a34.1,34.1,0,0,1,8.16,13.69c1.91-1.72,2-1.71,3.58,0,1,1.08,2,2.15,2.93,3.25,0.3,0.35.53,0.76,1,1.47Zm31.16,0.59c1.07,0.93,1.87.9,2.69-.07,1.06-1.25,2.13-2.48,3.18-3.74a4.11,4.11,0,0,0,.43-0.86l-0.29-.21a7.4,7.4,0,0,0-.74.48l-5.3,4.44c0.31-2.06,2-3.1,3.33-4.33,1.79-1.61,2.39-1.62,4.33-.42,0.14-.29.28-0.57,0.42-0.85a36.16,36.16,0,0,1,18.15-17.79c1-.46,1.92-1.09,2.9-1.65l-2.31-3.09,5.85-6.29a73.68,73.68,0,0,0-39.67-16.42c-0.14,2.52-.21,4.84-0.42,7.14a14.51,14.51,0,0,1-.86,2.71c3.77,9.47,2.75,19.16-1.82,28.72l2.11,0.3a2,2,0,0,1,.14.45c0.06,2.36.08,4.73,0.19,7.09a1.72,1.72,0,0,0,.6,1.29C210.72,228.68,213.11,229.66,215.49,230.68Zm7.24,12.88A6.86,6.86,0,0,0,223,245a25.81,25.81,0,0,1,2.34,14.07,20.65,20.65,0,0,0,0,2.49,17.92,17.92,0,0,0,.37-9.5,69.75,69.75,0,0,0-2.61-8.1,7.54,7.54,0,0,1,1.34,1.08,9,9,0,0,1,.89,1.68c0.23,0.47.44,1,.66,1.44l0.37-.16-3-7.25,0.15-.08,2.62,4.26a1,1,0,0,0,0,.27c2.94,7.64,3,15.23-.47,22.74a2.22,2.22,0,0,0,.34.4,17.54,17.54,0,0,0,1.75-3.9,52.87,52.87,0,0,0,1.07-9.3,21.26,21.26,0,0,0-2.6-10.31,11.4,11.4,0,0,0-.47-1.26c-7.62-15-25.38-20.13-39.91-11.69a42.3,42.3,0,0,0-7.86,6.5,12,12,0,0,0-3.39,5.06c1.83,0.31,1.76-1.79,3-2.1-1.55,2.7-3.8,5-3.94,8.77l0.92-2.41c-1.75,8.89-.83,17.23,4.61,25a10.3,10.3,0,0,0,0-2.54,14.4,14.4,0,0,0-1.18-2.14,24.88,24.88,0,0,1-1.25-20.63,57,57,0,0,1,3-5.9L180,241.7c-3.42,6.65-3.95,11.55-3.78,15.85,0.62,15.84,15.34,24.72,28.08,22.57a24.29,24.29,0,0,0,19.1-31.82,23.4,23.4,0,0,0-22.81-16.5c-6.1.16-11.52,2.48-16.51,5.88-0.41.28-.85,0.51-1.28,0.76l-0.3-.41c1.11-1,2.15-2,3.34-2.9,8.4-6.1,20.76-5.74,29.81.82l0.13,0.06c2.71,1.52,4.39,4.07,6.31,6.36A5.49,5.49,0,0,1,222.73,243.56Zm29-77.45a6.91,6.91,0,0,0-.81-0.67,78.44,78.44,0,0,0-28.49-10.32c-3.06-.5-6.12-1-9.21-1.26-3.59-.35-7.17-1.41-10.82-0.42a3.82,3.82,0,0,1-1.36,0,55.37,55.37,0,0,0-20,1.76,112.81,112.81,0,0,0-27.3,11.34c-0.41.23-.83,0.43-1.24,0.65l-0.32-.57a136.34,136.34,0,0,1,12-6.73,97.91,97.91,0,0,0-43.33,30,101.61,101.61,0,0,0-21.05,44.42,3.73,3.73,0,0,0,.6-1.17c3.06-8.09,6-16.21,10.08-23.88,5.14-9.76,11.49-18.6,19.88-25.87,0.36-.32.75-0.6,1.13-0.9l0.14,0.19-1.52,1.8a2.08,2.08,0,0,0,1.05-.59c4.57-3.81,8.94-7.9,13.78-11.32a76.07,76.07,0,0,1,12-6.44c18.93-8.76,38.77-11.28,59.36-8.25a101,101,0,0,1,41.19,15.61c0.52,0.34,1,.71,1.53,1.07l-0.22.29c-0.41-.26-0.81-0.53-1.23-0.77-3.1-1.82-6.12-3.82-9.32-5.43-20.14-10.14-41.4-13.2-63.63-9.69a96.88,96.88,0,0,0-40.34,15.9c-18.41,12.67-30.42,30.09-37.43,51.12-1.1,3.31-1.93,6.7-2.93,10.22,0.59,0,.9,0,1.21,0,4.64-.3,9.27-0.64,13.91-0.88a1.69,1.69,0,0,0,1.77-1.58,77.43,77.43,0,0,1,22.69-38.27c17.1-15.7,37.37-23,60.52-20.95a87.1,87.1,0,0,1,42,15,82.49,82.49,0,0,1,31.1,39.41c1.23,3.22,2.17,6.54,3.24,9.83l13.62-2.36L294,237l-13.5,2.53,1.82,14.29,17.32-1.51q-4.29-47.1-41.17-76.59c21.81,15.76,34.77,37.17,40.47,63.3-0.43-3.12-1-6.22-1.62-9.3a21.69,21.69,0,0,0-1.13-2.62c-1.41-3.89-2.69-7.82-4.2-11.67-1.16-3-2.72-5.77-3.9-8.73a44.07,44.07,0,0,0-7.59-12.7c-0.26-.31-0.49-0.64-0.74-1l-0.24.26,6.23,8.84-0.49.38c-0.31-.38-0.64-0.75-0.94-1.14-2.08-2.71-4.13-5.45-6.26-8.12-0.67-.85-1.06-1.58-0.23-2.5a0.27,0.27,0,0,1,.13,0,5.52,5.52,0,0,1,.53.41,37.06,37.06,0,0,1,9.05,12.39c0.86,2,1.84,3.86,2.75,5.79,2.93,6.17,5.9,12.31,8.75,18.51a54.28,54.28,0,0,1,1.9,5.61,101.86,101.86,0,0,0-20.51-42.42l0.57,1.63c-2.13-2.94-3.82-5.77-6-8.18a86.18,86.18,0,0,0-18.82-15.75c-0.92-.57-1.88-1.09-2.82-1.63Zm-6.89,45.53,0.22,0.23-2.76,4.41,0.3,0.38a2.94,2.94,0,0,0,.91-0.59c0.75-1.09,1.44-2.21,2.13-3.34,0.35-.57.66-1.16,1-1.75l0.55,0.33-3.4,5.76a0.7,0.7,0,0,0,.4.05,11.83,11.83,0,0,0,4.56-6.07l0.27,1,1.22-.4c-3.08,11.09-10.69,17-21,20.25,0.35,0.44.65,0.84,1,1.22,1.35,1.62,1.36,1.85-.18,3.34s-3,2.87-4.36,4.1c1.1,2.62,2.11,4.86,3,7.15a1.32,1.32,0,0,0,1.56,1c2.14-.09,4.28,0,6.43-0.05a1.37,1.37,0,0,1,1.61,1.65c-0.06.86,0,1.74,0,2.85a24.55,24.55,0,0,1,15.09-4.2,26.14,26.14,0,0,1,14.47,5.26c0.1-.56.18-0.91,0.22-1.27,0.33-2.89.33-2.89,3.2-2.9h5.48a78.05,78.05,0,0,0-18.07-43.56l-0.91,1.26c1.47,0.37,1.52.53,0.6,1.5s-2,2.11-3,3.18c-1.88,2-2.4,2-4.21.07l-5.9-6.38-10,6.29c1.62,0.93,3,1.63,4.26,2.46a1.39,1.39,0,0,0,2-.23C242.53,213.66,243.69,212.67,244.82,211.64Zm-102.48-6.38a81.56,81.56,0,0,0-18.79,42.32h6.91l0.86,5.33a7.22,7.22,0,0,1,1.38-1,37,37,0,0,1,4.24-1.49c8.53-2.22,16.8-1.14,24.88,2.06l1.81,0.71v-3.32l0.57,0,0.9,10,0.28,0v-8.86h0.45v9.67l0.55,0.08a8.46,8.46,0,0,0,.42-1.61c0.17-2.7.29-5.41,0.43-8.12h0.31l0.42,7h0.2v-5.9h0.25l0.68,7.89,0.57,0V252H170l0.17,2,0.2,0,0.71-4.41h-6.84a2.33,2.33,0,0,1,1.3-.5c1.63-.12,3.27-0.18,4.9-0.33a1.39,1.39,0,0,0,1-.56c1.18-2.65,2.29-5.33,3.46-8.11l-5-5.67L171.6,233c-1.07-.62-1.82-1.1-2.62-1.49-1.83-.92-3.78-1.63-5.49-2.72-6.5-4.1-11.29-9.58-13.27-17.19-0.14-.55-0.26-1.1-0.42-1.81-0.88.69-1.56,1.3-2.32,1.79a1.23,1.23,0,0,1-1.11.08c-1.42-1.21-2.79-2.48-4.15-3.76a8.37,8.37,0,0,1-.83-1.23l1.75,0.9,0.31-.25Zm48.89,87.67a11.07,11.07,0,0,1-.29-1.61c-0.07-1.91-.06-3.83-0.16-5.74a1.35,1.35,0,0,0-.58-1c-2.09-1-4.22-1.9-6.32-2.83-0.74.8-1.53,1.69-2.35,2.53s-1.69,1.66-2.55,2.47a1.4,1.4,0,0,1-2.28-.12,10.36,10.36,0,0,1-.84-1.38c-3.51,10.54-10.36,17.29-19.83,21.65a2,2,0,0,0,.19.42c1.76,2.08,1.76,2.08-.09,4.2l-1,1.12-3.3,3.73A79.3,79.3,0,0,0,192.37,333v-8.58h0.25l0.43,1.65,1.11-1.43-0.78-.36,2-.55a37.11,37.11,0,0,1-4.15-15.16,26.24,26.24,0,0,1,3.32-15.17Zm67.59,12.78c8.46-8.67,18.8-32.9,17.29-40.59-2.34,0-4.71,0-7.07,0-0.94,0-1.88-.08-1.75-1.55a28.22,28.22,0,0,1-15.11,2.27A28.91,28.91,0,0,1,238,260.07l-0.33,4.71c-2.75-.22-5.27-0.43-7.8-0.59a1.22,1.22,0,0,0-1,.37c-1.16,2.51-2.25,5-3.32,7.48,1.57,1.73,3.11,3.46,4.69,5.16a1.37,1.37,0,0,1,0,2.14c-0.42.45-.81,0.93-1.34,1.55,0.44,0,.65.07,0.86,0.07a14.27,14.27,0,0,1,9.19,3.32,30.48,30.48,0,0,1,8.26,10.41c1.28,2.5,2.34,5.1,3.55,7.76l1.85-1.5ZM207.53,333.1a77.46,77.46,0,0,0,39.21-15.67l-5-5.78,2.46-2.89a39.94,39.94,0,0,1-13.24-8.53,28.07,28.07,0,0,1-8.05-13.62l-3,2.8-5.85-6.27-7.28,2.76c0,1.68,0,3.46,0,5.23,0,2.41,0,2.41-2.46,2.5a6.21,6.21,0,0,0-.75.14c5.09,9.54,5.15,19.26,1.63,29.3h2.29v10Zm-99.73-40c1.78-1.25,3.21-2.21,4.58-3.26a1.93,1.93,0,0,0,.52-1.13,2.78,2.78,0,0,1,3.08-2.61l0.26,1.08,6.25-3.42-4.39-19.69-16.33,2.6,2.13,13.61c2.75-1.29,5.19-2.49,7.68-3.59s4.93-2.06,7.39-3.08l0.17,0.36c-0.26.15-.51,0.33-0.79,0.46l-13,6c-0.5.23-1.25,0.27-1,1.15Zm173.54,5.1-5,8,1.68,1.54,2.67-3.73,0.33,0.23c-0.61,1-1.16,2.13-1.84,3.12a1.26,1.26,0,0,0,.1,1.87,25,25,0,0,1,1.87,2.51l-0.33.25-2.53-3-4.17,5.85,3.32,3.92c5.18-4.54,16-23.35,16.61-28.6L279,279.07c-1.45,3.68-2.8,7.26-4.29,10.77a1.47,1.47,0,0,0,.51,2c3.21,2.77,6.38,5.59,9.55,8.39,0.86,0.76,1.7,1.53,2.55,2.3l-0.39.41ZM281.79,266c-0.89,4-1.77,7.91-2.58,11.81a1.51,1.51,0,0,0,.62,1.13c2,1.49,4.08,2.9,6.1,4.38,2.82,2.06,5.62,4.15,8.54,6.31A83.46,83.46,0,0,0,299,270.81ZM55,256.27l0.59-.58c0.65,0.55,1.3,1.1,2,1.65s1.3,1.41,2.28.38l-0.52-1.45a2.8,2.8,0,0,0,3.4.58l-0.06-.61H68l-0.89-1.53,0.23-.13,2.37,2,0.24-.91,3,1.44,0.15-.31-0.71-1.64,0.52-.43,1.84,2.61,0.35-.32-0.91-2.33,0.23-.1L76,257.72l0.25-.1L76,255.48h0.19l2.06,5.1,0.33-.12-1.31-4.87,0.37-.11c1,2.25,2,4.5,2.06,7,0,1.12.44,1.28,1.43,1.35a17.57,17.57,0,0,1,.47-15.39,1,1,0,0,0-.37,0c-3.58,2.89-7.69,3.13-11.93,2.2C66,250,62.77,248.84,59.46,248c-6.69-1.6-12.14.43-15.65,5.76a1.73,1.73,0,0,0-.18,1.52c1.74,2,3.54,3.89,5.43,5.72a9.21,9.21,0,0,0,2.31,1.21c-5.41-4.55-6.42-5.64-6.46-7.52a12.68,12.68,0,0,0,1.24,1.41,3.21,3.21,0,0,0,1.14.51,6.77,6.77,0,0,1,1.37.32c0.93,0.54,1.79,1.18,2.68,1.78l0.58-.68-2.13-1.32,0.34-.38,3.63,2.88L54,259l-1.74-2.08,0.47-.43c0.56,0.53,1.1,1.09,1.69,1.6s1.13,0.85,1.7,1.28l0.29-.39-2.71-3.05,0.2-.17,3.45,3.21,0.59-.63Zm120,28.65-4.49-5.05c-1.86.82-3.59,1.63-5.36,2.35-7.11,2.88-12,8-15.41,14.79-1.37,2.74-1.37,2.74,1.16,5l6.35-5.23,0.08,0.11-2.56,2.9,0.65,0.59L160.1,295l0.37,0.36-4,4.68c1.37,0.78,2.25,0,3.12-.89s1.73-1.63,2.51-2.51c1.61-1.83,3.17-3.72,4.75-5.58l0.31,0.22-4.75,6.66,0.72,0.33-4,3.12c5.21-2.76,8.93-7,12.1-11.88l-2.68,5C172.37,292.29,172.66,288,175,284.92ZM121.7,167.26c-5.14-.66-8.27-3.89-10.82-7.92-1-1.54-1.81-3.17-2.86-4.66a61.7,61.7,0,0,0-5.43-7.16C99.23,144,95,143.46,90.1,144.64l2.16,5.73,0.43-.11V148c0.89,2.18.38,4.83,2.6,6.58l-0.51-3.38,0.54-.11L97.09,157l0.34-.11-1-6.24,0.29,0,1.83,4.36,0.4-.12v-1.55a28.26,28.26,0,0,1,1,2.82,18.48,18.48,0,0,0,1.58,2.5l0.3-.18-0.22-2.86c1.19,1.67.38,4.19,2.67,5.33l0.29-1.34c1.38,1.26.59,4.07,3.17,4l0.94,2,1.18-1.08c0.09,0.78.12,1.29,0.21,1.79a2,2,0,0,0,.3,1.14c1.57,1.15,1.21,3.07,1.9,4.56l-0.91-1-0.32.17,1,3.35A18.92,18.92,0,0,1,121.7,167.26ZM120,236.1l-16.35.74-2,14.82a2.78,2.78,0,0,0,.7.26c5.06-.56,10.11-1.12,15.16-1.74a1.29,1.29,0,0,0,.66-0.94c0.28-2,.43-4.07.72-6.1C119.21,240.8,119.65,238.48,120,236.1Zm86.11-37c-0.35-3.35.85-6.79-.84-10.27-2.54,0-5.18,0-7.82,0a1.43,1.43,0,0,0-1.07.71c-1.91,5-3.35,10.12-3.28,15.54,0,1.24.25,2.48,0.38,3.72,0.12-1.8,0-3.57.15-5.32s0.45-3.5.69-5.26l0.36,0c0,5.26-.39,10.56,1.91,15.34V202.32h0.12l1.69,15,0.56,0V203.88h0.35c0.09,1.26.19,2.52,0.27,3.77s0.06,2.64.21,3.95,0.44,2.37.67,3.55l0.11,0L201.22,205l0.32,0,1.14,8.43h0.51v-8.15h0.56l0.59,6.07c1.7-4.75.57-9.42,0.76-14h0.34Zm93,70.76a85.94,85.94,0,0,0,.42-16.59l-17.19,1.26c-0.22,3.5-.46,6.91-0.62,10.31a1.2,1.2,0,0,0,.73.88C287.94,267.07,293.41,268.41,299.13,269.82ZM117.54,343.65a18.57,18.57,0,0,1-7.08-9.44c-0.61,5.14-3.84,8.28-7.85,10.84-1.19.76-2.46,1.4-3.61,2.21a84.41,84.41,0,0,0-8,5.88c-3.54,3.17-4.29,7.36-3.3,11.9a1.43,1.43,0,0,0,.79.88c1.09,0.4,1.53-.1,1.67-1.22,0.34-2.59.8-5.16,1.21-7.74L91.87,357,90.6,365.4c1.07-.14,1.71-0.49,1.75-1.61a21.83,21.83,0,0,1,.33-2.71c0.28-1.65.59-3.3,0.89-5L94,356.21l-1.31,8.12c1-.38,1.64-0.84,1.61-2a24.8,24.8,0,0,1,.25-3.54c0.15-1.19.4-2.36,0.6-3.55l0.47,0.08-0.82,7.3c1.4-.8,1.46-0.95,1.6-2.86,0.17-2.26.1-4.56,1-6.68l0.36,0L97,360.57c1.12-1.21,1.94-2.15,1.86-3.71a34.55,34.55,0,0,1,.32-4.4l0.45,0v4.34c1.87-1.37,1.45-3.31,1.62-5.1l0.3,2.29c2.18-2.16,1.29-5.13,2.72-7.63l0.38,3.16,0.4,0.14,1.67-3.23,0.27,0.7,0.36,0,1.49-5,0.3,0.06,0.38,3c2.54-.37.7-2.36,1.47-3.66l0.54,2.88L113,344l-0.28-1.83,0.33-.08,1.29,2.76Zm238.23-85.43L356,258c-0.85-1.1-1.65-2.24-2.56-3.29-3.34-3.83-7.45-6.07-12.64-5.36a50.27,50.27,0,0,0-7.93,2c-4.38,1.36-8.51,1.24-12.4-1.45a15.3,15.3,0,0,0-2.27-1.09c1.42,3.24,1.41,6.57,1.21,10.26l3.48-4.61,0.26,0.18-2.27,3.88c2.9-.29,3.61-3,5.75-3.8l-2.47,2.9,0.41,0.38,2.87-3,0.27,0.22-1.28,2.2a1.9,1.9,0,0,0,2.41-.8,28.3,28.3,0,0,1,2.05-2.28l0.39,0.36-2,2.73a1.54,1.54,0,0,0,2.05-1.35c0.17-1.16.84-1.07,1.88-1.33l-1.7,2.7a1.86,1.86,0,0,0,2.63-.81c0.82-1.14,1.81-2.16,2.72-3.23l0.43,0.35-2.84,4c1.25,0.36,1.14.28,1.75-.56a21.43,21.43,0,0,1,2.32-2.38l0.44,0.39-1.46,2.29,0.2,0.13,3.65-2.67,0.3,0.37L340,257.63l0.2,0.19,3.57-2.93,0.37,0.4-2.42,3.27c1.29,0.65,1.75-.07,2.29-0.9a15.7,15.7,0,0,1,1.68-1.9l0.52,0.39-1.76,2.65c1.49,0.62,1.87-.6,2.54-1.34,0.48-.52,1-1,1.48-1.52l0.44,0.34-1.45,2.46,0.17,0.11,2.84-2.46,0.32,0.23-1.2,2.2c2,0.29,1.78-2.49,3.71-2.71l-1.11,2.11C353.42,257.26,354.6,257.57,355.77,258.21ZM113.92,305.64c4.73-3.38,9.18-6.53,13.58-9.74a1.34,1.34,0,0,0,.13-1.22c-0.86-2-1.83-3.86-2.71-5.81-0.66-1.47-1.24-3-1.9-4.58-1.5,1-2.89,2-4.23,3a1.22,1.22,0,0,0-.35,1,2.66,2.66,0,0,1-1.09,2.88A2.9,2.9,0,0,1,114,291a1.34,1.34,0,0,0-1-.21c-1.61.83-3.18,1.74-5,2.74Zm88.45-.82H203v15l0.43,0c0-.47.07-0.94,0.12-1.41,0.31-2.85.42-5.75,1-8.54a13.08,13.08,0,0,0,.2-5c-0.2-1.17-.36-2.36-0.53-3.54l0.36-.08,1.37,4.78a33.63,33.63,0,0,0-3-11.86,1.09,1.09,0,0,0-.82-0.51c-2.36,0-4.72,0-7.05,0-2.89,7.62-2.08,18.68-.57,22.12V298.89c0.78,6.46.82,13,2,19.41,0.35-2.66.69-5.29,0.89-7.94s0.26-5.47.38-8.2c0.47,6.16-.18,12.36.59,18.5h0.5v-7.52h0.3l0.54,3,0.43-12.52,1.4,17h0.19Zm41.18-2.24,0.54-.45-3.4-4.39,0.23-.2,2.37,2.1,0.16-.18-1.68-2.36,0.29-.23,5.69,6.35c-0.2-.7-0.3-1.12-0.44-1.52a28.25,28.25,0,0,0-4.81-8.37,3.62,3.62,0,0,1-.34-1.4l0.4-.17a56,56,0,0,1-4-4.69c-1.58-2.31-3.88-3.34-6.28-4.51-3-1.45-4.94-.84-7,1.55s-2.1,2.13-.73,4.82c0.77,1.5,1.54,3,2.41,4.44s1.77,2.68,2.67,4l0.15-.11-3.62-8.86c1.46,1.91,2.62,4,4.13,5.85a63.5,63.5,0,0,0,5.12,5l0.17-.22-4.67-7.93,0.38-.22c0.83,1.25,1.62,2.53,2.5,3.75s1.5,2.59,2.81,3.38c-0.11-1-2.1-1.71-.25-2.89l-0.78-1.34,0.3-.22Zm10.88-42.05,0,0.14a14.64,14.64,0,0,0,1.67.1c2.77-.14,5.54-0.26,8.3-0.48,3.14-.25,3.17-0.28,3.3-3.49a2.09,2.09,0,0,0-.61-1.58c-9-6.28-18.44-6.47-28.14-1.73a1.61,1.61,0,0,0-.71,1.13,28.66,28.66,0,0,0,0,2.92c8.72,1.68,17.25,1.53,25.8,1.25l0,0.46ZM101.8,265.74l16.32-2.53V250.7a45,45,0,0,1-16.32,1.79v13.24Zm139.4,70.54-5,2.39,2.24,5.16-0.39.18c-0.72-1.44-1.47-2.86-2.15-4.31-0.37-.79-0.75-0.75-1.27-0.21,0.89,1.69.79,3.25-.42,4a3.35,3.35,0,0,1-2.29.3,6.65,6.65,0,0,1-1.92-1.36l1.74,6.73-0.37.12-1.34-3.56-6.61,2.25,0.66,3.88c0.35,0,.61-0.05.87-0.09,5.1-.8,9.82-3,14.93-3.94,2.26-.39,4.31-2,6.5-3Zm61.24,16,0.4-.51c1.08,0.91,2.14,1.85,3.25,2.72a5.49,5.49,0,0,0,1.28.56l0.18-.37a13.45,13.45,0,0,0-4.8-4.73c-2.19-1.3-4.44-2.5-6.66-3.75a11.82,11.82,0,0,1-6.14-8.12,30.7,30.7,0,0,0-1.06-3.24,19.17,19.17,0,0,1-6.35,8.05L294,351.55a2.84,2.84,0,0,0-.28-1.23c-1.95-2.11-3.95-4.17-5.93-6.24l-0.85-.9,0.44-.43L301,356.37c-1.15-2.3-3.28-3.83-4.76-5.88a24.49,24.49,0,0,1,4.46,2.9c1.75,1.58,3.27,3.42,4.89,5.15l2,2.11a2.78,2.78,0,0,0-.37-1.48,2.14,2.14,0,0,1-.37-0.93c0.78-.86.05-1.5-0.36-2a36.62,36.62,0,0,0-2.82-3A13.88,13.88,0,0,0,302.44,352.31Zm-27-46.82,5.5-7.66-7-6.39a87.28,87.28,0,0,1-14.12,20.87l2.5,2.34,4.41-5.18L265.64,308l0.23-.2,1.4,1.06,3.9-5.22-1.11-.86,0.11-.21,1.48,0.37,4.32-6.51,0.33,0.21-3.82,6.86Zm-145.81.32L125,298.94l-10.69,7.24,6.24,9.26Zm126.81,25.8,3.41,4.46c6.42-4.87,11.67-10.77,17-16.43l-3.46-3.82-4.64,5.26,2.49,2.78-0.22.21-2.76-2.46-5.26,5,1.49,1.85-0.29.26a15.71,15.71,0,0,1-1.16-1.06,0.86,0.86,0,0,0-1.39-.08C260,328.91,258.3,330.2,256.48,331.6Zm-126.31.69c-11.91-12.89-21.25-27.24-26.65-44.08a101.57,101.57,0,0,1-3-51.46A81.64,81.64,0,0,0,97.42,257c-0.4,11.69,2.81,22.78,5.58,33.91,2.46,9.9,7.8,18.54,13.75,26.67,3.32,4.54,7.41,8.51,11.18,12.71A30.19,30.19,0,0,0,130.16,332.29Zm125.51-.15-6.56,4,3,4.64-0.29.2c-1-1.25-1.88-2.52-2.89-3.72a1.38,1.38,0,0,0-1.13-.48c-1.34.54-2.62,1.22-4,1.9l3.23,5.89,12.32-7.9Zm-110.62-4.73-6.15-4.92c-1.06,1.12-2.05,2.17-3.06,3.21s-2,2-3.1,3.14c1.77,1.52,3.44,3,5.18,4.38a1.28,1.28,0,0,0,1.23,0C141.13,331.37,143,329.43,145.06,327.41Zm18.74,14.84c-2.39-1.12-2.66-1.93-1.53-4.48l-4.95-2.52-4.17,8.38,8.32,4.21,0.75-1.81L156,342.39l0.11-.2,6.47,3ZM119.51,197.47l-0.21-.17a1.85,1.85,0,0,0-.31.26c-0.36.47-.72,0.94-1.06,1.42a118,118,0,0,0-12.22,21.91c-2.13,4.94-4.28,9.91-4.84,15.33-0.5,4.84-.84,9.7-1.21,14.56a3,3,0,0,0,.41,1.11,4.13,4.13,0,0,0,.5-1.08c0.67-4.73,1-9.53,2-14.19A105,105,0,0,1,118,199.7Zm19.65,136.87,7.06,5.1,5-7.79-5.16-3.5Zm164.15-87.8c0.08,1.31.24,2.62,0.21,3.92-0.1,3.82-.28,7.64-0.44,11.46a90.81,90.81,0,0,1-2.65,18.75c-2.31,9-6.69,17.29-9.78,26-0.18.52-.45,1-0.68,1.53A93.88,93.88,0,0,0,303.31,246.54ZM125.65,321.6l5.73-6.38L127,310.3l-6.11,5.59Zm6.58-5.56L126,322.26l5.94,5.67,6.15-6.18-0.55-.76c-1.95,1.76-3.11,1.92-4.34.78s-1.18-2.5.32-4.3Zm19.94,16.18-5.44,7.54,5.76,3.49,4.05-8.43ZM205.91,338v11.86l4.21-.35V337.59Zm-42.54,7.57c2.26,0.91,4.27,1.74,6.31,2.5a1,1,0,0,0,1-.34c0.85-1.74,1.61-3.52,2.44-5.37l-6.41-2.49Zm133-184.06,0.68,0.11a5.45,5.45,0,0,0,.41-1.27c0.23-3.59.43-7.18,0.63-10.78,0-.3,0-0.6-0.06-1.06-2.56,1.38-4,3.59-5.47,5.75-0.91,1.3-.23,2.4-0.14,3.61,0.16,2.05.27,4.11,0.4,6.16l0.4,0.08a7.18,7.18,0,0,0,.32-1.46c0-2.91,0-5.83,0-8.74h0.57V163c1.22-.34,1.78-0.75,1.63-1.81a20.74,20.74,0,0,1-.16-2.45c0-1.28-.07-2.55,0-3.83s0.18-2.53.27-3.79l0.53,0v10.28ZM228.61,341.17L227.92,339,222,340.9l1.31,6.24,6.62-1.88-1.16-3.59-1.7.47L227,342Zm-51.45,9.43,2.46-6.21-5.5-1.7-2.74,6ZM242.66,311l-0.1.5,5.08,5.49,10.91-10.49-1.36-.88L256.79,307c0.38-2.4-1.67-2.89-2.88-4.16-0.73,2.39,2.25,2.7,2.22,4.75l-1.19-.72L254.29,310l-0.72-1.47L253,310.87l-1.53-2-0.53.22,0.45,2.55c-1.14-.86-0.68.84-1.38,1-0.1-1,.45-2.28-1.49-2.89l1,3.74-1-.75-0.27.85c-0.43,1.35-.65,1.42-1.69.44-0.89-.83-1.7-1.76-2.61-2.56A3.29,3.29,0,0,0,242.66,311Zm-93,9.93c-1.49-1.25-2.94-2.3-4.18-3.55-2.51-2.52-6.09-3.87-7.74-7.48L136,312l12.34,11.16Zm67.44,27.52-0.86-6.23-5.37.91,0.29,6.22ZM207,374.93c-3,1.64-6.23,1.38-9.74,1.34l1.85,1.68,0.4-.85,2.06,1.1-0.08.24h-1.21l2.35,3.4-0.52.46-1.8-2.79-0.69.61,3.84,5.26C203.13,381.35,205.8,378.43,207,374.93Zm-5.58-27.38,3.23,0.3,0.52-9.75h-3.8V343l1.44,0.44,0,0.26-1.37.29v3.53Zm-5.84-.06v6.57c1.47,0.08,3,.21,4.44.21a1.13,1.13,0,0,0,.82-0.74c0.08-1.75,0-3.5,0-5.64C198.84,349.5,197.46,347.8,195.61,347.48Zm78.14-84.16-1.92.38-3.09-.92,2.84-.24v-1.69l-3-.34-0.24,3.83c2.57,0,4.93,0,7.29,0a1.25,1.25,0,0,0,.93-0.76c0.14-3.9.21-7.81,0.25-11.72a1.11,1.11,0,0,0-.57-0.87c-1.28-.08-2.58,0-3.94,0,0.52,1.15,1.78,1.23,3.07.28,1.15,3.53.77,7.05,0.56,10.64l-1.13-1Zm-89.19,82.34-4.15-1-2.52,6.18,4.92,1.27Zm9.89,8.31c0-2.15,0-4.06,0-6a0.87,0.87,0,0,0-.51-0.65c-1.11-.2-2.23-0.32-3.42-0.48l-1.23,6.43Zm-62.13-38.16c1.14,0.57,2.07,1.1,3.05,1.5a2.94,2.94,0,0,1,2.13,1.87,13.21,13.21,0,0,0,1.08,2.18l2.67-2.41-5.86-6.37Zm-2-10.49,2.39-2.13-4.25-6.89-3.22,2.45Zm179.22-40.54c2.12,0.64,2.14.61,2.74-1.27a34.81,34.81,0,0,0,1.21-12.43,1.32,1.32,0,0,0-.48-1,1.5,1.5,0,0,0-2.26,1.54,2.84,2.84,0,0,0,.46,1l1-.78-1,11-0.37,0-0.11-1.64C309.54,262.12,309.82,263.48,309.51,264.78ZM127.39,310.27l4.37,4.57,2.85-3-4-4.8Zm90.58,38,4.56-1-1.31-6.25-4.19,1Zm-32.16-2.37-2,6.36,4.63,0.88,1.06-6.49ZM300.28,270.4l0.6-.09a14.44,14.44,0,0,0,.27-1.44c0.18-2,.43-4,0.46-6,0.12-6.15.6-12.32-1.43-18.31a31.14,31.14,0,0,1-.76-3.37,3.1,3.1,0,0,0,0,1.35c0.4,3.89,1.06,7.77,1.14,11.67,0.1,4.9-.27,9.82-0.42,14.73A9.28,9.28,0,0,0,300.28,270.4Zm-101,99.75h6.42c0-2.9,0-5.66,0-8.42a2.94,2.94,0,0,0-1-.72l0.35,1.12-1.24-.34-0.17.29,1.65,1.29-0.4,2.65-1.76-1.26-0.28.23,0.46,1.19-0.73,2.61c-0.93-.87.29-2.5-1.38-3.28v2.66L199.5,367Zm85.6-198.7c1.17-1.3,1.33-5,.23-6.74l-6.94,2.34ZM145.68,326.69l2.12-2.76L142,319.16l-2.55,2.73Zm53.4-106.18,0.56-.08c0.09,1.11.11,2.23,0.29,3.33a1.52,1.52,0,0,0,.78,1.1,19.35,19.35,0,0,0,2.92.05l-0.52-4.38,0.48-.06,0.51,4.15c1.82-1.51.58-3.24,0.62-4.91l-2.7.19v4.46a4.73,4.73,0,0,1-.48-2c-0.14-2.77-.13-2.78-2.92-2.52a5.26,5.26,0,0,0-.72.18c0.09,1.36.14,2.67,0.29,4a2.91,2.91,0,0,0,.59,1,2.94,2.94,0,0,0,.55-1.1C199.32,222.73,199.18,221.62,199.09,220.52ZM215.7,336.83c-1.59.21-3,.37-4.45,0.63a1.05,1.05,0,0,0-.61.81c0,1.49.17,3,.29,4.63l5.28-1.3ZM172.08,259c-0.88,9,9.38,22.81,17.42,23.79C177.3,273.8,173.89,269.21,172.08,259Zm39.16,95,6.65-.9-0.68-3.9-6,.75v4Zm-15.67-15.91v4.23l5.27,0.74v-5h-5.27Zm-28.63-2.54-7.79-4-1.45,2.94,8.1,3.48ZM221.8,340l5.86-2.05-1.08-3.86-5.73,1.65Zm21.39-18.58c8.89-3.08,28-25.6,28.29-33.42A80.23,80.23,0,0,1,243.19,321.42Zm16.33-8.79L254.38,318l2.4,2.25,5.13-5.15Zm10.82-.64,4.78-6-3-2-3.86,5.46ZM205,332.21l-0.21-.12,1.14-4.27c-1.8.89-1.57,2.26-1.82,3.47l-0.22-1.4L201,333l0.75-3.41c-1.83.61-1.76,1.91-2.05,3.07l-0.35-1.11-0.61.2,0.68-2c-1.61.77-2.31,1.88-1.84,3.45,2.79,0,5.52,0,8.25,0a1.19,1.19,0,0,0,.91-0.69,16.63,16.63,0,0,0,0-2.57Zm-54.11-16.53,5.88-6.51-0.85-.78-3.81,4.77-0.3-.24c0.63-2.42.63-2.42,0.22-3.05-1.41.51-.46,1.73-0.69,2.83l-0.55-1.49h-0.28l-0.2,1.22-0.91-.33-0.27-3.48-2.78,3.08Zm17.8,16.14-8-3.75-1,2.47,7.78,3.88Zm109.39,3.87-0.32-.13-1.13,2.2c-0.48-.2-1,0.21-1.61,1a23.07,23.07,0,0,1-2.32,2.25l-0.26-.29,1-1.4a5,5,0,0,1-1-1.54,11.54,11.54,0,0,1,.08-2.52l-0.74.31L272.3,334l-0.48-.23a4.08,4.08,0,0,0-.9,1.6,39.15,39.15,0,0,0,.41,4.48,1.67,1.67,0,0,0,2.56,1.38,32,32,0,0,0,8.75-6.9,6.36,6.36,0,0,0,.48-0.68l-0.21-.18-4.38,3.77Zm-115-74.53a45.41,45.41,0,0,1-20.46,2.64l0,0.55h8.51l0,0.34c-0.59.12-1.18,0.26-1.77,0.35s-1.24.14-1.87,0.2C153.4,266.27,158.41,264.32,163.11,261.15Zm90.7,57.16-4.91,4,2.32,2.6,4.91-4.12Zm-60.43-168,0.56,0.21a3.83,3.83,0,0,0,.5-1.3c0-1.4-.17-2.8-0.26-4.19l0.27,0,0.48,4.82,0.45,0.18A2.79,2.79,0,0,0,196,149c0-1.5-.1-3-0.14-4.5,0-.43.05-0.87,0.08-1.31l0.31,0,0.31,2.55c1.53-.72,1.53-1.87,1.28-3.15h-4.42v7.74ZM176.29,334.46l-6.81-2.36-1.15,2.68,6.81,2.59Zm57.61,0.91-1.62-3.42-5,1.93,1.33,3.74Zm-85.3-10.86-2,2.78,5.28,3.53,1.89-2.69Zm18.06,14.14,6.84,2.7,1.07-2.67-6.74-2.74ZM253.27,329l-6,4,1.45,2.5L255,331.2Zm-13.37,3.35c0.82-.46,1.46-0.82,2.08-1.18,2.95-1.72,2.95-1.72,1.41-4.78a0.79,0.79,0,0,0-.15-0.14l-5.22,3Zm10.6-6.84-2-2.87-4.59,3.18,1.44,3.32Zm-49.08,28.93,3.12-.17V348.2h-3.12v6.23Zm4.26-.12,5-.31-0.22-3.87h-4.76v4.17Zm57.51-38.89,2.08,2.14,4.5-4.94-2.11-2.38ZM223.69,352l-1-4-4.62,1,0.43,4Zm39-36.07-4.91,5.16,1.75,1.83,5.17-4.86Zm-7,14.75,5.57-4.45-1.78-2-5.5,4.24Zm-38.78,10.7c1.32-.38,2.46-0.67,3.57-1a0.85,0.85,0,0,0,.46-0.68c-0.2-1.23-.48-2.46-0.75-3.78l-4,.83Zm20.48-11.85-4.53,2.15,1.66,3.39,4.69-2.38Zm-78.06-69.24c-3.44.31-6.92,0.81-10.4,0.87s-7-.31-10.55-0.49C139.73,263,155.39,262.67,159.33,260.31Zm-22.24,48.95-3.83-5.39-2.2,2.36,4.22,4.79Zm140.67-.93-1.8-1.58-4.69,6,1.75,1.64ZM177,334.63l-1,3,5.24,1.56L182,336Zm79.76-12.93-4.91,4,1.61,2,5.45-4.23Zm-62.07,6.18c-2.43,1.41-1.37,3.42-1.66,5.26l3.71,0.22v-6c-2.35.91-1.51,3-2.05,4.71v-4.2Zm76.16-14.59-4.55,4.81,1.59,2,4.61-5ZM202.15,132.44l0.38,0a1.68,1.68,0,0,0,.11-0.59c-0.84-4.39.41-8.41,2.27-12.27a16.1,16.1,0,0,0,.91-11.32c-0.51-2-1.25-4-1.89-6l-0.57.14a2.46,2.46,0,0,0,.09,1c3.23,5.33,2.95,10.8.8,16.4a68.86,68.86,0,0,0-2.31,7.13A8,8,0,0,0,202.15,132.44Zm49,193.82L245.75,330l1.12,2.15,5.8-3.9ZM181.91,339.4l4.34,1.08,1.15-3.48-4.72-.91ZM94.59,364.07l0.25,0.26c0.51-.27,1-0.52,1.53-0.82,2.72-1.6,4.68-4,6.67-6.37a3.93,3.93,0,0,0,.7-3.9C100.82,357.11,98.61,361.35,94.59,364.07Zm86.24-23.35L175.49,339l-0.94,2.72,5.37,1.72Zm-31.69-17.14,5.21,3.65,1.48-2-5.43-3.72ZM204,390.48c2.36,5.66,2,11.26-.2,16.84C207.51,403,207.71,393.3,204,390.48Zm92-224.78-0.21-.37c-0.92.43-1.84,0.83-2.74,1.29-2.56,1.31-4.92,2.84-6.42,5.44-0.62,1.07-.57,1.9.31,2.52a4.7,4.7,0,0,1,.72-1.49c2.38-2.22,4.81-4.38,7.23-6.55C295.26,166.23,295.65,166,296,165.71ZM250.12,209c-0.39.82,1.45,3.23,3.24,4.39l3.33-3.82-0.28-.37-2.33,1.55-0.88-2.16-0.63,1.46-0.26-.27-0.49-2.31-0.44,0-0.6,2.46ZM154.54,328.63l-1.8,2.73,4.27,2.48,1.37-2.84Zm87.5,7.21,1.55,2.58,4.39-2.6-1.45-2.49ZM240.71,217a1,1,0,0,0-.35.12,58.26,58.26,0,0,1-13.23,9.3,2.14,2.14,0,0,0-.52.85l0.34,0.25C232.17,224.86,237.11,221.83,240.71,217Zm64.53,47.76h4.14c0-1,0-1.92,0-2.87a2.24,2.24,0,0,0-.48-0.81,2.31,2.31,0,0,0-.74.74,25.31,25.31,0,0,0-.45,2.5h-0.31v-3.22l-2.06-.24c-0.08,1.2-.15,2.28-0.21,3.37A2.61,2.61,0,0,0,305.23,264.76Zm-15.15-99c1.86-.82,1.87-0.82,1.86-2.26q0-2.87-.09-5.74c0-.44-0.11-0.88-0.2-1.59C289.2,159.24,290.77,162.52,290.08,165.74ZM124.95,251.18l-0.49-.33c-0.46.56-1.31,1.12-1.32,1.69-0.08,3.36,0,6.72.1,10.08a1.48,1.48,0,0,0,.39.58,1.69,1.69,0,0,0,.43-0.66c0-1.27,0-2.55-.08-3.82a2.71,2.71,0,0,0-.53-0.92l1.62-2.51-1.61.66,1.46-2.63-0.32-.2-1.35.94Zm44.93,98.21-6.81-3-0.9,1.7,7,2.75Zm10.8-5.74,4.19,1.08,0.86-2.78-4.2-1.06Zm61-8.51,4.51-2.62-1.12-2.11-4.62,2.79Zm-46.92,2.67-2.78-.2-0.6,3.94,3.12,0.51Zm-7.54,2.85,3.32,0.69,0.75-3.86-3.15-.42Zm31,14.08,0-.41a0.77,0.77,0,0,0-.32-0.19c-3.94.34-7.88,0.68-11.82,1.08a2.15,2.15,0,0,0-.76.8A54.28,54.28,0,0,0,218.21,354.76Zm22.65-19.18-1.17-2L235,336l1,2.07ZM100,266.25h0.47a5,5,0,0,0,.16-0.92c0-4-.06-8.1-0.13-12.15a2.38,2.38,0,0,0-.49-0.89,2.31,2.31,0,0,0-.42.85c0,3-.05,6,0,9C99.59,263.52,99.82,264.88,100,266.25Zm24,16.63,0.37-.08c-0.12-.46-0.23-0.91-0.35-1.37-0.62-2.32-1.25-4.65-1.86-7a6.31,6.31,0,0,1-.11-0.8c1.17-.12.46-1,0.31-1.21-1.38-2.19-1.62-4.68-2-7.14-0.08-.51-0.19-1-0.28-1.53l-0.38.08A82.28,82.28,0,0,0,123.91,282.88Zm164-115.44,0.54,0.36c0.47-.59,1.3-1.14,1.35-1.76,0.17-2.07.06-4.17,0.06-6.54C287.45,162,288.33,164.85,287.92,167.44ZM234.3,336.31l-5.47,2.32,0.88,2.43a6,6,0,0,1,1-1.43,5.06,5.06,0,0,1,1.83-.79,23.54,23.54,0,0,1,2.83-.21ZM190.62,346l3.76,0.66V343.4l-3.24-.41Zm40.88-96.43c0.37,1.26,1.27.53,1.88,0.61s1.49,0.1,2.58.16c-1.47,1.07-1.34,2.06.16,2.75-1.09-.11-1.39.38-1.11,1.12a3.69,3.69,0,0,0,.91,1l0.45-.26v-4.36h0.23l0.3,1.34h0.3l0.33-2.36h-6Zm11.56-31.4c-1.48-.89-1.47-0.87-2.47.31a25.54,25.54,0,0,1-5.36,5.36,6.52,6.52,0,0,0-.76.67l0.21,0.27A29.59,29.59,0,0,0,243.06,218.18ZM155.13,327.73l3.75,2.27,1.25-2.32-3.61-2.09Zm40.25,28.65c2.76,0,5.48,0,8.2,0a2.61,2.61,0,0,0,1-.55,2.62,2.62,0,0,0-1-.58c-2.45-.12-4.9-0.13-7.35-0.25C195.29,354.93,195.14,355.34,195.38,356.39Zm-8.59-14.18-0.72,2.86,3.61,0.7,0.51-2.84a4.6,4.6,0,0,0-.71-0.27C188.64,342.5,187.79,342.37,186.79,342.21Zm34.4-64.58c1.41-.14,3.2-1.75,3.21-2.84l2.2,1.84,1.12-1-2.51-3.18Zm-38.75,56,0.24-.67-14.16-5A59.82,59.82,0,0,0,182.44,333.66Zm80.36-27.18,0.1,0.13a19.48,19.48,0,0,0,2.73-3c1.77-3,3.36-6.12,5-9.21,0.39-.73.68-1.51,1.17-2.6ZM212,359.66a134.47,134.47,0,0,1-25.12-.56A84.26,84.26,0,0,0,212,359.66Zm-42-8.5,6,1.86,0.61-1.39-5.78-1.91Zm6.64-122.44,3.35,3.12,1.22-1L178.36,227c-0.21.18-.46,0.36-0.68,0.58S177.07,228.26,176.65,228.72Zm23,55.9c5.43,0.93,10.26-.91,14.93-3.42A44.53,44.53,0,0,1,199.63,284.62Zm26.91-60.89,8.34-10.24a3.89,3.89,0,0,0-1.12.36c-3.39,2.51-5,6.4-7.26,9.72A0.2,0.2,0,0,0,226.54,223.73Zm70.09-59.43a21.09,21.09,0,0,0,5.93-4.5,2.36,2.36,0,0,0,.24-1l-0.28-.12-5.13,4.07C296.68,162.42,296.45,162.67,296.63,164.3ZM288,162.57l-0.37-.2c-0.57.74-1.57,1.44-1.63,2.21a28.62,28.62,0,0,0,.44,5C288.4,167.54,287.27,164.85,288,162.57ZM147.73,209.86l-4.34-3c0.51,2.37,2.64,2.85,3.45,4l2.79-2.13-2.41-1.33Zm150.15,72.27c1.81-3.22,2.29-6.73,2.73-10.25a1.94,1.94,0,0,0-.29-0.77,2.37,2.37,0,0,0-.53.74c-0.19.89-.27,1.8-0.44,2.69C298.86,277.07,298.36,279.59,297.87,282.13Zm-115.33,71c-1.46-.36-2.8-0.61-4.09-1-1.06-.35-1.54-0.06-1.69,1.14l5.54,1.3ZM278.59,321l-0.41-.32-12.05,13.73,0.32,0.29ZM173.41,232l3.55,3.07,1.12-1L175,230.5Zm21.23,124.24c0.06-1.25.07-1.26-.82-1.38-1.26-.17-2.52-0.29-3.77-0.48-1-.15-1.33.21-1.15,1.29ZM153.32,205l0.56,0.18c1-1.22,2.11-2.42,3.13-3.66a1.5,1.5,0,0,0,0-.77,2.54,2.54,0,0,0-.64.21,6,6,0,0,0-.68.61l-1.19-.63v2.35l-1.39-.72Zm47.45-20.28-3,2.45-0.69-1.37c-0.69,1.42-.52,1.87.64,1.94s2.26,0,3.47,0ZM130.26,294h0.41a1.76,1.76,0,0,0,.34-0.86c-1.13-2.41-2.32-4.78-3.44-7.05a9.43,9.43,0,0,0,.21,2.82C128.47,290.64,129.42,292.3,130.26,294Zm-27.8-13.21,0.34-.07-2.29-14-0.66.12Zm71.82-8.09c0.26,1.66-1.14,3.25,1.17,4l-0.65-2.2,0.84,0.28,0.36-.3-1.7-2.66a3.08,3.08,0,0,0-1.75,3,2,2,0,0,0,.77.59Zm80.37-10.3c5.06,0.49,11.42-.22,12.72-1.53Zm-71.6,92.28,5.07,0.88,0.19-1.37c-1.34-.24-2.6-0.39-3.82-0.71C183.52,353.21,183.13,353.51,183.07,354.67Zm101.46-22.38-3.26-2.89a14.74,14.74,0,0,1,.21,2.34,14.41,14.41,0,0,1-.49,2.18l0.4,0.1,1.84-1.57,0.3,0.94ZM196.11,219.81c0.11,1.54.17,3,.33,4.41a2.16,2.16,0,0,0,.62.79,2.26,2.26,0,0,0,.55-0.86c0.06-1.39,0-2.78,0-4.28Zm-52.86,84.61c0.39-.87.54-1.8,0.87-1.87,2.1-.44,1.05-1.69.93-2.79C142.27,301.25,142.08,301.67,143.25,304.42ZM93.56,155.24l-3.7-8.38C89.36,148.25,91.2,153.23,93.56,155.24ZM199.26,286.89l0-.49a23.88,23.88,0,0,0-2.86-.31,1.57,1.57,0,0,0-1.24.63,9.73,9.73,0,0,0-.42,2.23l0.39,0.17C196.34,288.09,197.19,286.37,199.26,286.89Zm-19.85-54.44-3.31-3.15-0.86.93,3.2,3.11Zm19.68,92.4c-1.7,1.35-2,2.67-1.36,4.9C199.84,328.64,199,326.72,199.09,324.84Zm19.44,29.32,0.17,0.66,11.67-3.1-0.09-.34Zm9.39-24.74L216.1,333C220.2,332.36,224.31,331.76,227.92,329.43Zm-70.57-6.35,0.31-.34-5.55-5.05C152,319,156.09,322.85,157.36,323.08Zm47-205.45-0.38-.17c-2.19,2.35-2,5.64-3.45,8.28l0.56,0.23Zm73.13,227.84c2.48-.26,5-1.11,7.47.33a17.78,17.78,0,0,0-2.59-2.08,1.18,1.18,0,0,0-1-.07C280.08,344.22,278.79,344.85,277.48,345.47ZM247,206l-0.78-2.44L245,204.63l3.1,3.31,0.48-.14-0.26-2.91-0.48-.09ZM323,260c1.78,0,3.34-.07,4.9,0,1,0.06,1.37-.33,1.42-1.65l-2.46,1.15v-1.16l-2.64,1.24-0.3-.78Zm-94.71-27c-0.82,1.47-2.46,2.28-2.07,4.31l3.48-3Zm78.31,17.38c0,1,0,1.81,0,2.63s0.38,1.32,1.37,1l0.46-3.62h-1.83ZM151.67,347.15l-10.19-6.51-0.24.38A62.63,62.63,0,0,0,151.67,347.15Zm126.1-69.62,0.4,0.09a56,56,0,0,0,2.44-12.23ZM149.61,207.24L149,204.61c-0.89,1.65-.72,3,1,3.77l1.63-1.56L150,205.68Zm-62.88,54.5-0.34,0-0.48-5.1h-0.1v5.95h2.83l-1.42-2.36-0.31.18Zm138.82-26.39,2.54-2.69L227,231.58l-2.71,3ZM151,318.07l0.44-.46-8.36-7.7-0.27.28Zm21.31-84.93c2.89,3,2.9,3,4.14,2.18l-3.29-3.11Zm33.9,96.15,0.49,0v-5.19c-2.11-.29-2.4-0.15-2.16,1l1.27-.62ZM198.1,134.92c1.2-1,1.2-1,.3-2.7l-2.57,4.06,0.51,0.45a4.08,4.08,0,0,0,1.15-1,6.35,6.35,0,0,0,.37-1.74l0.24,0v0.89Zm54.13,210.76,0.21,0.26c2.66-1.78,5.62-3.13,7.64-5.81Zm-47.79-59.3-0.22,3.25,0.58,0,0.28-3.5c-2.92,0-3.18.25-2.58,2.45ZM197,366.64L196.84,370l1.71,0.18C198.6,368.75,198.84,367.46,197,366.64ZM286.08,310l-0.36-.24-5.26,7.6,0.47,0.32Zm-180,40.31c-1.57,1.47-1.88,2.6-1.2,4.14A3.77,3.77,0,0,0,106.06,350.35Zm85.5,24.09,1.84,2.7-0.27-1.59,0.28-.13,2.33,4C195.32,376.34,194.42,375,191.56,374.45Zm103.62-15.79c2,3,3.73,5.64,6.81,7Zm-188-7.18c0.92-1.22,2.37-2,1.52-3.79A2.85,2.85,0,0,0,107.12,351.48ZM195.74,225c0.33-3.4,0-5.05-.86-5.2C194.75,223.35,194.94,224.65,195.74,225Zm26.52,54.53-1.1,1.26,2.28,1.58,1.08-1.14Zm-88,21.38,0.4-.21c-0.5-.85-1-1.69-1.48-2.56a19.3,19.3,0,0,1-.93-2.08c-0.2-.51-0.25-1.07-0.48-1.57a1.49,1.49,0,0,0-.71-0.31,1.63,1.63,0,0,0-.11.8C132.06,297,133.18,299,134.3,300.95Zm52.19-22.26-0.45.44-6-6.31,0.32-.31A17.91,17.91,0,0,0,186.48,278.69Zm8.81,132.16,0.29-.23-4.34-6.19A12.79,12.79,0,0,0,195.29,410.85Zm4.35-11,0.51,6.69C200.94,405.11,200.66,401,199.64,399.83Zm29.21-121.5-0.24,1.23,1.57-1.23L228,276,226.64,277Zm-99-18.93c-1,.73-1.61,2.41-1.06,3.2a2,2,0,0,0,1.06.37V259.4Zm23.78,47-2.28-2.58-0.29.22,1.13,1.8v2.08l0.35,0Zm48,78.25-0.29.16a2.47,2.47,0,0,0,.2,1.22c0.92,0.89,1.94,1.67,2.78,2.38C204.43,386.67,202.53,386,201.64,384.65ZM173.46,278.31c-0.53,1.49.21,2.57,2.82,4.54C176,280.77,174.17,280.09,173.46,278.31Zm-47.2,60.18,1-1.46-1.53-.72-1.42-2C123.89,336.27,125.68,336.85,126.26,338.49Zm-17.33-40.36-0.37.18,4.18,8.16,0.43-.22Zm142.62,5.19c-0.35,1.42-.37,2.61,1.11,3.28C253.44,305.18,252.84,304.21,251.55,303.32Zm-134.21,34c-0.12-2.32-.9-3.09-3.19-2.78ZM277.28,278l-1.6,6.35C276.88,282.7,278,279,277.28,278Zm-81.8,97.92,3.49,4.17C199.22,378.39,197.09,376,195.47,375.89Zm-72-127.84-0.27,3.12,0.5,0.14,1.58-3.09Zm75.84-121.43c-1.92,1.06-2.26,1.84-1.7,3.87Zm-82,200-1.93,2,0.35,0.33,0.51-.45,0.69,2.07,0.38-.11V326.6Zm86.49-2.79c-0.69,1.4-2.3,1.95-1.6,3.75C203.15,326.59,204.53,326,203.77,323.81Zm66.66,11.56-0.53-.5a2.62,2.62,0,0,0-.44,1.19c0.27,1.12,0,2.49,1.4,3.56ZM143.86,307c1.54-1.09.58-2.28,0.38-3.45C142.93,304.32,142.9,304.63,143.86,307Zm-15.73-45.21-1.38.09-0.27-1.39-0.46,0L125.6,263h2.54v-1.13Zm189.6-12.37c-2.07,1.88-.08,3.3-0.45,4.79h0.45v-4.79ZM204.32,327.38l-0.46-.24c-1.83,1.34-2,1.78-1.26,3.44Zm-15.94,7.24-5.29-1.46C183.7,334.33,187.1,335.28,188.38,334.61ZM140.9,303.07l-1.43,1,2.24,2.65,0.25-.14ZM308.52,255c0,0.89,0,1.57,0,2.24a2.3,2.3,0,0,0,.48.79,2.42,2.42,0,0,0,.61-0.81,16.78,16.78,0,0,0,.15-2.1Zm-113.57-67-0.69-3.9a4.28,4.28,0,0,0-.45,3.78A2.69,2.69,0,0,0,194.95,187.91Zm6.66,99.44c-1.38.79-1,1.88-.87,2.84a3.12,3.12,0,0,0,1.3.55Zm105.11-32.52a3.84,3.84,0,0,0-.06.91c0.11,0.68.29,1.35,0.44,2,0.24-.68.52-1.36,0.7-2.06C308,254.79,307.55,254.61,306.72,254.84ZM195,394l0.45,0v-4.68C194.93,390.88,194.28,392.43,195,394ZM196.7,149.2a2.82,2.82,0,0,0,1.09-3.44C196.11,146.52,196.61,147.8,196.7,149.2Zm-1,197.69,0.39-.09,0.81-3.12-1.38-.12Zm72.93-86.71c0.85,0,1.66-.07,2.46-0.15a1.76,1.76,0,0,0,.61-0.38,1.48,1.48,0,0,0-.52-0.48c-0.82-.14-1.65-0.22-2.56-0.32v1.34Zm-5.87,64.6-1.52-2.07-1,.86C261.58,325.53,261.84,325.65,262.78,324.78ZM153.32,205.51L151.61,204c-0.65,1.71-.64,1.77.41,2.51l0.72-.57ZM279,336.27c1.87-1.43,1.87-1.44,1.11-2.73C278.66,334.57,278.66,334.58,279,336.27ZM277.42,330a1.91,1.91,0,0,0-.95,2.85C278,332.28,277.72,331.19,277.42,330ZM342,260c-1.47-.75-2,0.44-2.87,1.23C340.52,261.62,341.52,261.44,342,260ZM199.69,290.08v-3.17C198.43,288,198.45,289.57,199.69,290.08Zm4.57-104.41-0.36-.13-2.22,2.08h3.25l-1.09-.36Zm0.5-48.51-3.22-2.86a6.41,6.41,0,0,0,.13,1.39C202.15,137.06,203.43,136.83,204.76,137.17ZM91,250.2l0.31-2.33-1.54-.14C89,249.22,90.23,249.47,91,250.2Zm143.11,8.51,0.29-.29a10.64,10.64,0,0,0,0-2,2,2,0,0,0-.92-0.55,11.89,11.89,0,0,0-.16,2.13A2.1,2.1,0,0,0,234.08,258.71Zm56.76,91.62c1.14,1.22,1.34,3.38,3.32,3.71l0.33-.33Zm-145.27-48c-1.25.59-1.3,1.13-.27,3.06C146.13,304.57,146.13,304.57,145.56,302.33Zm165.93-47.58a3,3,0,0,0-1,.75,9.54,9.54,0,0,0-.17,2,1.63,1.63,0,0,0,.36.64,1.78,1.78,0,0,0,.54-0.62C311.34,256.79,311.38,256,311.49,254.75ZM136.44,335.36l0.28-.31-5.32-5-0.36.4Zm59,35.76-2.94,2.14,0.56,0.56C195.58,373,195.58,373,195.42,371.11ZM277.3,176.35c1.36-.88.27-2,0.57-3C276.27,174.12,276.27,174.13,277.3,176.35ZM193.94,368.11c-0.14-1.25.37-2.52-1.28-3.2C193,366.07,192.1,367.43,193.94,368.11Zm9.62,4.26c0.32,2.39.81,2.72,2.66,1.76ZM145,306.83c-1.49.78-1,1.79-.63,2.86C145.74,308.94,145.51,308,145,306.83Zm187.1-47.89c-1.71-.34-1.71-0.34-2.59,1A1.63,1.63,0,0,0,332.09,258.93Zm-210,71.27c0.63-1.66.49-2.06-1-2.79C121.12,328.47,120.65,329.65,122.07,330.21ZM248,200.34c1.32-.76.73-1.73,0.69-2.77C247.45,198.37,247.14,199.19,248,200.34ZM202.52,390.23c-0.07-1.21.43-2.54-1.19-3.09C200.85,388.45,201.37,389.39,202.52,390.23Zm-54.72-86.5c-1.28,1.14-1.29,1.28-.48,2.94C148.69,305.91,148.09,304.84,147.8,303.72Zm99.81,10.33c-0.28-1.17.74-2.29-.61-3.19C246.86,312,245.66,313.09,247.61,314.05Zm87.07-54.84c-1.38-.75-1.79.33-2.37,1.17C334,260.89,333.75,260.93,334.68,259.22ZM124.28,330.87l-0.44.18,1.18,2.68C125.79,332.24,125.72,332.05,124.28,330.87Zm2.05-150.16,0.39-.09c0.46-1.75.23-2.49-1.24-3.23Zm116.61,22.05,1.53,1.37c0.94-1,.3-1.69,0-2.56Zm-7.5,55.86,0.73-2.92C234.92,255.86,234.72,256.54,235.45,258.61ZM305.32,254l0.48,0c0.07-1.06.16-2.11,0.17-3.17a0.83,0.83,0,0,0-.49-0.49,0.62,0.62,0,0,0-.43.35C305.1,251.72,305.22,252.84,305.32,254Zm-109.47,116,0.43-.18c0.23-1.15.1-2.14-1.57-2.42Zm-47-165.71,0.55-.07c-0.11-1,.65-2.15-0.55-3.2v3.27ZM90.17,259.66l0.51-.25L89,256.77C88.43,258.51,89.37,259,90.17,259.66Zm180-1.38c1.27,0.4,1.71.07,1.62-.75a2.28,2.28,0,0,0-.69-0.84ZM198.82,361.5l3.14,1.78C201.3,362.21,200.83,360.83,198.82,361.5ZM145,310.25l1.2,1.05,1.07-2.59-0.37-.15ZM115.2,328.73c-1.15.91-.94,1.79,0.64,3.26Zm125.85-141a7.83,7.83,0,0,0-3.87-2.15l-0.2.48Zm8.7,121.92,0.46-.1c0.51-1.06.47-1.93-1.27-2.56Zm-132.83,35,4.11,1.09,0.08-.4C119.72,345.22,118.65,343.49,116.91,344.65Zm170.83-9.43-0.44-.35c-1,1.34-1.56,3-2.61,4.26l0.33,0.22Zm-83.52-7.65,0.71,0.27,0.87-2.32-0.68-.26ZM249.4,197.62l0.84,3.68C251,199.65,250.72,198.43,249.4,197.62ZM98.6,155.95l-0.32.12c0.24,2.2.44,2.61,1.81,3.23ZM202.07,334.53v0.25l6.72-.3,0-.37Zm21.67-54.72,1.38,1.18,0.89-1.06-1.18-1.12Zm-133-27.7c0.59-1.55-.65-1.72-1.29-2.38C88.79,251.16,89.93,251.44,90.75,252.12Zm104.17,73.64-0.52-.26c-0.57.76-1.95,1.08-1.25,2.82ZM113.91,177l0.32,0.53a19,19,0,0,0,1.78-1.21,2.42,2.42,0,0,0-.09-1.05Zm37.48,129.57c-1.26,1.09-.46,1.92-0.41,2.86C152.4,308.58,151.5,307.7,151.39,306.54Zm74-28.2c0.8,1.17,1.49,1.06,2.27.06l-1.3-1.07Zm-76.26,23.81c-1.37,1.13-.52,2-0.27,3C150,304.2,149.1,303.3,149.09,302.15Zm96.75,10.38c0.15-1.21.84-2.17-.08-3.15C246,310.35,244.51,311.31,245.84,312.53ZM203,372.42c-0.42-1.85-1.56-1.34-2.66-1Zm43.51-170.63,0.48,0,0.15-2.58C245.76,200.12,245.76,200.12,246.51,201.79ZM196.24,363.42c0.19-2.13,0-2.29-1.94-2.11ZM342.4,261c1.73,0.54,1.77.52,2.07-1.29ZM194.74,327.65l0.38,0.27c1.62-1.26,1.85-1.65,1.55-3Zm33.38,26-0.11-.44-5.59,1.5,0.07,0.28Zm-34.77-66,0.3,0.1,1.3-2-1.74-.28Zm9.12,3.07c1.51-.23,1.64-0.7.57-2.25Zm-50,56.7-0.13.33,5,2.48,0.12-.26Zm-43.13.61,0.54,0.24c0.56-.65,1.76-1,0.6-2.47ZM275.17,175.35c-0.3.22-.44,0.33-0.59,0.42-0.77.47-.41,1.09-0.2,1.66a1.12,1.12,0,0,0,.51.27,12.19,12.19,0,0,0,.45-1.41A3.07,3.07,0,0,0,275.17,175.35ZM195.48,395.92l-0.41,0-0.3,3.23,0.56,0ZM90.22,254.24c0.81-1.49-.25-1.78-1-2.29l-0.4.27Zm143-1.41a2.36,2.36,0,0,0,1.09-.38,1.62,1.62,0,0,0,0-1.28,2.51,2.51,0,0,0-1.22-.32Zm103.81,6.63c-1.43-.56-1.64.66-2.34,1.19C336.13,261.48,336.39,260.25,337.05,259.46Zm-72.18,60,1.76,1.61L267,321a2.05,2.05,0,0,0-.36-1C266.13,319.68,265.83,318.3,264.87,319.49ZM85.09,253.27l0.41-.33L83.85,251C83.56,252.33,84,253,85.09,253.27ZM294,165l0.37,0.3c1.62-.52,1.62-0.52,1.17-1.92Zm-88.36,54.72,0.14,1.53c1.4,0.19,1.17-.75,1.24-1.62Zm42.25,88-0.66.11c0.27,0.81-.58,1.85,1,2.71Zm-99.2-109.54,0.52,2.51C150,199,150,198.84,148.67,198.24ZM89,259.09c-0.6,1.85.5,2.21,1.37,2.73l0.39-.27Zm62.78-57.93c0,1-.74,2.09.84,2.64C152.56,202.8,153.16,201.72,151.75,201.16ZM88.24,260l-0.89-2.53-0.44.16C86.88,258.55,86.39,259.62,88.24,260Zm181.11-1.54,0.71-.44-0.71-1.45a1.9,1.9,0,0,0-.62.8A3.27,3.27,0,0,0,269.35,258.49ZM247.1,205.12c1.16-1.09.57-1.94,0.33-3C246.18,203.1,247.12,204,247.1,205.12ZM147.52,203l0.36,0,0.32-3.63C146.9,200.51,147.84,201.82,147.52,203ZM120.59,333l0.59,2.83,0.37-.08C121.88,334,121.88,334,120.59,333ZM130,248.6c-1.52-.39-2,0.19-1.71,1.52Zm-10.14,82.84c-0.79,1.76-.79,1.77.45,2.45ZM197,132.72l0.32,0.16c1.4-1.5,1.4-1.5.85-3ZM234.63,253.5l-0.72-.51a3.23,3.23,0,0,0-.67,1,2,2,0,0,0,.5.89Zm-88.9,54.64c1.35-1,.66-1.77.52-2.54h-0.52v2.55Zm163.65-47.72c-0.06-.81.57-1.76-0.91-1.74C308.45,259.41,307.72,260.35,309.39,260.42ZM192.35,361l-0.17.34,1.69,1.51v-1.75Zm81.91-27.51c-1.73.8-1,1.83-.93,2.74l0.46,0.08Zm-0.6-70.84L273,260.83a2.3,2.3,0,0,0-.57.74C272.31,262.24,272.31,262.91,273.66,262.63Zm-18.45-54,0.59,0.06v-2.37l-0.47,0Zm-22.63,52.23,2-1.27-0.15-.32-1.69-.1Zm-31.12,64.86-0.24-.25-1.6.38,0.22,1.85ZM146.25,205.41h0.24v-2.64h-0.24v2.64ZM120.85,344.47l0.34-.4a14.82,14.82,0,0,0-1.43-1.08,2,2,0,0,0-.86-0.06,3.13,3.13,0,0,0,.56.75A13.42,13.42,0,0,0,120.85,344.47Zm7-18.38-0.37.33,3,3.22,0.34-.33Zm63.85,37.33-0.68.11,0.47,2.46,0.55-.11ZM93.81,250L95,252C95.54,250.65,95.51,250,93.81,250Zm34.33,1.69,0.35,0.26c1.67-1.19,1.67-1.19,1.13-2.17Zm72-119.65,0.61,0.07v-2.39l-0.47,0Zm36.5,196.72-0.18-.35L232.76,330l0.22,0.48ZM280,331.55l-0.43-.19c-0.74.5-1.45,1-.6,2.42Zm-84.84,54.37c0.37-1.28,1.05-2.57,0-4.24v4.24Zm60.25-182.79-0.39,0v2.64C256.22,204.82,255.32,203.92,255.42,203.13ZM311.74,253l-0.32-.31a2.09,2.09,0,0,0-.82.76,2.76,2.76,0,0,0,.52,1.13l0.42-.17Zm-36.34,3.67c-1.46-.25-1.32.46-1.13,1.09a2.74,2.74,0,0,0,.63.78ZM250,304.83l-0.65.25,0.86,2,0.63-.27ZM199.64,134.71l-0.42,0-1.05,1.5,0.29,0.34a3.88,3.88,0,0,0,1.3-.66A2.18,2.18,0,0,0,199.64,134.71ZM113.56,345.16l-0.39-.39c-0.68.35-1.79,0.33-1.45,1.95Zm86.12-15.74,0.41,0.21c1.4-1.07,1.4-1.07.86-2.59Z" transform="translate(-42.52 -99.3)"/><path class="cls-1" d="M253.45,167.15l-1,.53a0.37,0.37,0,0,1-.18-0.13l-6.9-3.5c-0.4-.21-0.78-0.46-1.17-0.7l0.23-.44,7.33,3.2Z" transform="translate(-42.52 -99.3)"/><path class="cls-1" d="M256.49,202.32c-0.65-.85-1.29-1.72-2-2.56a3.32,3.32,0,0,1-.82-1.32,17.54,17.54,0,0,1,4.55,4l-0.23.35-1.59-.48Z" transform="translate(-42.52 -99.3)"/><path class="cls-1" d="M267.44,216.64L267.2,216a8.45,8.45,0,0,1,3.28,5.64,0.73,0.73,0,0,1-.27.25Z" transform="translate(-42.52 -99.3)"/><path class="cls-1" d="M215.7,236a5.44,5.44,0,0,0-1-1.25c-2.07-1.47-4.18-2.89-6.25-4.44,1.35,0.73,2.77,1.36,4,2.22a28.56,28.56,0,0,1,3.21,2.75,1.53,1.53,0,0,1,.1.78Z" transform="translate(-42.52 -99.3)"/><path class="cls-1" d="M139.41,191a2.8,2.8,0,0,1-3,2.82,3,3,0,0,1-2.75-3.51,3.11,3.11,0,0,1,3.33-2.55C137.77,187.85,139.41,190.07,139.41,191Z" transform="translate(-42.52 -99.3)"/><path class="cls-1" d="M167.43,174.74a3,3,0,0,1-2.75-3,2.81,2.81,0,0,1,5.62.29A2.94,2.94,0,0,1,167.43,174.74Z" transform="translate(-42.52 -99.3)"/><path class="cls-1" d="M119.22,220.46a2.43,2.43,0,0,1-2.39,2.6,2.72,2.72,0,0,1-.16-5.43A3.1,3.1,0,0,1,119.22,220.46Z" transform="translate(-42.52 -99.3)"/><path class="cls-1" d="M282.22,220.55a2.84,2.84,0,0,1,2.84-2.72,3.3,3.3,0,0,1,2.68,2.92,2.82,2.82,0,0,1-2.77,2.78A2.92,2.92,0,0,1,282.22,220.55Zm4-1c-1.16-.52-3-0.36-3.08.3a7.4,7.4,0,0,0,.22,2.15l0.4-.06c0.23-1.93.43-2.2,1.75-2.31l-0.26,1.1,0.27,0.11Z" transform="translate(-42.52 -99.3)"/><path class="cls-1" d="M201.3,167c-0.61-.69-1.46-1.24-1.55-1.88s-0.27-1.91,1.06-2.13a2.4,2.4,0,0,1,2.55,1.6,2.63,2.63,0,0,1-1.71,3.14,2.83,2.83,0,0,1-3.49-1.81,2.54,2.54,0,0,1,1.55-3.32c-0.4,1.32-1.64,2.63-.12,3.83A5.19,5.19,0,0,0,201.3,167Z" transform="translate(-42.52 -99.3)"/><path class="cls-1" d="M236.63,172.82a2.36,2.36,0,0,1-2.35,2.33,2.42,2.42,0,0,1-2.42-2.55,2.38,2.38,0,0,1,2.28-2.41A3.08,3.08,0,0,1,236.63,172.82Z" transform="translate(-42.52 -99.3)"/><path class="cls-1" d="M262.24,192.06A2.42,2.42,0,0,1,264,189.8c0.93-.31,3,1.3,3.2,2.35a2.44,2.44,0,0,1-2.08,2.72A2.58,2.58,0,0,1,262.24,192.06Zm2.22,2.08c0.52-1.83,0-2.43-1.76-2.1Z" transform="translate(-42.52 -99.3)"/><path class="cls-1" d="M173.37,158.55l15.31-4.37,0.17,0.6-15.28,4.48Z" transform="translate(-42.52 -99.3)"/><path class="cls-1" d="M199.26,154.79l12.28-.43,0,0.64a68,68,0,0,1-12.25.29Z" transform="translate(-42.52 -99.3)"/><path class="cls-1" d="M274.08,188.38l-6.81-6.64,0.4-.42c2.47,2,5.07,3.89,6.89,6.59Z" transform="translate(-42.52 -99.3)"/><path class="cls-1" d="M277.18,221.75a21.85,21.85,0,0,1,9.28-8.3Z" transform="translate(-42.52 -99.3)"/><path class="cls-1" d="M146,170.67L141.26,174l-0.3-.4,4.6-3.6Z" transform="translate(-42.52 -99.3)"/><path class="cls-1" d="M252.23,167.55a0.37,0.37,0,0,0,.18.13c1.19,1,2.62,1.75,3.21,3.33a8.24,8.24,0,0,1-3.69-3.11A1.73,1.73,0,0,1,252.23,167.55Z" transform="translate(-42.52 -99.3)"/><path class="cls-1" d="M240.54,161.64L236,160.51l0.14-.56a10.27,10.27,0,0,1,4.52,1.13Z" transform="translate(-42.52 -99.3)"/><path class="cls-1" d="M132.37,181.16a12.31,12.31,0,0,1,2.88-3.12l0.31,0.31Z" transform="translate(-42.52 -99.3)"/><path class="cls-1" d="M232.25,159.31L228,157.77l0.17-.48,4.26,1.55Z" transform="translate(-42.52 -99.3)"/><path class="cls-1" d="M263.71,177.75l-2.31-2.2,0.18-.17,2.34,2.17Z" transform="translate(-42.52 -99.3)"/><path class="cls-1" d="M193.71,247c-0.44.68-.7,1.09-1,1.49a15.93,15.93,0,0,0-3,7c-0.67,5.44,2.6,9.93,8.13,11.25a10.33,10.33,0,0,0,12.57-6.93,10.53,10.53,0,0,0-5.76-13.31,14,14,0,0,0-8.59-.38l-1.49.31c2.8-2.71,8.51-2.48,12.44.11,4.7,3.09,6.38,8.78,4.23,14.37a11.43,11.43,0,0,1-12.72,7.22c-5.88-1-9.89-5.2-10.15-10.68C188.18,252.29,190.27,247.89,193.71,247Z" transform="translate(-42.52 -99.3)"/><path class="cls-1" d="M201.43,237.55a2.29,2.29,0,0,1-2.21,2.32,2.37,2.37,0,0,1-2.29-2.27,2.15,2.15,0,0,1,2.28-2.33A2.21,2.21,0,0,1,201.43,237.55Z" transform="translate(-42.52 -99.3)"/><path class="cls-1" d="M202.15,275.41a2.13,2.13,0,0,1-2.2,2.24,2.17,2.17,0,0,1-2.24-2.23A2.26,2.26,0,0,1,200,273.1,2.11,2.11,0,0,1,202.15,275.41Z" transform="translate(-42.52 -99.3)"/><path class="cls-1" d="M185.39,242c0-1.18,1.05-2,2.59-1.94a2,2,0,0,1,2,2.1,2.15,2.15,0,0,1-2.24,2.21A2.34,2.34,0,0,1,185.39,242Z" transform="translate(-42.52 -99.3)"/><path class="cls-1" d="M219.55,253.7a1.85,1.85,0,0,1,1.88,1.91,2.33,2.33,0,0,1-2.3,2.5,2.07,2.07,0,0,1-2.26-2C216.82,254.61,218.45,253.91,219.55,253.7Z" transform="translate(-42.52 -99.3)"/><path class="cls-1" d="M183.44,256.72a2,2,0,0,1-2.1,2.14,2.14,2.14,0,0,1-2.24-2.06,2.07,2.07,0,0,1,2.34-2.2A2,2,0,0,1,183.44,256.72Z" transform="translate(-42.52 -99.3)"/><path class="cls-1" d="M186.23,271.51a2.07,2.07,0,0,1-2.25-2,2.43,2.43,0,0,1,2.52-2.18,1.89,1.89,0,0,1,2,2A2.13,2.13,0,0,1,186.23,271.51Z" transform="translate(-42.52 -99.3)"/><path class="cls-1" d="M215.94,269.58a2.42,2.42,0,0,1-2.26,2.32,2.09,2.09,0,0,1-2.07-2.1,2,2,0,0,1,2.1-2.16A2.14,2.14,0,0,1,215.94,269.58Z" transform="translate(-42.52 -99.3)"/><path class="cls-1" d="M213,240.63a2.14,2.14,0,1,1,.05,4.27,2.27,2.27,0,0,1-2.15-2.34A2.2,2.2,0,0,1,213,240.63Z" transform="translate(-42.52 -99.3)"/><path class="cls-1" d="M217.24,235.51l4.39,3.89-0.41.46-4.26-4Z" transform="translate(-42.52 -99.3)"/><path class="cls-1" d="M163.38,184a78.06,78.06,0,0,1,23.5-7.15A148.6,148.6,0,0,0,163.38,184Z" transform="translate(-42.52 -99.3)"/><path class="cls-1" d="M264.33,209.38a6.17,6.17,0,0,1-3.83-4.56A10.78,10.78,0,0,1,264.33,209.38Z" transform="translate(-42.52 -99.3)"/><path class="cls-1" d="M141.5,200.64l-6.34,7.16-0.39-.35,6.37-7.09Z" transform="translate(-42.52 -99.3)"/><path class="cls-1" d="M147.64,197.29l-3.16,1.93-0.23-.29,4.64-4,0.34,0.36-1.63,2Z" transform="translate(-42.52 -99.3)"/><path class="cls-1" d="M153,191.88l3-2.14,0.39,0.52-2.92,2.14Z" transform="translate(-42.52 -99.3)"/><path class="cls-1" d="M249.64,195.29l-3.56-3.23,0.37-.38c0.54,0.55,1.09,1.09,1.63,1.64s1.15,1.23,1.72,1.84Z" transform="translate(-42.52 -99.3)"/><path class="cls-1" d="M273.78,229.05L272,224.89l0.35-.14,1.73,4.21Z" transform="translate(-42.52 -99.3)"/><path class="cls-1" d="M266.34,212.15l2,2.37-0.38.32-2-2.41Z" transform="translate(-42.52 -99.3)"/><path class="cls-1" d="M196.18,176.14h6.34v0.3h-6.29Z" transform="translate(-42.52 -99.3)"/><path class="cls-1" d="M205.48,177.3l3.71,0.51-0.05.38-3.71-.53Z" transform="translate(-42.52 -99.3)"/><path class="cls-1" d="M283.63,289.73a2.36,2.36,0,0,1,2.47,2.5,2.48,2.48,0,0,1-2.66,2.48,2.6,2.6,0,0,1-2.45-2.61A2.47,2.47,0,0,1,283.63,289.73Z" transform="translate(-42.52 -99.3)"/><path class="cls-1" d="M173.31,228.1l-2.92-3.86,0.41-.28,2.47,4.13h0Z" transform="translate(-42.52 -99.3)"/><path class="cls-1" d="M151.92,300.45a35,35,0,0,1,14.22-14.69c-2.47,2.26-5,4.4-7.37,6.8S154.32,297.66,151.92,300.45Z" transform="translate(-42.52 -99.3)"/><path class="cls-1" d="M151.84,299c2.08-6.49,6.52-11,12.2-14.47C158.52,288.09,154.82,293.22,151.84,299Z" transform="translate(-42.52 -99.3)"/><path class="cls-1" d="M152.54,293.8l-2.28,4.52L150,298.2l2.23-4.54Z" transform="translate(-42.52 -99.3)"/><path class="cls-1" d="M289.88,258a2.58,2.58,0,0,1,2.84-2.61,3,3,0,0,1,2.68,2.87,2.92,2.92,0,0,1-2.84,2.75A2.82,2.82,0,0,1,289.88,258Z" transform="translate(-42.52 -99.3)"/><path class="cls-1" d="M240.43,292.46l5.19,6.62-0.31.24-5.13-6.67Z" transform="translate(-42.52 -99.3)"/><path class="cls-1" d="M201.3,102.39l-4.58,6.21-0.39-.29,4.66-6.15Z" transform="translate(-42.52 -99.3)"/><path class="cls-1" d="M201.55,104.47l0.28,0.87a3,3,0,0,0-1.13.45c-1,1.15-2,2.36-3,3.55l-0.28-.24Z" transform="translate(-42.52 -99.3)"/><path class="cls-1" d="M266.49,257.11H240.37q0-.23,0-0.45a175.3,175.3,0,0,1,26.13-.1v0.56Z" transform="translate(-42.52 -99.3)"/><path class="cls-1" d="M242.72,254.86h6.18V255h-6.18v-0.12Z" transform="translate(-42.52 -99.3)"/><path class="cls-1" d="M112,256.27a2.41,2.41,0,0,1-2.41,2.57,2.76,2.76,0,0,1-2.74-2.66A2.58,2.58,0,0,1,112,256.27Z" transform="translate(-42.52 -99.3)"/><path class="cls-1" d="M143.61,258.16l18.51-.76v0.46l-18.52.3h0Z" transform="translate(-42.52 -99.3)"/><path class="cls-1" d="M435.52,212.59c-0.88,2.18-1.16,2.31-3.13,3.59a18.18,18.18,0,0,0-3.46-3.16,18.56,18.56,0,0,0-4.43-1.6,17.31,17.31,0,0,0-4.63-.75A18.62,18.62,0,0,0,416,211a17.68,17.68,0,0,0-3.48,1.61,16.69,16.69,0,0,0-3.15,2c-1,.77-2.33,1.23-3.15,2.2a17.1,17.1,0,0,0-2.21,3.18,16.9,16.9,0,0,0-1.21,3.68,17.14,17.14,0,0,0-.09,3.83,16.34,16.34,0,0,0,.33,3.78,16.51,16.51,0,0,0,1.14,3.65,16.76,16.76,0,0,0,2.25,3.09,17.07,17.07,0,0,0,2.68,2.71,21.55,21.55,0,0,0,15.31,3,18.72,18.72,0,0,0,4.19-1.92,18.45,18.45,0,0,0,3.73-2.62c1.95,1.09,2.08,1.26,3,3.29a24.93,24.93,0,0,1-3.5,2.57A24.07,24.07,0,0,1,428,247c-1.34.57-2.52,1.64-3.95,1.95a21.23,21.23,0,0,1-4.39.3,22.71,22.71,0,0,1-3.72-.81,21.56,21.56,0,0,1-3.61-.92c-1.21-.42-2.58-0.42-3.67-1a21.83,21.83,0,0,1-3-2.39,21.82,21.82,0,0,1-3-2.4,21.56,21.56,0,0,1-2-3.23A21,21,0,0,1,399.1,235a21.59,21.59,0,0,1-1.42-3.57,22.5,22.5,0,0,1-.33-3.84c0-1.29.84-2.48,1.07-3.7a20.07,20.07,0,0,1,.9-3.62c0.45-1.19.44-2.61,1.09-3.69s1.88-1.77,2.72-2.72a21.13,21.13,0,0,1,2.72-2.58,21.82,21.82,0,0,1,3-2.27,22.47,22.47,0,0,1,3.46-1.56,23.73,23.73,0,0,1,3.77-.41c1.23-.2,2.42-1.1,3.71-1.1a35.64,35.64,0,0,1,12,4.12A24.88,24.88,0,0,1,435.52,212.59Z" transform="translate(-42.52 -99.3)"/><path class="cls-1" d="M486.17,227.64a21.44,21.44,0,0,1-.67,3.79,20.5,20.5,0,0,1-1.44,3.5,20.74,20.74,0,0,1-1.31,3.53,23.72,23.72,0,0,1-5.1,5.51c-1,.79-1.72,2-2.85,2.59a23,23,0,0,1-3.47,1.72c-1.19.4-2.62,0-3.89,0.19a23,23,0,0,1-3.74.16,23.31,23.31,0,0,1-3.75-.14,23.85,23.85,0,0,1-3.8-.47,22.56,22.56,0,0,1-3.45-1.66,21.86,21.86,0,0,1-3-2.29,21.64,21.64,0,0,1-2.92-2.44,56.45,56.45,0,0,1-4.05-6.46,21.48,21.48,0,0,1-1.32-3.65,22.38,22.38,0,0,1-.12-3.88,21.34,21.34,0,0,1,.71-3.77,21,21,0,0,1,.77-3.73,30.54,30.54,0,0,1,4-6.44,21.33,21.33,0,0,1,2.9-2.45,21.57,21.57,0,0,1,3.29-1.8c1.11-.59,1.92-1.89,3.14-2.3a24.12,24.12,0,0,1,3.79-.69c1.23-.2,2.52.37,3.82,0.37a22.81,22.81,0,0,1,3.71.3c1.27,0.2,2.66-.22,3.84.18a22.55,22.55,0,0,1,3.32,1.9,22.69,22.69,0,0,1,3.42,1.71,21.84,21.84,0,0,1,2.55,2.85,20.89,20.89,0,0,1,2.21,3.07c0.65,1.08,1.75,2,2.21,3.19a21.69,21.69,0,0,1,1,3.74A22.32,22.32,0,0,1,486.17,227.64Zm-39.48,0a16.44,16.44,0,0,0,.11,3.8,17.28,17.28,0,0,0,.92,3.79,39.6,39.6,0,0,0,5.15,5.79,18.1,18.1,0,0,0,3.29,2.05c1.14,0.53,2.55.39,3.81,0.67a17.24,17.24,0,0,0,3.74.22c1.3,0,2.63.62,3.85,0.35a18.27,18.27,0,0,0,3.73-1.11,18,18,0,0,0,3.24-2.15,17.53,17.53,0,0,0,2.43-3,18.34,18.34,0,0,0,3.71-6.6,16.93,16.93,0,0,0,.21-3.83,16.69,16.69,0,0,0-.29-3.8,27.15,27.15,0,0,0-6.39-9.15,17.31,17.31,0,0,0-3.05-2.27,17.68,17.68,0,0,0-11.23-1.08,18,18,0,0,0-3.7,1,18.45,18.45,0,0,0-3.48,1.74c-1,.77-1.36,2.29-2.18,3.26a16.15,16.15,0,0,0-2.26,3c-0.57,1.12-1.65,2.13-2,3.38S446.69,226.34,446.69,227.64Zm21.07-26.3c-1.6-.69-0.94-1.66-2-3s-0.46-3.19-2.21-3.19-1.19,1.77-2.28,3.13-0.58,1.88-2.18,2.57c-1.89.82-2.5,1.66-3.77,0-1-1.31.57-1.28,1.6-2.59s0.89-1.43,1.92-2.74,1-1.45,2.53-2.06c2.14-.84,2.18-0.71,4.32.13,1.55,0.61,1,1.07,2,2.38s1.4,1,2.43,2.34,2.08,1.07,2,2.74C471.87,203.24,469.65,202.15,467.77,201.34Z" transform="translate(-42.52 -99.3)"/><path class="cls-1" d="M509.64,211.28c-1.55,1.41-.18,1.93-0.18,4s-0.34,2.09-.34,4.19,0.27,2.09.27,4.19-0.1,2.09-.1,4.19,0,2.09,0,4.19,0.44,2.09.44,4.19,0.14,2.1.14,4.19-0.58,2.1-.58,4.2,1.6,2.56,0,3.94c-1.83,1.59-2.64,1.68-4.48.09-1.58-1.37-.28-1.93-0.28-4s0.11-2.09.11-4.19,0.18-2.09.18-4.19-0.18-2.09-.18-4.19,0.11-2.09.11-4.19-0.21-2.09-.21-4.19-0.23-2.1-.23-4.19,0.17-2.1.17-4.2,1.8-2.86.25-4.27-2.37.16-4.67,0.16-2.3-.13-4.6-0.13-3,1.68-4.6,0-1.42-2.81.11-4.57c1.33-1.53,1.92.27,4,.27s2-.66,4.06-0.66,2,0.17,4.06.17,2,0.5,4.06.5h4.06c2,0,2-.56,4.06-0.56s2,0.32,4.07.32,2.88-1.8,4.22-.27c1.53,1.76,1.46,3.1-.18,4.76s-2.28,0-4.59,0-2.42.86-4.69,0.44S511.35,209.73,509.64,211.28Z" transform="translate(-42.52 -99.3)"/><path class="cls-1" d="M537.82,211.26c-1.51,1.76-.2,2.17-0.2,4.49s-0.34,2.32-.34,4.64-1.27,3,.3,4.71,2.2,0.13,4.34.13,2.14,0,4.27,0,2.14-.44,4.28-0.44,2.14-.14,4.28-0.14,2.66-1.08,4.1.5,1.5,2.55-.08,4.27-1.88,0-4,0-2.14.35-4.27,0.35-2.14-.11-4.28-0.11-2.14-.18-4.28-0.18-2.63-1.21-4.26.17c-1.38,1.17-.11,1.8-0.11,3.61s0.21,1.82.21,3.63,0.23,1.82.23,3.64-1.59,2.3-.23,3.5c1.54,1.36,1.94.24,4,.24s2.06-.19,4.11-0.19,2.06,0.13,4.11.13,2.06,0,4.12,0,2.06,0.15,4.12.15,2.47-1.44,3.85.1c1.53,1.71,2,2.86.49,4.55s-2.32-.07-4.43-0.07-2.11-.5-4.22-0.5h-4.22c-2.11,0-2.11.56-4.22,0.56s-2.11-.32-4.22-0.32S539.14,249,537,249s-2.63,1.19-4.19-.23,0-1.89,0-3.82-0.44-1.92-.44-3.85,0-1.93,0-3.85,0.73-1.93.73-3.85-0.1-1.93-.1-3.85-0.64-1.93-.64-3.85,0.57-1.93.57-3.85,0-1.93,0-3.85-0.23-1.93-.23-3.85,0-1.93,0-3.86-1-2.24.38-3.56,1.77-.69,3.82-0.69,2.05,0.49,4.11.49,2.05,0.17,4.11.17,2.05-.09,4.11-0.09,2.05-.49,4.11-0.49,2.06,0.17,4.11.17,3-1.63,4.36-.08c1.54,1.75,1.09,3-.43,4.72-1.29,1.51-1.81-.15-3.8-0.15s-2,.49-4,0.49-2-.47-4-0.47-2,.7-4,0.7-2-.33-3.92-0.74S539.12,209.75,537.82,211.26Z" transform="translate(-42.52 -99.3)"/><path class="cls-1" d="M600.9,210.25c-0.53,2.44-.68,2.58-2.3,4.48a21.49,21.49,0,0,0-3.49-2.25,22.57,22.57,0,0,0-4.07-1,21.07,21.07,0,0,0-4.11-.54,17.23,17.23,0,0,0-4,.39,7.8,7.8,0,0,0-3.33,2.09,4.06,4.06,0,0,0-1.36,3.34c0,1.45-.11,2.75.62,3.7a9.11,9.11,0,0,0,3,2.47,26.88,26.88,0,0,0,3.62,1.32c1.17,0.39,2.5.41,3.74,0.79s2.4,0.87,3.58,1.31a22.77,22.77,0,0,1,3.36,1.75,12.21,12.21,0,0,1,3.07,2.2,9.15,9.15,0,0,1,1.8,3.31,11.82,11.82,0,0,1,.14,8.06,10.83,10.83,0,0,1-2.68,3.48,13.52,13.52,0,0,1-3.77,2.1,17.71,17.71,0,0,1-4.06,1.42,24.57,24.57,0,0,1-4.31.24,22.61,22.61,0,0,1-4.44-.41,24.35,24.35,0,0,1-4.22-1.42,24.08,24.08,0,0,1-3.84-2.2,25.85,25.85,0,0,1-4-2.48c0.5-2.38.74-2.58,2.38-4.38a23.63,23.63,0,0,0,2.93,2.86,22.92,22.92,0,0,0,3.5,1.91c1.22,0.53,2.67.41,3.92,0.69a18.34,18.34,0,0,0,3.85.77,16.26,16.26,0,0,0,4.34-.85,8.79,8.79,0,0,0,4-1.82,5.51,5.51,0,0,0,1.7-4,5.43,5.43,0,0,0-1.46-3.35,7.58,7.58,0,0,0-2.8-2.25c-1-.55-2-1.68-3.23-2.1s-2.43-.65-3.67-1-2.64-.13-3.82-0.56-2.17-1.46-3.24-2.06a11.9,11.9,0,0,1-3-2.24,8.75,8.75,0,0,1-2.14-3.07,11.32,11.32,0,0,1-.64-3.75,9.53,9.53,0,0,1,1.28-3.83c0.54-1.25.71-2.81,1.75-3.75s2.43-1.22,3.76-1.79a17.56,17.56,0,0,1,3.93-1,22.8,22.8,0,0,1,4-.43,25.24,25.24,0,0,1,3.58-.23,26.66,26.66,0,0,1,3.46.92,26.3,26.3,0,0,1,3.43,1A23.29,23.29,0,0,1,600.9,210.25Z" transform="translate(-42.52 -99.3)"/><path class="cls-1" d="M428,282.92c-0.53,2.44-.68,2.58-2.3,4.48a21.49,21.49,0,0,0-3.49-2.25,22.57,22.57,0,0,0-4.07-1,21.07,21.07,0,0,0-4.11-.54,17.23,17.23,0,0,0-4,.39,7.8,7.8,0,0,0-3.33,2.09,4.06,4.06,0,0,0-1.36,3.34c0,1.45-.11,2.75.62,3.7a9.11,9.11,0,0,0,3,2.47,26.88,26.88,0,0,0,3.62,1.32c1.17,0.39,2.5.41,3.74,0.79s2.4,0.87,3.58,1.31a22.77,22.77,0,0,1,3.36,1.75,12.21,12.21,0,0,1,3.07,2.2,9.15,9.15,0,0,1,1.8,3.31,11.82,11.82,0,0,1,.14,8.06,10.83,10.83,0,0,1-2.68,3.48,13.52,13.52,0,0,1-3.77,2.1,17.71,17.71,0,0,1-4.06,1.42,24.57,24.57,0,0,1-4.31.24,22.61,22.61,0,0,1-4.44-.41,24.35,24.35,0,0,1-4.22-1.42,24.08,24.08,0,0,1-3.84-2.2,25.85,25.85,0,0,1-4-2.48c0.5-2.38.74-2.58,2.38-4.38a23.63,23.63,0,0,0,2.93,2.86,22.92,22.92,0,0,0,3.5,1.91c1.22,0.53,2.67.41,3.92,0.69a18.34,18.34,0,0,0,3.85.77,16.26,16.26,0,0,0,4.34-.85,8.79,8.79,0,0,0,4-1.82,5.51,5.51,0,0,0,1.7-4,5.43,5.43,0,0,0-1.46-3.35,7.58,7.58,0,0,0-2.8-2.25c-1-.55-2-1.68-3.23-2.1s-2.43-.65-3.67-1-2.64-.13-3.82-0.56-2.17-1.46-3.24-2.06a11.9,11.9,0,0,1-3-2.24,8.75,8.75,0,0,1-2.14-3.07,11.32,11.32,0,0,1-.64-3.75,9.53,9.53,0,0,1,1.28-3.83c0.54-1.25.71-2.81,1.75-3.75s2.43-1.22,3.76-1.79a17.56,17.56,0,0,1,3.93-1,22.8,22.8,0,0,1,4-.43,25.24,25.24,0,0,1,3.58-.23,26.66,26.66,0,0,1,3.46.92,26.3,26.3,0,0,1,3.43,1A23.29,23.29,0,0,1,428,282.92Z" transform="translate(-42.52 -99.3)"/><path class="cls-1" d="M444.46,311c-1.63,1.07-.94,1.58-1.72,3.37s-1.11,1.65-1.89,3.43,0.45,2.72-1.28,3.64c-2.27,1.21-3.14,1.75-5-.06-1.37-1.36.87-1.53,1.67-3.29s0.38-1.95,1.18-3.71,0.66-1.82,1.45-3.59,1.33-1.53,2.12-3.29,0.89-1.72,1.68-3.49,0.68-1.82,1.47-3.58,0.47-1.91,1.26-3.67,0.89-1.72,1.68-3.49,1-1.69,1.75-3.46,0.63-1.84,1.42-3.61,0.9-1.72,1.69-3.49-0.27-2.77,1.44-3.69c2.22-1.19,3-1.39,5.25-.2,1.7,0.91.79,2,1.58,3.77s0.53,1.88,1.32,3.65,1,1.69,1.75,3.45,0.67,1.82,1.46,3.58,0.83,1.75,1.62,3.51,0.65,1.83,1.44,3.59,0.59,1.85,1.37,3.62,1.4,1.49,2.19,3.26,0.63,1.84,1.42,3.6,0.33,2,1.12,3.74l1.58,3.54c0.79,1.77,3.46,2.17,2.06,3.51-1.9,1.82-3,1-5.33-.26-1.73-.9-1-1.58-1.82-3.36s-0.56-1.89-1.35-3.67,0.06-2.55-1.57-3.62-2,.44-3.9.44h-3.85c-1.93,0-1.93-.74-3.85-0.74s-1.93.1-3.85,0.1-2,.92-3.91.64S446.07,309.91,444.46,311Zm11.38-26.12c-2,0-.81,1.55-1.6,3.34s-1.1,1.65-1.89,3.44-0.53,1.9-1.32,3.69-0.88,1.75-1.67,3.54-0.83,1.77-1.62,3.57-2.21,1.91-1.18,3.58,1.73-.24,3.62-0.24,1.9,0.58,3.8.58,1.9,0.11,3.8.11,1.9-.12,3.81-0.12,2.69,1.33,3.69-.29-0.7-1.71-1.5-3.5-0.63-1.86-1.43-3.65-1-1.72-1.76-3.51-0.69-1.84-1.49-3.63-1.46-1.59-1.8-3.53S457.8,284.86,455.83,284.85Z" transform="translate(-42.52 -99.3)"/><path class="cls-1" d="M520.19,304.06a23.54,23.54,0,0,1-.58,4,18,18,0,0,1-1.41,3.76,15.3,15.3,0,0,1-1.72,3.61,14,14,0,0,1-2.91,2.75,15.14,15.14,0,0,1-3.51,1.9,18.41,18.41,0,0,1-3.78,1.5,24.41,24.41,0,0,1-4.07.47c-1.42,0-2.74-.69-4-0.9a18.44,18.44,0,0,1-3.83-1.16,15.26,15.26,0,0,1-3.55-1.82,14.46,14.46,0,0,1-3.13-2.58,15.65,15.65,0,0,1-1.92-3.6,18.9,18.9,0,0,1-.93-3.94,23.19,23.19,0,0,1-.51-4c0-2.08.12-2.08,0.12-4.16s-0.21-2.08-.21-4.15-0.23-2.08-.23-4.15,0.17-2.08.17-4.16,0.29-2.08.29-4.16-1.74-2.87-.16-4.23c1.84-1.58,3-1.48,4.88.1,1.58,1.35,0,2,0,4.12s-0.15,2.08-.15,4.15-0.22,2.08-.22,4.15,0.66,2.08.66,4.16-0.17,2.08-.17,4.16-0.5,2.08-.5,4.16a17.77,17.77,0,0,0,.49,4.23c0.36,1.43,1.44,2.51,2.18,3.62a10.56,10.56,0,0,0,2.71,3.15,12.56,12.56,0,0,0,3.94,1.34,16.36,16.36,0,0,0,4.09.72,17,17,0,0,0,4.14-.45,11.53,11.53,0,0,0,3.57-2,9.66,9.66,0,0,0,2.8-2.84c0.72-1.11,1.93-2.09,2.28-3.52a18.25,18.25,0,0,0,.38-4.21c0-2.08-.64-2.08-0.64-4.16s0.57-2.08.57-4.15,0-2.08,0-4.15-0.24-2.08-.24-4.16,0-2.08,0-4.16-1.21-2.49.37-3.85c1.84-1.58,3-2.19,4.83-.61,1.58,1.35-.36,2.37-0.36,4.45s-0.18,2.08-.18,4.15,0.1,2.08.1,4.15,0.49,2.08.49,4.16-0.25,2.08-.17,4.16S520.19,302,520.19,304.06Z" transform="translate(-42.52 -99.3)"/><path class="cls-1" d="M545.28,321.69c-1.79-1-.64-2.13-1.42-4.06s-0.46-2.05-1.24-4-1-1.82-1.82-3.75-0.69-2-1.47-3.89-0.74-1.94-1.52-3.87-1.19-1.76-2-3.69-0.91-1.87-1.69-3.8-0.25-2.14-1-4.07-0.68-2-1.47-3.89-0.89-1.88-1.68-3.81-3.29-2.35-1.87-3.87c1.79-1.89,3-1.19,5.31.07,1.73,1,.58,1.91,1.3,3.75s0.89,1.77,1.62,3.61,0.62,1.88,1.35,3.72,0.93,1.76,1.66,3.6,0.94,1.75,1.67,3.59,0.57,1.9,1.3,3.74,0.47,1.94,1.2,3.78,0.91,1.77,1.64,3.61,0.61,1.89,1.34,3.73-0.48,3.66,1.5,3.66,0.87-1.78,1.6-3.61,0.94-1.76,1.67-3.59,0.12-2.08.85-3.92,0.89-1.77,1.62-3.61,1.2-1.65,1.93-3.49l1.47-3.67c0.73-1.84.21-2,.94-3.88s1-1.72,1.76-3.56,0.42-2,1.15-3.81-0.05-2.6,1.67-3.57c2.22-1.25,3.29-1.87,5,0,1.4,1.54-.39,2-1.18,3.94l-1.58,3.85c-0.79,1.93-1.46,1.65-2.25,3.58s-0.69,2-1.48,3.89-0.2,2.17-1,4.09-1.31,1.71-2.1,3.64-0.78,1.93-1.56,3.86-0.57,2-1.36,3.94-0.74,1.94-1.53,3.87-1.26,1.74-2,3.67,0.45,2.68-.9,4.27C549,323.78,547.45,323,545.28,321.69Z" transform="translate(-42.52 -99.3)"/><path class="cls-1" d="M578,311c-1.63,1.07-.94,1.58-1.72,3.37s-1.11,1.65-1.89,3.43,0.45,2.72-1.28,3.64c-2.27,1.21-3.14,1.75-5-.06-1.37-1.36.87-1.53,1.67-3.29s0.38-1.95,1.18-3.71,0.66-1.82,1.45-3.59,1.33-1.53,2.12-3.29,0.89-1.72,1.68-3.49,0.68-1.82,1.47-3.58,0.47-1.91,1.26-3.67,0.89-1.72,1.68-3.49,1-1.69,1.75-3.46,0.63-1.84,1.42-3.61,0.9-1.72,1.69-3.49-0.27-2.77,1.44-3.69c2.22-1.19,3-1.39,5.25-.2,1.7,0.91.79,2,1.58,3.77s0.53,1.88,1.32,3.65,1,1.69,1.75,3.45,0.67,1.82,1.46,3.58,0.83,1.75,1.62,3.51,0.65,1.83,1.44,3.59,0.59,1.85,1.37,3.62,1.4,1.49,2.19,3.26,0.63,1.84,1.42,3.6,0.33,2,1.12,3.74l1.58,3.54c0.79,1.77,3.46,2.17,2.06,3.51-1.9,1.82-3,1-5.33-.26-1.73-.9-1-1.58-1.82-3.36s-0.56-1.89-1.35-3.67,0.06-2.55-1.57-3.62-2,.44-3.9.44h-3.85c-1.93,0-1.93-.74-3.85-0.74s-1.93.1-3.85,0.1-2,.92-3.91.64S579.59,309.91,578,311Zm11.38-26.12c-2,0-.81,1.55-1.6,3.34s-1.1,1.65-1.89,3.44-0.53,1.9-1.32,3.69-0.88,1.75-1.67,3.54-0.83,1.77-1.62,3.57-2.21,1.91-1.18,3.58,1.73-.24,3.62-0.24,1.9,0.58,3.8.58,1.9,0.11,3.8.11,1.9-.12,3.81-0.12,2.69,1.33,3.69-.29-0.7-1.71-1.5-3.5-0.63-1.86-1.43-3.65-1-1.72-1.76-3.51-0.69-1.84-1.49-3.63-1.46-1.59-1.8-3.53S591.32,284.86,589.35,284.85Z" transform="translate(-42.52 -99.3)"/><path class="cls-1" d="M653,300.62c1.43,1.28-.18,2.09-0.18,4s-0.35,1.92-.35,3.84,0.28,1.92.28,3.85,0.33,1.93-.1,3.8a23,23,0,0,1-3.47,2.17,18.67,18.67,0,0,1-7.8,3.39c-1.4.26-2.88-.18-4.29-0.18a22.64,22.64,0,0,1-3.73-.41,22.25,22.25,0,0,1-3.67-.8,22.7,22.7,0,0,1-3.61-1.21,22.11,22.11,0,0,1-3.11-2.21,21.56,21.56,0,0,1-2.62-2.74,21.21,21.21,0,0,1-2.38-3,40,40,0,0,1-2.77-7.07,13.73,13.73,0,0,1-.05-7.64,62.67,62.67,0,0,1,2.82-7.1,21.13,21.13,0,0,1,2.39-3,21.52,21.52,0,0,1,2.76-2.63,22.1,22.1,0,0,1,3.27-1.94,22.45,22.45,0,0,1,3.55-1.28c1.19-.4,2.27-1.34,3.54-1.54a25,25,0,0,1,3.85-.13,71.14,71.14,0,0,1,8.2,2c1.34,0.5,2.86.59,4.07,1.3a21,21,0,0,1,3.22,2.59c-0.82,2.14-.73,2.43-2.53,3.84a21.07,21.07,0,0,0-2.92-2.28,11.19,11.19,0,0,0-6.62-2.09,18.18,18.18,0,0,0-3.42-.33c-1.31,0-2.67-.59-3.89-0.33a18.42,18.42,0,0,0-3.68,1.31c-1.18.53-2,1.73-3,2.5s-2.34,1.23-3.16,2.21a17,17,0,0,0-2.14,3.24,16.58,16.58,0,0,0-1.11,3.7,16.34,16.34,0,0,0-.39,3.8,17.7,17.7,0,0,0-.05,3.92c0.3,1.27,1.5,2.2,2.08,3.34a16.81,16.81,0,0,0,1.7,3.45,17.54,17.54,0,0,0,2.71,2.8,18.07,18.07,0,0,0,3.41,1.9,18.56,18.56,0,0,0,3.8.73,12.45,12.45,0,0,0,7.62-.07c1.28-.28,2.71-0.15,3.92-0.68a23.46,23.46,0,0,0,3.67-2.06c0.45-2.08-.49-2.19-0.49-4.32s0.48-2.13.48-4.26-1.59-2.52-.66-4.44C649.24,298.48,651.42,299.19,653,300.62Z" transform="translate(-42.52 -99.3)"/><path class="cls-1" d="M672.06,283.92c-1.51,1.76-.2,2.17-0.2,4.49s-0.34,2.32-.34,4.64-1.27,3,.3,4.71,2.2,0.13,4.34.13,2.14,0,4.27,0,2.14-.44,4.28-0.44,2.14-.14,4.28-0.14,2.66-1.08,4.1.5,1.5,2.55-.08,4.27-1.88,0-4,0-2.14.35-4.27,0.35-2.14-.11-4.28-0.11-2.14-.18-4.28-0.18-2.63-1.21-4.26.17c-1.38,1.17-.11,1.8-0.11,3.61s0.21,1.82.21,3.63,0.23,1.82.23,3.64-1.59,2.3-.23,3.5c1.54,1.36,1.94.24,4,.24s2.06-.19,4.11-0.19,2.06,0.13,4.11.13,2.06,0,4.12,0,2.06,0.15,4.12.15,2.47-1.44,3.85.1c1.53,1.71,2,2.86.49,4.55s-2.32-.07-4.43-0.07-2.11-.5-4.22-0.5h-4.22c-2.11,0-2.11.56-4.22,0.56s-2.11-.32-4.22-0.32-2.11.34-4.23,0.34-2.63,1.19-4.19-.23,0-1.89,0-3.82-0.44-1.92-.44-3.85,0-1.93,0-3.85,0.73-1.93.73-3.85-0.1-1.93-.1-3.85-0.64-1.93-.64-3.85,0.57-1.93.57-3.85,0-1.93,0-3.85-0.23-1.93-.23-3.85,0-1.93,0-3.86-1-2.24.38-3.56,1.77-.69,3.82-0.69,2.05,0.49,4.11.49,2.05,0.17,4.11.17,2.05-.09,4.11-0.09,2.05-.49,4.11-0.49,2.06,0.17,4.11.17,3-1.63,4.36-.08c1.54,1.75,1.09,3-.43,4.72-1.29,1.51-1.81-.15-3.8-0.15s-2,.49-4,0.49-2-.47-4-0.47-2,.7-4,0.7-2-.33-3.92-0.74S673.36,282.41,672.06,283.92Z" transform="translate(-42.52 -99.3)"/><path class="cls-1" d="M735.14,282.92c-0.53,2.44-.68,2.58-2.3,4.48a21.49,21.49,0,0,0-3.49-2.25,22.57,22.57,0,0,0-4.07-1,21.07,21.07,0,0,0-4.11-.54,17.23,17.23,0,0,0-4,.39,7.8,7.8,0,0,0-3.33,2.09,4.06,4.06,0,0,0-1.36,3.34c0,1.45-.11,2.75.62,3.7a9.11,9.11,0,0,0,3,2.47,26.88,26.88,0,0,0,3.62,1.32c1.17,0.39,2.5.41,3.74,0.79s2.4,0.87,3.58,1.31a22.77,22.77,0,0,1,3.36,1.75,12.21,12.21,0,0,1,3.07,2.2,9.15,9.15,0,0,1,1.8,3.31,11.82,11.82,0,0,1,.14,8.06,10.83,10.83,0,0,1-2.68,3.48A13.52,13.52,0,0,1,729,320a17.71,17.71,0,0,1-4.06,1.42,24.57,24.57,0,0,1-4.31.24,22.61,22.61,0,0,1-4.44-.41,24.35,24.35,0,0,1-4.22-1.42,24.08,24.08,0,0,1-3.84-2.2,25.85,25.85,0,0,1-4-2.48c0.5-2.38.74-2.58,2.38-4.38a23.63,23.63,0,0,0,2.93,2.86,22.92,22.92,0,0,0,3.5,1.91c1.22,0.53,2.67.41,3.92,0.69a18.34,18.34,0,0,0,3.85.77,16.26,16.26,0,0,0,4.34-.85,8.79,8.79,0,0,0,4-1.82,5.51,5.51,0,0,0,1.7-4,5.43,5.43,0,0,0-1.46-3.35,7.58,7.58,0,0,0-2.8-2.25c-1-.55-2-1.68-3.23-2.1s-2.43-.65-3.67-1-2.64-.13-3.82-0.56-2.17-1.46-3.24-2.06a11.9,11.9,0,0,1-3-2.24,8.75,8.75,0,0,1-2.14-3.07,11.32,11.32,0,0,1-.64-3.75,9.53,9.53,0,0,1,1.28-3.83c0.54-1.25.71-2.81,1.75-3.75s2.43-1.22,3.76-1.79a17.56,17.56,0,0,1,3.93-1,22.8,22.8,0,0,1,4-.43,25.24,25.24,0,0,1,3.58-.23,26.66,26.66,0,0,1,3.46.92,26.3,26.3,0,0,1,3.43,1A23.29,23.29,0,0,1,735.14,282.92Z" transform="translate(-42.52 -99.3)"/><path class="cls-1" d="M728.84,231.7c-1.77,1.57-2.29-.2-4.66-0.2s-2.37.1-4.74,0.1-2.37.49-4.74,0.49-2.37-.17-4.74-0.17-2.37.2-4.73,0.2-2.37-.57-4.74-0.57-2.37-.07-4.74-0.07S693.39,232,691,232s-2.78,1.17-4.55-.4c-1.57-1.4-2-2.9-.46-4.3,1.77-1.57,2.64.65,5,.65s2.37-.41,4.74-0.41,2.37-.15,4.74-0.15,2.37,0.13,4.74.13,2.37-.22,4.73-0.22,2.37,0.51,4.74.51h4.74c2.37,0,2.37-.43,4.74-0.43s2.43-.37,4.6.58S730.42,230.3,728.84,231.7Z" transform="translate(-42.52 -99.3)"/><path class="cls-1" d="M690.49,231.73c-1.84,1.59-2.38-.14-4.81-0.14s-2.43.07-4.86,0.07S678.38,232,676,232s-2.43-.12-4.87-0.12-2.43.13-4.87,0.13-2.92,1.24-4.76-.35c-1.59-1.38-1.56-2.55,0-3.93,1.84-1.59,2.29-.29,4.72-0.29s2.43,0.33,4.86.33,2.43-.48,4.86-0.48,2.43,0.51,4.87.51,2.43-.28,4.87-0.28,2.69-1.05,4.93-.09C692.65,228.33,692.08,230.35,690.49,231.73Z" transform="translate(-42.52 -99.3)"/><path class="cls-1" d="M667.88,231.73c-1.84,1.59-2.38-.14-4.81-0.14s-2.43.07-4.86,0.07-2.43.34-4.86,0.34-2.43-.12-4.87-0.12S646,232,643.61,232s-2.92,1.24-4.76-.35c-1.59-1.38-1.56-2.55,0-3.93,1.84-1.59,2.29-.29,4.72-0.29s2.43,0.33,4.86.33,2.43-.48,4.86-0.48,2.43,0.51,4.87.51,2.43-.28,4.87-0.28,2.69-1.05,4.93-.09C670,228.33,669.47,230.35,667.88,231.73Z" transform="translate(-42.52 -99.3)"/></svg>