<svg id="Objects" xmlns="http://www.w3.org/2000/svg" viewBox="0 0 699.59 555.17"><defs><style>.cls-1{font-size:99.12px;fill:#fff;font-family:Dry Brush;}.cls-1,.cls-6{letter-spacing:3px;}.cls-2{letter-spacing:-1px;}.cls-3{letter-spacing:1px;}.cls-4{letter-spacing:2px;}.cls-5{letter-spacing:5px;}.cls-7{fill:#ffffff;}</style></defs><title>eau</title><text class="cls-1" transform="translate(217.95 79)">cô<tspan class="cls-2" x="107.04" y="0">t</tspan><tspan class="cls-3" x="140.17" y="0">e</tspan><tspan x="193.44" y="0">s </tspan><tspan class="cls-3"><tspan x="-77.02" y="95">s</tspan><tspan class="cls-4" x="-27.55" y="95">a</tspan><tspan class="cls-5" x="30.52" y="95">u</tspan><tspan class="cls-4" x="89.99" y="95">v</tspan><tspan class="cls-4" x="137.73" y="95">a</tspan><tspan class="cls-4" x="195.88" y="95">g</tspan><tspan x="251.88" y="95">e</tspan><tspan class="cls-6" x="305.15" y="95">s</tspan></tspan></text><path class="cls-7" d="M346.48,785c-0.25,5-.49,10-0.78,15h2.36l-0.89-14.93Z" transform="translate(-68.82 -244.83)"/><path class="cls-7" d="M740.09,800l0,0h2.64l2.26-3.4-1.15-.86A35,35,0,0,0,740.09,800Z" transform="translate(-68.82 -244.83)"/><path class="cls-7" d="M693.34,800h2.89l-0.24-.22,5.5-6.46C698.15,794.57,696.34,797.89,693.34,800Z" transform="translate(-68.82 -244.83)"/><path class="cls-7" d="M732,800h4.45l3.92-5.3-0.82-.89Z" transform="translate(-68.82 -244.83)"/><path class="cls-7" d="M388,749.8c-2.65,1.92-5,4.29-7.44,6.45l0.66,0.9c1-.56,1.94-1.06,2.85-1.69,11.11-7.57,23.18-12.72,36.76-13.08,23.11-.62,43.47,14.3,50.78,36.75A56.18,56.18,0,0,1,474.36,800h1.87a58.06,58.06,0,0,0-5.47-28.15,15.28,15.28,0,0,1-.7-3.28,12.22,12.22,0,0,0-1.3-2.63c-4.29-5.11-8-10.79-14.05-14.17l-0.3-.14C434.27,737,406.74,736.22,388,749.8Z" transform="translate(-68.82 -244.83)"/><path class="cls-7" d="M366.61,799.72c-0.37-9.56.8-20.49,8.41-35.29l-0.77-.4c-2.26,4.37-5,8.57-6.69,13.15A55.24,55.24,0,0,0,363.94,800h2.7C366.63,799.91,366.62,799.82,366.61,799.72Z" transform="translate(-68.82 -244.83)"/><path class="cls-7" d="M687.67,800h2.06l4-6.86-0.59-.4Z" transform="translate(-68.82 -244.83)"/><path class="cls-7" d="M475.9,775.66a20.09,20.09,0,0,0-2-3.74,16.78,16.78,0,0,0-3-2.4c2,6,4.59,11.88,5.82,18a46.46,46.46,0,0,1,.91,12.45h4.74a67.07,67.07,0,0,0-4.76-27.73,2.15,2.15,0,0,1,0-.6l-5.84-9.48-0.34.18,6.78,16.14-0.83.36C476.88,777.8,476.42,776.72,475.9,775.66Z" transform="translate(-68.82 -244.83)"/><path class="cls-7" d="M342.37,800h1V785h-1v15Z" transform="translate(-68.82 -244.83)"/><path class="cls-7" d="M348.54,787.57V800h1.62l-1.07-12.45Z" transform="translate(-68.82 -244.83)"/><path class="cls-7" d="M82.48,798.43c-0.86-.5-2.05-0.4-3.05-0.7a7.15,7.15,0,0,1-2.53-1.14,28.23,28.23,0,0,1-2.76-3.14c0,2.21.72,3.94,3.09,6.56h7.71C84.13,799.46,83.32,798.91,82.48,798.43Z" transform="translate(-68.82 -244.83)"/><path class="cls-7" d="M97.9,795.57l-1.31,1.3,4.54,3.13h2c-0.29-.26-0.58-0.52-0.88-0.76C100.8,798,99.36,796.79,97.9,795.57Z" transform="translate(-68.82 -244.83)"/><path class="cls-7" d="M93.71,796l3.53,4h1.6l-4.7-4.37Z" transform="translate(-68.82 -244.83)"/><path class="cls-7" d="M746.72,799.52c-0.14.15-.27,0.32-0.39,0.48h2.83l1.83-3.11-1-.76C748.9,797.26,747.78,798.36,746.72,799.52Z" transform="translate(-68.82 -244.83)"/><path class="cls-7" d="M147.12,795.17l-0.82.23,1.23,4.59h1.61C148.49,798.38,147.79,796.78,147.12,795.17Z" transform="translate(-68.82 -244.83)"/><path class="cls-7" d="M139.85,793.08l-0.51.22,2,5.19-0.78.71-4.1-5.81-1.15,1,1.59,3.65-0.33.7-6.78-3.2-0.54,2L124,793.09l-0.52.28,2,3.42H113.65l0.13,1.37a6.24,6.24,0,0,1-7.57-1.3l1.12,3.14h35.92Z" transform="translate(-68.82 -244.83)"/><path class="cls-7" d="M145.85,800l-2-4.86-0.43,0,0.4,4.76-0.3.12h2.3Z" transform="translate(-68.82 -244.83)"/><path class="cls-7" d="M751.16,800h2.73l1.28-2.34-0.71-.51Z" transform="translate(-68.82 -244.83)"/><path class="cls-7" d="M91.55,797.27l-1.05.95L92,800h2.42C93.44,799.11,92.5,798.18,91.55,797.27Z" transform="translate(-68.82 -244.83)"/><path class="cls-7" d="M72.1,800h4c-1.61-1.73-3.22-3.47-4.78-5.24-0.51-.58-0.17-2.49.41-3.38,7.82-11.89,19.95-16.4,34.84-12.84,7.38,1.77,14.6,4.25,22,5.87,9.43,2.06,18.59,1.53,26.56-4.9a2.2,2.2,0,0,1,.83,0A41,41,0,0,0,151.5,800h13.69v-2.22l0.22,0,0.21,2.25h2l1-.36,0.13,0.36H172a6.78,6.78,0,0,1,.4-2l1.25,2h13c-0.44-4.52.35-12.45,1.94-15.2q-0.41,7.64-.38,15.2H191c0-.54,0-1.07,0-1.61a181.78,181.78,0,0,1,6.92-45,231.5,231.5,0,0,0-4.4,46.58h2.16c0-3.36,0-6.73.06-10.09a5.15,5.15,0,0,1,.94-1.89c0.38,0.66,1.08,1.32,1.09,2,0.06,3.33.1,6.66,0.13,10h2.87V788.47c12.22,0.65,24.18-.13,36.34-4V800h2.5c-0.21-14.46,1.84-37.21,4.07-47.25,11.48-51.62,46.52-88.17,67.23-101.56-0.18.43-.37,0.86-0.55,1.29l0.32,0.38c1.57-1.35,3.2-2.65,4.7-4.08,0.81-.77,1.21-2,2.1-2.63a174.5,174.5,0,0,1,81.73-28.91,162.62,162.62,0,0,1,51.44,3.12c4,0.93,7.88,2.65,12.22,4.15l-3.21.43L473,629.41l0.28-.57-2.63-2c3.45-.43,20,6.52,26.13,11.32L485.92,634l-0.28.62c2.47,1.16,4.92,2.35,7.41,3.46,6.84,3.07,13.58,6.43,20.58,9.08,15.93,6,26.87,18.37,38.36,29.95a153.64,153.64,0,0,1,22.9,30.3c0.81,1.37.58,3.33,1.25,4.83,1.61,3.61,2.6,8.23,5.41,10.38,4.42,3.38,4.83,7.94,6.16,12.33,1.4,4.61,2.36,9.36,3.7,14.77l-1.34-.9,3.7,28.77,0.56,0v-8.81l1,0c1,8.34,3.85,16.49,1.93,25.15l-1-11.86c-0.06,6-.26,12-0.64,18h6.79c0.15-2.36.3-4.7,0.45-7.1l38.28-2.8c0.33,3.3.49,6.59,0.53,9.9h1.6c0-2.55.06-5.11,0-7.66-0.18-8.68-1.64-17.33-2.53-26a6.91,6.91,0,0,1,.1-3,69.32,69.32,0,0,0,1.68,7.49c3.25,9.56,3.61,19.34,3.46,29.16h3.39c0.23-5.35.44-10.71,0.59-16.06,0.08-2.9-.3-5.82-0.46-8.73a215.33,215.33,0,0,1,1.63,24.8h6.73c-0.33-1.42-.69-2.84-0.93-4.28a8.56,8.56,0,0,1,.14-2c1.86-.51,2.94-0.11,2.41,2-0.39,1.48-1,2.91-1.48,4.36h3.69a2.29,2.29,0,0,1-.55-1.07c-0.16-1.49-.05-3-0.05-5l2.8,0.28a37.38,37.38,0,0,1-.32,4.67,2.4,2.4,0,0,1-.72,1.1h2.32a0.84,0.84,0,0,1-.08-0.31,21.24,21.24,0,0,1,.37-4.53c0.11-.5,1.06-0.82,2.25-1.67-0.26,2.82-.33,4.55-0.62,6.24a0.86,0.86,0,0,1-.13.28h1.16l1.21-13.08L667,788.65a6.32,6.32,0,0,1-1-2.13c-0.15-3,2.24-4.7,5-3.43a2.94,2.94,0,0,1,1.06,2.22A108.59,108.59,0,0,1,671.9,800h13.64c0.26-7-.07-13.5-2.84-19.83a34.09,34.09,0,0,1,5.06,2.42c8.65,6,17.85,6.26,27.6,3.23a111.93,111.93,0,0,1,17.66-4.4c11.56-1.59,20.71,3.4,28.15,11.93,1.85,2.12,3.49,4.41,5.2,6.65h2v-0.4a13.47,13.47,0,0,1-1.56-2.11c-6-12.52-20.24-20.55-34-18.62a78.52,78.52,0,0,0-14.69,3.73c-10.23,3.55-20.07,3.18-29.79-1.67a68.09,68.09,0,0,0-7.65-2.78c-1.7,4.1-3.18,7.9-7.14,10.34-0.15-1.15-.22-1.85-0.32-2.55-0.66-4.54-.66-4.54-5.16-4.55H653.17c-4.83-50.74-23.39-95.61-55.4-135,2.28-2.12,4.37-4,6.43-6s4.23-4,6.34-6l-4.95-9.53,13,1c1.9-13.29,8.16-18.88,17.35-24.46,3.2-1.95,6.6-3.58,9.8-5.54,4.32-2.64,8.8-5.13,12.75-8.26,10.66-8.46,14.24-21.34,9.85-34.16a3,3,0,0,0-1.4-1.7c-17.24-7.05-34.29,1.81-41,12.37a81.32,81.32,0,0,0-5.59,10.11A36.68,36.68,0,0,1,597.53,595a51.11,51.11,0,0,0-6.42,3l2.34,11.45-1,.35a12.62,12.62,0,0,1-1.29-.61c-4.37-2.69-4.34-2.67-8,.8s-7.19,6.75-10.51,9.87C556,601.1,534.38,589.23,511.11,580s-47-15.84-72.91-15.61c0.66-4.5,1.18-8.58,1.87-12.62,0.56-3.29-.51-5.36-3.64-6.38-2.28-.74-4.58-1.41-7.41-2.27l10.08-8.74c-7.6-8.76-8-18.58-5.35-28.9,1.94-7.66,4.26-15.24,5.81-23,2.9-14.52-2.67-26.37-15.3-33.76a7.77,7.77,0,0,1-1.38-1.37h-1.83a13.52,13.52,0,0,1-1.94,1.36c-12.55,5.87-20.75,20.27-18.81,33.89a81.63,81.63,0,0,0,3.84,15.29,36.31,36.31,0,0,1-1.71,29.2,62.74,62.74,0,0,0-2.63,7.28l10.28,6.7-0.47,1c-1.28.2-2.56,0.44-3.85,0.59-2.1.25-3.12,1.07-3,3.5,0.3,5.67.23,11.36,0.38,17,0.05,2.05-.55,3-2.86,3.21a223.84,223.84,0,0,0-43,7.6,228.37,228.37,0,0,0-91.83,48.92,12.84,12.84,0,0,1-1.38.89l0.51-1.75-2.66-1.82,1.54-1.42-6.22-8.11-0.66.41v4.32l-1,.14-1.58-5.14-5.75,3.31L246.38,612c2.71-1.58,5.09-2.92,7.43-4.33,1.34-.81,2.27-0.68,3.34.58,2.82,3.33,5.78,6.54,8.72,9.76a15.82,15.82,0,0,0,1.84,1.51,1.8,1.8,0,0,0,0-1.76c-3.63-4-7.26-7.94-11-11.79a2.6,2.6,0,0,0-2.31-.1c-2.65,1.23-5.21,2.64-8.07,4.13l1-13.21c-10.57-.84-17.84-6.54-23.16-15.07-2.15-3.44-4-7.05-6.1-10.52-2.72-4.51-5.24-9.2-8.4-13.38-8.42-11.13-21.13-14.94-34.43-10.66a3.64,3.64,0,0,0-2.05,1.73c-6.76,15.79.87,34.85,15.17,42.45,2.77,1.48,5.46,3.14,8.33,4.41,10,4.42,16.27,12.07,19.77,22.28a55.56,55.56,0,0,0,3.08,6.47l11.74-2.46,0.33,1a32.22,32.22,0,0,0-2.56,4c-0.35.76-.44,2.2,0,2.67,4.84,5,9.82,9.8,14.94,14.84a228.84,228.84,0,0,0-38.33,64.09,249.74,249.74,0,0,0-16.9,74.1L179.19,779l0.17-1h6.9l0-1.07H167.56l-3,9.63-8.68-10.1c-10,8.85-21.24,7.62-32.79,4.43-6-1.64-11.91-3.34-17.94-4.65-16-3.48-29,3.34-35.06,15.4a5.44,5.44,0,0,1-1.22,1.2v1.83a13,13,0,0,1,1.38,1.9A34.36,34.36,0,0,0,72.1,800Zm609.5-18.31v10.66h-1C681.43,789.05,677,785.89,681.6,781.69Zm-14.06,7.23,0.7,0.69-0.43,3.13-0.94.39c-0.43-.84-1.21-1.71-1.16-2.52C665.75,790,666.89,789.48,667.54,788.92Zm-3.44,3.51c-1-.23-2.45-0.4-2.46-0.61a24.85,24.85,0,0,1,.42-4l2.33,1.24Zm0.48-8.92c0.57,4.12.35,4.51-2.53,4.3C660.94,783.87,661.29,783.3,664.58,783.5Zm-7.75.22h4.08l-1,8.06c-2.2.75-3.11,0-3.06-2.2C656.87,787.74,656.83,785.89,656.83,783.72Zm-2.53-.23a1.85,1.85,0,0,1,1.1,1.1c0,2.35-.24,4.7-0.39,7.05l-1.07.08c-0.22-2.48-.47-5-0.61-7.45A1.38,1.38,0,0,1,654.3,783.49ZM197,787.13c-0.32-.83-1-1.68-0.92-2.48,0.82-10.81,1.57-21.63,2.69-32.41,1.25-12.08,6-23.15,10.79-34.14a262.74,262.74,0,0,1,27.21-48.78c0.77-1.07,1.56-2.13,2.37-3.17a4.11,4.11,0,0,1,.69-0.58l0.46,0.38c-1.1,1.66-2.19,3.32-3.29,5a233.87,233.87,0,0,0-34.4,82.22c-2.21,10.37-3,21.05-4.47,31.58A9.2,9.2,0,0,1,197,787.13Zm41.88-19.51c-0.64,4.51-1,9.06-1.6,13.58-0.11.78-.88,2-1.46,2.1-11.24,1.38-22.5,2.63-33.76,3.88a6.19,6.19,0,0,1-1.56-.57l4.56-33L241.43,752C240.54,757.27,239.58,762.43,238.84,767.62Zm263-127.05,0.45-1.08c3.37,0.42,6,2.62,8.61,4.79Zm129-43.49c-5.39,4.83-10.81,9.65-16.1,14.59-0.85.79-1.1,2.22-1.61,3.31-2-1.39-2.06-3.23-.69-5.61,3.33-5.77,8.58-9.2,14.29-12.1,2-1,4.07-1.92,6.11-2.88l0.47,0.83C632.43,595.84,631.55,596.39,630.78,597.08Zm-2.08-3.33,3.43-3.62c1,3.12,1,3.12-2.6,4.28Zm19.11-11.67a47,47,0,0,1-13.21,10c-0.41-3.62.12-4.19,1.69-3.51l11.43-9.06,0.62,0.28C648.19,580.57,648.28,581.58,647.81,582.08Zm8.44-5.13,5.52-17.42c1.41-.48,1.66.17,1.61,1.49C663.14,567.33,659.88,572.21,656.26,577Zm-17.72-4.52c0-4.57.17-9.14,0-13.7-0.07-2.2.82-3.23,2.72-4,7.8-3.31,15.81-3,24.29-1.68l-3.81,6.49-1.71,1.3,0.46-5.43-0.77-.21-2.29,8.91-0.72-.07-1.32-10.57-0.85-.12a11.48,11.48,0,0,0-.8,3.13c0.11,3.18.31,6.36,0.72,9.51,0.45,3.5-1.47,5.64-4.18,8.18V558.61l-1-.06c-0.31,5.18-.58,10.35-1,15.52a19.47,19.47,0,0,1-.82,3.32l-0.93-.18v-22h-0.68c-0.19,7.07-.47,14.13-0.53,21.2,0,2.25-.72,3.62-3.52,4.33V556.85l-1.06,0c-0.25,3.78-.65,7.56-0.71,11.35-0.06,4.05.29,8.11,0.26,12.16a4.29,4.29,0,0,1-1.8,3.12C638.54,579.76,638.53,576.1,638.54,572.43Zm-13.11-2.8c3.37-4.81,6.48-9.71,12.18-12.8,0.06,1,.17,1.7.13,2.36-0.44,8-.88,16-1.4,24a12.14,12.14,0,0,1-.91,2.84l-1.51-.24V562.89l-1.18,0c-0.21,2.82-.51,5.63-0.61,8.45s0,5.68.06,8.53a46.19,46.19,0,0,0,.35,5.46c0.34,2.36-.91,3.26-3.63,4V568.84h-1.27c0,6.49,0,13,0,19.46a16,16,0,0,1-.71,3.25l-0.89-.17c-0.29-4.58-.54-9.15-0.9-13.73C624.9,575,623.4,572.52,625.42,569.63Zm-1.9,4.3c0.2,1.57.42,2.56,0.44,3.54q0.15,6.39.21,12.79c0,3.21,0,3.21-4.14,5C621.55,588.13,618.05,580.83,623.52,573.92Zm-4.11,22c-0.11,1.38-2,2.62-3,3.92l-1.2-.79c0.91-5.76-1-12.11,4.35-17.69C619.56,586.67,619.8,591.34,619.42,596Zm-8.58-3.23c0.13-1.72,2.35-3.29,3.62-4.93l0.82,0.44c-1.52,5.08,1,11.06-3.47,15.58C611.41,600,610.57,596.31,610.84,592.73ZM609,593c2.45,3.91,2.08,12.11-.51,15l-14.95-9.79Zm-16.17,19.17c-0.67,2.38,1.78,4.77-1.26,6.72C589.28,614,589.28,614,592.83,612.19Zm-5.32-4.25,3.53,3.2-2.47,1.55-2.37-2.61Zm-0.31,10.87a27.16,27.16,0,0,1-1,3.13,2.48,2.48,0,0,1-1.15-.6c-0.46-1.27-1.27-2.66.45-3.7,0.34-.2.64-0.46,1.31-0.94A6.83,6.83,0,0,1,587.21,618.82Zm-1-8.71c0.89,2.72,1.19,5.26-2.14,6.67C582.21,613.46,582.38,612.95,586.18,610.11Zm-163-81.7a14.27,14.27,0,0,1-.29-3.09l7.17,6.37C427.09,530.93,424.25,531.45,423.18,528.41Zm-2.58-22.18c3.25-5.87,2.83-13.2,7.69-18.43l0.85,0.37-7.31,18.56Zm0.62,8.88v5.33l-1.35-.16,0.3-5.22Zm5.24-54.17a5.73,5.73,0,0,1,1.83.53,36.57,36.57,0,0,1-.38,4.47C425.24,464.11,425.58,462.55,426.46,460.94Zm3.68,4.39-0.69,4.94,1.27-.23c0.22,2.27,1.6,4.8-2.2,6.9l0.95-6.64C427,468.82,427,467.28,430.14,465.33Zm-3.2-11.06,1.28-.31c1.42,4.43,3.07,8.8,4.21,13.31,2.18,8.59,1.93,17-2,25.21-4.14,8.61-6.93,17.55-5.06,27.32a3.74,3.74,0,0,1-.25,1.32l-0.85,0c-1.84-4-1.52-8.22-.46-12.27A153.32,153.32,0,0,1,428.93,493c4.78-12.48,5.42-24.65-1.78-36.52A5.47,5.47,0,0,1,426.94,454.27Zm-25.67,79.26c1.55-3.08,2.65-5.71,4.12-8.1a25.06,25.06,0,0,0,3-20.16q-1.7-6.62-3.59-13.19c-2.1-7.31-3.34-14.64-.82-22.11a34,34,0,0,1,10.81-15.38l0.3,1.77c1.86-2.14,3.57-4.71,5.86-6.56,2.47-2,3.76,1.26,5.57,2.15,0.37,0.18.22,1.43,0.31,2.19l-0.85.22L422.23,450l-0.48.36,3.4,5L422.79,459l0.09-.08,0,0h0l3.44-3,0.06,5c-1,1-2,.83-2.88-0.12l0,0h0c0.84,1.49.68,2.73-.5,4.19a67.58,67.58,0,0,0-7.47,11.28l9.1-12.25c2,1.7,1.42,3.09.05,4.67a73.43,73.43,0,0,0-8,10.73l10-11.47c0,4.56,1.6,8.46-.48,11.89-1.95,3.22-4.82,5.87-7.29,8.77l0.65,0.64,5.3-6,1.15,1-5.7,7.7,0.27,0.24,2.51-2.24c-1.93,7.09-3.7,14.15-8.93,19.6a5.71,5.71,0,0,0-1.26,1.6c-2.77,6.69-5.49,13.4-8.26,20.18a60,60,0,0,0,3.83-4.77c1.21-1.83,2.12-3.86,3.29-6C411.43,526.62,407.8,531.26,401.27,533.53Zm13.44-8.9a14.15,14.15,0,0,1-.83,3.88c-0.48.92-1.69,1.47-2.57,2.18l-1.15-1,5.73-9c2,3.69,2,3.69-.66,6v-2Zm0.68-9.2c1.23,3.38,1.23,3.38-1.9,6.71l-0.72-.36Zm2.55-7.23-3.78,8.63C412.9,512.29,413.66,510.58,417.94,508.21Zm-0.2,18,0.93,0.06c0.12,0.88.65,2.12,0.27,2.56-0.66.76-1.9,1-2.89,1.48l-0.65-.75Zm-13,17.63h9.84c0.55,2.85.56,5.41-2.85,7L411,545.12l-0.68-.06c-0.06,1-.2,1.94-0.17,2.91,0.1,3.34.34,6.68,0.32,10,0,0.8-.86,1.58-1.32,2.38l-1-.4-1.06-10.73-0.6,0c0.22,3.11.54,6.22,0.58,9.33,0,1-.72,1.93-1.12,2.89l-1.25-.48V543.79Zm7.38,14.68c-0.19-3.11-1.31-6,2.43-7.65C415.55,553.84,414.88,556.2,412.1,558.47ZM256.31,628.42l-0.87.21-1.89-7.4C256.82,622.87,257.32,624.52,256.31,628.42Zm-82.1-75.15,8.25,18.65C177.2,567.45,173.1,556.36,174.21,553.26ZM193,573.77l0.72-.27,3.32,7.45C193.93,579.57,193.5,578.66,193,573.77Zm39.49,45a42.32,42.32,0,0,1-4,2.7l-0.72-1.18,4.48-3.86C232.37,617.57,232.73,618.57,232.46,618.8Zm-8.67-3.94-2.33-7.46,0.71-.38,2,2.16c-1.52-3.33-.74-7.59-4.23-10.16-0.55-.41-0.53-1.66-0.68-2.54-0.18-1.12-.27-2.25-0.46-4l-2.62,2.4-2.09-4.52c-5.76.16-4-6.08-7.07-8.89l-0.65,3c-5.09-2.55-3.28-8.16-5.94-11.87L201,579l-0.66.4a41.14,41.14,0,0,1-3.51-5.56c-0.86-2-1.14-4.19-2.29-6.27V571l-0.9.26-4.07-9.71-0.64.1,2.18,13.9-0.75.24-3.95-13.15-1.21.25,1.13,7.53c-4.92-3.89-3.79-9.79-5.78-14.65v5.08l-1,.25-4.8-12.76c10.83-2.63,20.32-1.41,27.79,6.41,4.58,4.8,8.24,10.5,12.1,15.95,2.34,3.31,4.21,6.94,6.37,10.37,5.66,9,12.65,16.17,24.09,17.64C236.19,601.62,229.38,607.15,223.78,614.86ZM243.11,649c25.86-31.29,58.37-53.16,96.48-66.83-9.05,4.74-18.2,9.35-26.73,15l0.7,1.27c0.92-.48,1.86-0.93,2.76-1.44a251.19,251.19,0,0,1,60.79-25.25c14.53-3.79,29.48-5.56,44.61-3.91a8.5,8.5,0,0,0,3,.08c8.14-2.22,16.1.16,24.1,0.93,6.86,0.66,13.69,1.71,20.5,2.81a174.65,174.65,0,0,1,63.44,23,15.37,15.37,0,0,1,1.8,1.5l3.87,2.31c2.09,1.21,4.22,2.35,6.27,3.63a191.89,191.89,0,0,1,41.9,35.06c4.8,5.38,8.58,11.67,13.31,18.22l-1.26-3.63a226.8,226.8,0,0,1,45.66,94.46c-1.38-4.17-2.4-8.51-4.22-12.48-6.34-13.81-13-27.49-19.48-41.22-2-4.3-4.22-8.54-6.13-12.89A82.51,82.51,0,0,0,594.36,652a12.27,12.27,0,0,0-1.19-.91,0.61,0.61,0,0,0-.3,0c-1.85,2-1,3.68.52,5.57,4.74,6,9.3,12,13.94,18.08,0.67,0.87,1.39,1.7,2.09,2.55l1.08-.84-13.88-19.69,0.53-.59c0.55,0.72,1.06,1.47,1.65,2.15a98.13,98.13,0,0,1,16.91,28.27c2.61,6.59,6.08,12.84,8.68,19.43,3.37,8.56,6.22,17.33,9.35,26,0.72,2,2.08,3.81,2.51,5.84,1.47,6.85,2.65,13.76,3.6,20.71-12.69-58.16-41.55-105.84-90.11-140.93q82.14,65.74,91.66,170.52l-38.56,3.36-4.05-31.82L628.84,754l-0.26-1.5-30.32,5.25c-2.39-7.31-4.48-14.72-7.22-21.88a183.67,183.67,0,0,0-69.24-87.75,193.93,193.93,0,0,0-93.46-33.4c-51.56-4.59-96.67,11.68-134.76,46.64-25.32,23.24-41.82,52-50.52,85.21-0.59,2.25-1.39,3.39-3.94,3.52-10.33.53-20.65,1.29-31,2-0.68,0-1.37,0-2.69,0,2.23-7.84,4.07-15.4,6.52-22.76,15.61-46.83,42.35-85.62,83.34-113.83,27.17-18.7,57.28-30.26,89.81-35.4,49.49-7.82,96.82-1,141.67,21.58,7.14,3.6,13.85,8,20.76,12.1,0.93,0.55,1.83,1.15,2.75,1.72l0.48-.64c-1.13-.79-2.25-1.62-3.4-2.38a224.92,224.92,0,0,0-91.7-34.76c-45.83-6.75-90-1.14-132.16,18.37-9.19,4.25-18.56,8.55-26.78,14.35-10.79,7.61-20.51,16.72-30.69,25.2a4.63,4.63,0,0,1-2.34,1.31l3.39-4-0.32-.41c-0.84.67-1.7,1.31-2.51,2-18.67,16.19-32.81,35.88-44.25,57.61-9,17.08-15.63,35.17-22.45,53.18a8.31,8.31,0,0,1-1.34,2.6C204,711.25,219.16,678,243.11,649ZM185.72,787.4L183,782.93C186.79,782.84,186.87,784.35,185.72,787.4ZM174,777.88l3.43,0.3-0.7,5.18C175,781.74,172.25,781.17,174,777.88Zm-0.64,4.44c1.43,1.47,4.2,1.85,2.88,5.3C174.36,786.13,171.84,785.49,173.33,782.33Zm-0.52,4.92c1.65,1.14,4,1.8,2.21,5.11l-3.1-4.5Zm-12-2.05,3.67,4.26-0.91.74C161.23,789.67,160.18,788.11,160.84,785.19Z" transform="translate(-68.82 -244.83)"/><path class="cls-7" d="M85.77,797.09l-0.76.85L88.34,800h1.12Z" transform="translate(-68.82 -244.83)"/><path class="cls-7" d="M302.77,665.66h0l0.1-.1Z" transform="translate(-68.82 -244.83)"/><path class="cls-7" d="M259.2,718.32a9.53,9.53,0,0,0,.68-3.77c-7.9,14.9-11.7,31.15-15.29,47.43a164.13,164.13,0,0,0-4,38h3.32C244.13,771.91,249.54,744.78,259.2,718.32Z" transform="translate(-68.82 -244.83)"/><path class="cls-7" d="M666.15,800h1.72A4.18,4.18,0,0,0,666.15,800Z" transform="translate(-68.82 -244.83)"/><path class="cls-7" d="M727.93,793.49a47.71,47.71,0,0,0-5.18,5.29c-0.4.55-.66,0.94-0.9,1.22h9.42l-0.1-.1,3.71-5.27-0.66-.83-8.12,5.95-0.45-.29,3.25-5.11Z" transform="translate(-68.82 -244.83)"/><path class="cls-7" d="M663.13,800h1.62l1.32-2.51C664.51,797.67,663.83,798.89,663.13,800Z" transform="translate(-68.82 -244.83)"/><path class="cls-7" d="M703.29,793.9l-5.8,6.1h21.39l6.31-8.84-1-.78c-2,2.38-4.24,4.65-6.05,7.19-1.51,2.12-3.1,3.08-5.86,1.8l3.78-6c-2.3.58-3.79,0.37-4.18,3-0.22,1.45-1.51,3.94-4.57,3l4.48-6.07-0.87-.8a63,63,0,0,0-4.57,5.07c-1.39,1.89-3,2.57-5.36,1.77l2.85-4.89Z" transform="translate(-68.82 -244.83)"/><path class="cls-7" d="M245.33,800h3c-0.06-3.81-.08-7.61,0-11.42,0-1.28,1.91-2.51,2.94-3.77l1.1,0.72L248.56,792l3-2.09,0.71,0.44L249,796.18l3.59-1.47L249.21,800h51.51l1.29-.2c-5.63-1.46-11.67-.32-17.18-2.43l0-.81h7.84l0-.92-8.08-.46,0-1.13h50.41q0-.7,0-1.4H287.47l0-.76,4.27-1.48-2.62-.73L289,789l15.8-1.33c-8.69-2.18-17.27-.9-25.82,1l-0.22-1c4.17-1.06,8.28-2.64,12.51-3.07a85.47,85.47,0,0,1,45.12,7.2,4.24,4.24,0,0,1,2.08,2.88c0.19,1.75.26,3.51,0.29,5.27h2.54l-1.57-17.44-1.27.05V790l-4-1.58c-18-7.13-36.42-9.53-55.4-4.59a82.4,82.4,0,0,0-9.45,3.32,16.08,16.08,0,0,0-3.07,2.26l-1.92-11.87H249.23c4.7-35.54,18.78-66.43,41.85-94.24l2.5,4.45-0.69.56-3.9-2a18.65,18.65,0,0,0,1.84,2.73c3,2.85,6.06,5.69,9.23,8.38a2.74,2.74,0,0,0,2.47-.19c1.69-1.09,3.2-2.44,5.16-4,0.37,1.58.62,2.81,0.94,4,4.4,17,15.08,29.14,29.54,38.28,3.83,2.42,8.17,4,12.23,6.06,1.77,0.89,3.44,2,5.82,3.33l-3.87,3.26,11.2,12.63c-2.61,6.19-5.08,12.15-7.7,18a3.09,3.09,0,0,1-2.25,1.24c-3.63.34-7.28,0.47-10.92,0.74A5.19,5.19,0,0,0,339.8,782H355l-1.57,9.82-0.46,0-0.39-4.35-0.76,0V800h9.3a85.14,85.14,0,0,1,1.63-22.17l-2,5.37c0.32-8.3,5.33-13.51,8.78-19.53-2.75.7-2.59,5.36-6.66,4.68,1.42-4.62,4.34-8.19,7.56-11.27,5.46-5.24,10.8-10.59,17.5-14.48,32.35-18.78,71.91-7.29,88.87,26a25.37,25.37,0,0,1,1,2.81,47.34,47.34,0,0,1,5.79,23c0,1.86-.09,3.72-0.23,5.58h10.07a40.16,40.16,0,0,1,.36-4.06c0.72,0.4,2,.7,2.05,1.22A12.7,12.7,0,0,1,496,800h1.72c-0.74-3-.06-4.1,2.25-4.42L498.9,800h7.31c-0.58-.1-1.16-0.18-1.74-0.29a63.85,63.85,0,0,1,.07-6.5,3.59,3.59,0,0,1,1.58-2.52c21.59-10.56,42.58-10.15,62.65,3.84a4.66,4.66,0,0,1,1.37,3.52c0,0.73-.06,1.36-0.09,1.95h2.63a2.09,2.09,0,0,1-.18-0.6c-0.07-.53.89-1.18,1.38-1.78L575,800h1.51l1.29-2.2c0.53,0.62,1.45,1.2,1.53,1.88,0,0.12,0,.22,0,0.32h5.38c-0.39-1.35-.51-2.75,2.57-2.22L586.73,800h2.19a42.5,42.5,0,0,0-1.74-14.43c-2.87,2.09-5.68,1.93-6.83-.63,3,0,5.91-.09,8.77.09a2.48,2.48,0,0,1,1.26,1.94q-0.06,6.52-.19,13h3.13c0-2.52,0-5-.05-7.57a173.62,173.62,0,0,0-16.09-68.52c-0.55-1.18-.93-2.44-1.39-3.66l-6.17-11.63c-4-5.8-7.9-11.74-12.19-17.36-3.86-5.06-8.19-9.77-12.31-14.64l0.12,0.12-0.12-.11h0c-23.6-24.48-51.95-40.75-85.06-48.43a218.45,218.45,0,0,0-28.19-4.48,169.49,169.49,0,0,0-58.61,5c-0.46.12-1,.16-1.87,0.31,5.2-3,25-5.86,34.91-6.41-9.22-.92-28.17,1.83-41,6a117.18,117.18,0,0,0-27.8,12.84c-5.73,3.7-11.14,7.88-16.73,11.79-6,4.18-12,8.29-18,12.43-2.63,2.69-5.29,5.35-7.89,8.07-2.46,2.56-4.86,5.18-7.59,8.1l0.43-2.23c-4,2.13-17.92,21-22.72,31.3l6.94-9.4Q244.36,748.84,245.33,800Zm110.51-64.72c-11.23-5.92-19.62-14.8-26.91-25.17,0.83,1.67,1.63,3.35,2.49,5s1.69,3.09,2.53,4.63l-0.91.56-4.7-5.23-0.7.47a52.28,52.28,0,0,0,3.27,5.38c1.42,1.83,3.17,3.41,4.87,5.2-3.06-.72-9.91-6.35-13.75-12.19-3.36-5.12-6-10.71-8.67-15.54l1.64,8.24-0.61.26c-2-4.53-4-9-5.86-13.61-0.15-.36.54-1.21,1-1.64,2.93-2.66,5.86-5.33,8.9-7.86A3.21,3.21,0,0,1,321,683c12.35,4.57,24.24,9.92,33.21,20.1a68.25,68.25,0,0,1,14.87,27.23c-3.25,1-6.66,1.38-8.83,4.32a1,1,0,0,1-.53.06l0.24-.62c-5.37-.59-8.58-4.62-11.94-8.06-3.08-3.16-5.46-7-8.26-10.45C343,723.88,348.84,730,355.84,735.28Zm-44.12-54.76,3.8,3.33-1.28,1-1.61,1.28C310.29,684.45,310.27,684.32,311.72,680.52Zm0.3-6.35c3.15,1.25,1.82,3.65,1.87,5.88C310.37,678.82,312,676.34,312,674.17Zm3,3.07,3.1,1.59V673.6l2.65,1.41a13.26,13.26,0,0,1,1.52-1.35,5.65,5.65,0,0,1,1.42-.48c0,0.58.3,1.38,0,1.72-2.26,2.76-4.63,5.44-7,8.15l-1.24-.39Zm42.85,68.13,1.88-2.06,7.33,6.92C364.33,752,364.3,752,357.86,745.37Zm10.3,4.27-7.9-6.84,3.46-3.3,6.95,7.83Zm3.3-3.8-7.13-6.93,1.91-2.08,7.38,7Zm3.45-3.36-7.46-6.94c1-1,1.61-1.78,2.32-2.48,0.48-.48,1-0.89,1.5-1.29l6.35,8.49Zm9.56-3.8c-0.76-.17-1.65-0.68-2.27-0.46-3.15,1.12-5-.67-6.73-2.78-1.19-1.47-2.21-3.09-3.54-5l2.1-1.52c2.95,2.42,5.93,4.81,8.83,7.3a12.15,12.15,0,0,1,1.7,2.37l2.81,0.76-2.75,1.15ZM410,727.33c-1.78-.86-2.21-3.75-1.91-11.57C410.06,716.08,410.7,719.77,410,727.33Zm4.16-2c0,0.65-.8,1.28-1.22,1.92-0.48-.59-1.31-1.13-1.38-1.77-0.35-3.18-.5-6.39-0.74-9.82l3.4,0.15C414.19,719.17,414.26,722.27,414.13,725.36Zm14.46,1-1.14-9.24-1.06.14,1.15,9.75a43.09,43.09,0,0,1-6.49-.12c-0.71-.11-1.59-1.52-1.74-2.45-0.4-2.44-.45-4.93-0.64-7.41l-1.25.17c0.2,2.46.52,4.93,0.54,7.39,0,0.82-.79,1.64-1.22,2.46a6.48,6.48,0,0,1-1.31-2.19c-0.33-2.9-.44-5.83-0.64-8.85a11.72,11.72,0,0,1,1.6-.4c6.23-.58,6.21-0.57,6.51,5.61a10.54,10.54,0,0,0,1.08,4.53V715.9l6-.43C429.89,719.21,432.65,723,428.59,726.41Zm3.68-7.41-0.3-3.41,3.06-.2C434.87,717.34,435.39,719.43,432.27,719ZM454,739.92q5.85-4.9,11.72-9.8a16.48,16.48,0,0,1,1.64-1.07L468,729.5a9.15,9.15,0,0,1-1,1.92c-2.32,2.8-4.72,5.55-7.07,8.33C458.11,741.91,456.32,742,454,739.92ZM467,745.81l-3.53-2.12L471,735c-2.57,2.25-5.08,4.57-7.74,6.7-0.71.57-1.87,0.56-2.83,0.81l-0.25-.87,8.63-10.8,2.75,3.6,7.46,6.44-5.7,4.51C471.2,742.71,471.2,742.71,467,745.81Zm12.4-13-0.75-.55c0.38-.65.6-1.62,1.16-1.9a129.71,129.71,0,0,0,29.46-20.7,2.15,2.15,0,0,1,.78-0.26C502.09,720.18,491.07,726.93,479.44,732.84Zm35.9-20.78c-5.55,6-11.54,11.11-18.65,14.7l-0.47-.6a14.51,14.51,0,0,1,1.69-1.5c4.84-3.12,8.3-7.62,11.94-11.93C512.07,710.11,512,710.08,515.34,712.06Zm-34.58,16.57-0.46-.59,20.89-20c-4.09,3.44-8.22,6.84-12.27,10.34-2.57,2.23-5,4.61-7.67,6.77,4.21-8.55,10.72-15.27,17.46-22.56l4,3.69,4.37,1.15,0.24,1.05Zm-2.2-4.21a0.44,0.44,0,0,1-.08-0.33c5.14-7.4,8.62-16.06,16.17-21.65a8.67,8.67,0,0,1,2.49-.81Zm-5,24.21,6-6.73,2.41,2.4-5.65,6Zm8.94-3.6,3.14,2.83-7.75,6.78C477,750.11,480.65,748.29,482.48,745Zm10.79,39.78c1.11,0.26,2.44.2,2.72,0.72a3.61,3.61,0,0,1-.09,2.84c-0.22.48-1.38,0.52-2.42,0.85Zm1.33,9.07c-0.41-.67-1.22-1.41-1.12-2a7.19,7.19,0,0,1,1.5-2.32l1.59,1.13Zm7.73-6.66-0.67,0-0.67-3-0.52,0v9.71l-1,.59c-0.7-.72-1.7-1.32-2-2.17-0.64-1.65,0-2.74,2.46-2.5-3.35-1.55-3.64-3.75-.36-6.13-2.42-.14-4.09-0.15-5.74-0.36-1.38-.17-3.37,1.45-4.2-1.36h13.47Zm47.6-101c23.41,28.27,36.76,60.25,40.24,97H578c-6.4,0-6.4,0-7.13,6.45-0.09.8-.28,1.58-0.5,2.83a58.21,58.21,0,0,0-32.22-11.71,54.67,54.67,0,0,0-33.59,9.35c0-2.47-.11-4.41,0-6.34,0.18-2.65-1.12-3.69-3.58-3.68-4.77,0-9.55-.1-14.31.11-2,.09-2.77-0.47-3.47-2.31-1.94-5.1-4.17-10.08-6.62-15.92,2.94-2.76,6.38-5.9,9.72-9.14s3.39-3.81.4-7.43c-0.7-.84-1.36-1.72-2.14-2.71,22.88-7.27,39.83-20.38,46.69-45.08l-2.72.89-0.59-2.31c-2.17,5.89-5.38,10.33-10.15,13.5a1.55,1.55,0,0,1-.89-0.12l7.56-12.82-1.23-.74c-0.73,1.3-1.41,2.62-2.18,3.89-1.54,2.5-3.08,5-4.74,7.43a6.53,6.53,0,0,1-2,1.31l-0.67-.85,6.15-9.82-0.49-.52c-2.51,2.29-5.09,4.5-7.51,6.88-1.46,1.45-2.7,1.67-4.49.52-2.86-1.84-5.89-3.42-9.49-5.48l22.26-14,13.14,14.21c4,4.36,5.19,4.33,9.37-.16,2.21-2.38,4.47-4.71,6.7-7.07,2-2.16,1.94-2.52-1.33-3.34Zm-27.55-6.71,1.75,5.43,1.77-2.7,1.06,0.2,0.57,6.48-1.08.31-6.89-7.36Zm-3.89,1.24-3.41-3.05,3.37-2.65C519.16,677,520.58,678.65,518.48,680.77Zm5.59-5.09-1.06-.1c-1.67-3.72-1.67-3.72,1.4-5.65Zm1,0.69c0.53,2.3,1.83,4.19-.74,6.63C524.38,680.42,522.28,678.49,525.06,676.36ZM542,678.5l0.88,0.05c-0.23,1.76,1.78,3.76-.88,5.82V678.5Zm1.71,7.06v5.29l-1.31-.13,0.27-5.2Zm-9.86,2.67,1,0.1,1.09,5.13,0.59,0.59,1.41-3.24,2,4.81,5.19-3.46,0.62,0.81-7.41,8.5c-4-2.57-8.08-7.93-7.21-9.77l1.46,2Zm-2.52-13.77-1.86-8.19C532.38,668.09,533.09,670.81,531.3,674.47Zm-4.91-2.13c-2-2.55-1.3-4.39,1.53-6.17C528,668.49,529.35,670.64,526.4,672.34ZM437.31,642.7c0.47-5.14.63-10.3,0.94-15.91,33.18,3.21,62.34,15.79,88.33,36.57l-13,14,5.15,6.88c-2.17,1.25-4.23,2.64-6.45,3.67-18.15,8.44-31.86,21.39-40.42,39.61-0.3.63-.61,1.26-0.93,1.9-4.33-2.66-5.67-2.64-9.65.94-3,2.71-6.66,5-7.39,9.52-5.28-2.26-10.59-4.45-15.78-6.88-0.75-.35-1.28-1.87-1.33-2.87-0.24-5.25-.3-10.52-0.43-15.78a4.52,4.52,0,0,0-.3-1l-4.7-.67c10.17-21.28,12.45-42.86,4.05-63.94C436.23,646.17,437.15,644.47,437.31,642.7Zm-9.17-3.31,0.81,0.3-1,3.54,2.43,0.8h-7.24Zm-15.1.52,1.53,3.05,6.6-5.47,1,6.77c-2.71,0-5.23.12-7.73,0S411.5,643.07,413,639.91Zm0.84,6.78c5.87-.14,11.74-0.07,17.41-0.07,3.75,7.76,1.09,15.43,1.86,22.87l-1.59-3.72-0.76,0c-0.43,10.19,2.08,20.59-1.7,31.16l-1.31-13.51-1.25,0v18.15l-1.13,0-2.55-18.77-0.71,0-1.36,22.4-0.25.09c-0.52-2.63-1.19-5.24-1.5-7.9-0.34-2.91-.3-5.86-0.48-8.79s-0.39-5.6-.59-8.4h-0.77v29.89l-1.24.09-3.76-33.46h-0.27v25.07c-5.11-10.64-4.32-22.44-4.25-34.14l-0.81-.09c-0.53,3.9-1.27,7.78-1.53,11.7s-0.06,7.85-.33,11.85c-0.29-2.76-.81-5.51-0.84-8.27-0.14-12.06,3.07-23.45,7.31-34.59A3.17,3.17,0,0,1,413.88,646.69ZM406.67,636l1.54,8.68c-1-.09-2.39.07-2.53-0.27C404.59,641.68,405.07,639,406.67,636Zm-5.92-8.11c0.27,4.5.56,9,.8,13.58,0.25,4.76.33,4.84,5.06,4.76,0.89,0,1.78.11,2.93,0.19-13.43,22-10.88,44-.86,66.21l-5.42,1.22c-0.23,6.09-.39,12-0.75,18a3.22,3.22,0,0,1-1.87,1.91c-4.32,1.89-8.69,3.71-13.1,5.55a37.17,37.17,0,0,0-2.18-3.14c-2.14-2.44-4.34-4.83-6.52-7.24-3.56-3.92-3.72-3.93-8-.11a75.92,75.92,0,0,0-18.16-30.49c-8.6-8.74-18.63-14.94-31-16.48l4.73-8.91L313.83,663l-0.56.45,1.91,3.84-0.69.54-3.82-3.51C326.85,648.85,382.51,626.29,400.75,627.88Zm-94.42,45.35-1.16-5.58C308.13,669,308.22,669.36,306.33,673.23Zm0.52,7.61-1.22.15v-7.28C308.3,676,306.6,678.56,306.85,680.84Zm-1,1,1.37,5.85,0.88-3.47,3.66,2.54-3.62,3.47C304.28,688.44,303.91,685.53,305.88,681.85Zm-1.78-11.58-0.71,8.09-0.8-.07C303.31,675.64,301.21,672.73,304.11,670.27Zm-4.32,7.47h0.53v5.88h-0.53v-5.89Zm3.28,15.79L302,688l5.36,3-6.22,4.73c-1.8-2.51-6.53-3.58-7.68-8.86Zm-39.41,86.25-3.8,3.38C259.14,780.2,260.26,778.91,263.66,779.78Zm-0.93,2.63c1.22,2.19,1.22,2.19-2.51,4.83l-0.77-.57Zm-13.66-3.84,4,0.37-3.52,6.88-1.11-.32Z" transform="translate(-68.82 -244.83)"/><path class="cls-7" d="M360,734.13h0Z" transform="translate(-68.82 -244.83)"/></svg>
