<svg id="Objects" xmlns="http://www.w3.org/2000/svg" viewBox="0 0 459.71 379.27"><defs><style>.cls-1{font-size:52.81px;font-family:Dry Brush;}.cls-1,.cls-4{fill:#fff;}.cls-2{letter-spacing:1px;}.cls-3{letter-spacing:2px;}</style></defs><title>montagnes</title><text class="cls-1" transform="translate(91.37 42.09)"><tspan class="cls-2">m</tspan><tspan x="44.18" y="0">o</tspan><tspan class="cls-2" x="71.33" y="0">n</tspan><tspan x="99.32" y="0">t</tspan><tspan class="cls-2" x="118.2" y="0">a</tspan><tspan class="cls-2" x="149.18" y="0">g</tspan><tspan class="cls-2" x="179.1" y="0">n</tspan><tspan x="206.69" y="0">e</tspan><tspan class="cls-3" x="235.07" y="0">s</tspan><tspan x="5.83" y="58">c</tspan><tspan x="31.88" y="58">o</tspan><tspan x="58.64" y="58">l</tspan><tspan x="74.52" y="58">o</tspan><tspan class="cls-2" x="101.41" y="58">s</tspan><tspan class="cls-2" x="127.99" y="58">s</tspan><tspan class="cls-2" x="154.35" y="58">a</tspan><tspan x="185.37" y="58">l</tspan><tspan x="200.86" y="58">e</tspan><tspan class="cls-3" x="229.24" y="58">s</tspan></text><path class="cls-4" d="M451.73,616.23a9.67,9.67,0,0,1,3.87-7.68c-1.8-3-1.91-4.77-.64-8.42,2.21,0.73,2.21.73,2.88,3.38l3.29-.25a2.1,2.1,0,0,0,0-1.08c-0.81-.91-1.74-1.71-2.6-2.58s-1.42-1.95,0-3.49l6.4,6.68c1.7-1.7,3.42-1.42,4.94.14,1.23,1.26,3,2.44,3.42,4,1,3.37,3.66,4.43,6.52,6.19,0.21-3-4.09-3.31-3.08-6.51,3.5,1.14,6,3.83,9.19,5.27-1.19-1.82-2.25-3.6-3.48-5.25a7.08,7.08,0,0,0-2.41-2.11c-3-1.47-5.52-3.84-9.1-4.47-1.36-.24-2.85-2.54-3.39-4.2-2-6-5.73-10.85-9.76-15.41-2.09-2.36-3.37-5.73-6.84-6.79a2,2,0,0,1-.66-1c-1.29-2.46-2.56-4.94-4-7.64a9.81,9.81,0,0,0-1.67,1.12c-1.37,1.55-2.78,1.2-3.78-.2-2.3-3.19-5.83-4.84-8.67-7.33a23,23,0,0,1-3.06-4.11q-2-2.8-4-5.61c1.6-1.18,1.6-1.18,4.48-.61,0.09-.62.47-1.39,0.23-1.82a21.05,21.05,0,0,0-12.2-9.93c0.65,1.29,1.21,2.28,1.66,3.32,1,2.36,2.2,4.62,1.53,7.43-0.31,1.32.32,2.85,0.58,4.61l-4.62.49c-1.21-1.81-2.45-3.59-3.59-5.41s-2-3.48-3-5.18c1.17-1.92,2.31-1.45,3.21-.07,1,1.62,2.45,2,4.42,1.65,0-2.38-.86-3.88-3.38-4-2.29-.12-4.7-1.63-6.83.74a2.59,2.59,0,0,1-2.48-.11c-2.57-2.15-5-4.5-7.38-6.73,1.64-3.31,4.23-1.11,6.07-1.94,2.79-1.25,2.85,3.06,5.39,2.86,0.94-1.61-.15-2.88-0.68-4.16-1.28-3.1-2.27-6-1.9-9.66s-1.47-7.93-2.28-11.91a59.13,59.13,0,0,1-1-6,2.92,2.92,0,0,1,.61-2.28c3.66-2.59,2.08-6.11,1.68-9.31-0.23-1.8-1.67-3.55.44-5.14a0.82,0.82,0,0,0,.14-0.76c-1.62-3.4-1.79-7.44-4.76-10.27s-6.29-5.69-7.22-10.17c-0.37-1.78-1.79-2.58-3.67-2.67-1.61-.08-3.21-0.42-5.07-0.69-0.24-2-1.4-3.85,1.08-5.68,0.63-.46-0.22-2.93-0.42-4.76-1,.35-1.52.49-2,0.69-1.75.75-2.65-.06-2.86-1.7a25.72,25.72,0,0,1,0-3.67c0-1.33,0-2.67.12-4,0.09-.88.18-2.06,0.74-2.52,1.56-1.29,1.53-2.78,1.1-4.44-0.88-3.39-1.78-6.76-2.73-10.38a7,7,0,0,0-5.78,4.32,21.74,21.74,0,0,1-9.42,10.42c-4.48,2.66-8.73,5.59-11,10.65a8.61,8.61,0,0,1-2.55,2.59A249.52,249.52,0,0,0,318.05,487c-1.7,2.09-3.86,3.8-5.7,5.79a28.9,28.9,0,0,0-2.31,3.26l0,0a23.1,23.1,0,0,0-7.19,12.1,11.44,11.44,0,0,1-3,5.15c-3.81,4.05-8.36,7.43-11.14,12.46-0.81,1.46-2.52,2.42-4.09,3.86a22,22,0,0,0,1.6,2.67q10.93,13.53,21.91,27a8.65,8.65,0,0,1,1.55,2.4c2.28,6.45,6.89,11,12.09,15.08,2.66,2.1,5.07,4.53,7.58,6.82a2.59,2.59,0,0,1,.78.94c1.76,5.32,6.33,8,10.32,11.3a202.81,202.81,0,0,1,21.91,20.86c4.2,4.63,8.13,9.61,13.59,13a2.81,2.81,0,0,1,1.22,1.58c0.66,3.08,3.06,4.66,5.19,6.6,5.21,4.75,10.26,9.69,15.58,14.75-1.95,2.12-3.67,1.85-5.35.69-3.8-2.62-7.55-5.33-11.3-8a101.28,101.28,0,0,0-8.29-5.9c-6.87-3.93-13.87-7.61-21.71-9.41a35.34,35.34,0,0,1-8-3c-6.2-3.16-13-4.07-19.64-5.51a41.09,41.09,0,0,0-15-.45c-4.09.6-8.36,0.07-12.55-.14a4.26,4.26,0,0,1-2.35-1.4A21.12,21.12,0,0,1,291,616c-2.42-3.73-5.27-6.81-9.67-8.34-2.12-.74-3.3-2.71-3.56-5.12a9.64,9.64,0,0,0-3.6-6.69c-3.39-2.68-4.48-6.78-6.32-10.35-0.7-1.36.11-3.67,0.65-5.42,0.33-1.08,1.45-1.92,2.38-3.08l-3.5-4.82c1.72-2,3.72-3.53,2-6.34,3.28-.86,4-2.77,3.53-5.4-0.39-2.18-.62-2.45-4.52-3.57,1.6-2.86.21-5.29-1.18-7.73a4.72,4.72,0,0,1-.65-1.5c-1.19-7.47-5.06-13.7-9.16-19.83A5.36,5.36,0,0,0,256,526a21.83,21.83,0,0,0,.42,2.8c0.8,2.85,1.63,5.69,2.59,8.48a5.52,5.52,0,0,0,1.56,1.82c0.58,0.56,1.51.91,1.81,1.57,0.55,1.2,1.41,2.89,1,3.8-1.43,2.93,1.83,7.06-2.3,9.09l-5.49-1.38,1.3-2.53c-0.14-.58-0.78-1.7-0.55-2.58,0.7-2.63-.52-4.33-2-6.26a41.42,41.42,0,0,1-3.83-6.59,3.88,3.88,0,0,1-.18-2.39c0.36-1.69.95-3.34,1.4-5,0.4-1.49.75-3,1.18-4.76a8.42,8.42,0,0,0-5.1,2.38,79.72,79.72,0,0,0-16.5,18c-2.29,3.48-5.61,6.28-8.38,9.46a20.31,20.31,0,0,0-3.36,4.55,18.89,18.89,0,0,1-8.76,9.33c-3.63,1.87-7,4.21-10.49,6.34a4.51,4.51,0,0,0-1,.74q-4.79,5.25-9.56,10.53a4,4,0,0,1-.54.61c-4.26,3.07-5.93,8-8.67,12.15-2.64,4-5,8.19-9.67,10.27a27.18,27.18,0,0,1-9.54,2.48,6.25,6.25,0,0,1,.44-2c4.68-5.86,9.29-11.78,14.14-17.49a134.11,134.11,0,0,1,9.31-9.75c7.47-7.19,15-14.27,22.58-21.4a3.77,3.77,0,0,0,.86-0.88c2.41-4.8,6.62-7.87,10.6-11.18a18.09,18.09,0,0,0,4.71-6.55c1-2.25,3.1-4,4.79-6s3.29-3.6,5-5.33c2.3-2.31,4.38-5,7.07-6.73,7-4.48,12.74-10.24,18.08-16.49a14.6,14.6,0,0,0,1-1.61A37,37,0,0,1,275,517.33c1.63,2.64,3.45,5.16,5.54,8.25,5.32-4.42,10.27-8.4,15-12.58a13.28,13.28,0,0,0,2.58-4.13c1.59-3.17,3.09-6.38,4.58-9.6,1.8-3.9,5.33-6.18,8.36-8.88a27.23,27.23,0,0,0,7.13-9.33c2.89-6.51,8.06-11.29,12.89-16.3,2.65-2.74,5.41-5.38,8.08-8.1,8.13-8.28,16-16.8,25.23-23.94a9.25,9.25,0,0,0,2.54-2.64c1.91-3.52,5-5.73,8.23-7.78a24.57,24.57,0,0,0,3.22-2.52c4.18-3.74,7.29-3.68,12.12-.69,4.32,2.67,7.32,6.4,10.38,10.27C406.19,436,411.62,442.47,417,449c3.74,4.52,7.48,9,11.35,13.43a60.94,60.94,0,0,0,6.14,6c4.63,4,8,8.87,11.36,13.89a43.38,43.38,0,0,0,4.12,5c2.41,2.68,4.46,5.45,4.54,9.31,0,2.14.22,2.14,2.58,4.27,3.75-3.07,7.48-6.15,11.26-9.18a6,6,0,0,1,2.15-1.15c3.09-.82,6.23-1.44,9.3-2.3,3.33-.94,6.15,0,8.83,1.92A107.1,107.1,0,0,1,506.41,507c2.4,2.78,4.47,5.85,6.86,8.65,2.64,3.1,5.22,6.21,9.27,7.82a13.54,13.54,0,0,1,4.91,4.18,55.43,55.43,0,0,0,14.14,12.74c5.31,3.25,9.45,8.42,14.06,12.8a5,5,0,0,1,1.25,2.09c1.4,4.51,4.18,8.17,6.84,12a21.58,21.58,0,0,0,7.67,7.17,15.41,15.41,0,0,1,5.94,6c2.68,4.27,5.56,8.42,8.4,12.59a10.82,10.82,0,0,0,1.51,1.34c2,2,4.36,3.8,6,6.09A90.92,90.92,0,0,0,606,614.22a18.41,18.41,0,0,1,4.11,5.06A84.12,84.12,0,0,0,620.34,635a8.92,8.92,0,0,1,.65,2.32c-2.79-2.22-4.86-3.85-6.91-5.5-0.8-.64-1.43-1.83-2.68-0.54a2,2,0,0,1-1.4-.51c-3.22-2.81-7.12-3.89-11.18-4.71a5.67,5.67,0,0,1-2.71-1.73c-2.32-2.46-4.43-5.11-6.78-7.54a6,6,0,0,0-3.08-1.65,31.32,31.32,0,0,0-5.15-.07l-0.4,2.72-10.41-.83c1.68-2.65,3.1-4.5,5.72-4.93,1.26-.21,3.33.4,3.11-1.51-0.15-1.3-1.65-2.73-2.91-3.52a15.82,15.82,0,0,0-4.85-1.59,13.39,13.39,0,0,0-3-.12c-0.91,0-1.82.06-2.73,0.08-1.07,0-2.28-.31-3.17.1a4,4,0,0,1-4.84-1.1c-1.93-2.28-4.07-3.84-7.2-4.09,0.64-2.58.36-5.12,2.9-7-3.37-1.78-6-4-9.69-3.58-1.71.18-2.38-.58-2.8-2.19a18.71,18.71,0,0,0-2-3.78l-2.49-4.61-5.17-.82,2.18-2.65a3.15,3.15,0,0,0-.21-0.56c-1-1.76-2-3.47-2.88-5.29-1-2.12-1.55-2.45-3.76-1.6-2,.76-4,1.53-6,2.28-2.33.87-3.53-.71-4.76-2.21-0.69-2.56-1.38-5.13-2.07-7.69-1-3.68-1-3.68,2.66-6.47l3.56,3.45c0.73,2.44,1.35,4.92,2.27,7.29a1.45,1.45,0,0,0,2.57.58l-4.88-7.83c-0.46-1.42-.91-2.84-1.39-4.26a2.67,2.67,0,0,0-2.62-2.15c-2.39-.06-4.77-0.22-7.16-0.34a23.2,23.2,0,0,1,.56,4.79c-0.5,5.65,1.71,9.77,6.53,12.6,0.38,4.87,2.56,9.16,4.44,13.53a7.37,7.37,0,0,0,2.09,2.43c0.94,0.8,8.91,2.43,10.3,2.6a4.41,4.41,0,0,1,2.53,1.47c0.25,0.29-.45,1.39-1,2.85a34.16,34.16,0,0,0,11.95,13.12c9.25,5.95,17.19,13.41,25.21,20.82a30,30,0,0,0,7.4,4.94,11.3,11.3,0,0,1,5.13,5c1.31,2.3,2.77,4.51,4.31,7-0.73,1.28-3.1,1.87-4.86,1.77-3.22-.18-5.4-2.28-8-3.52-2.82-1.32-5.87-2.17-8.79-3.3a63.39,63.39,0,0,1-7.52-3.19,33.33,33.33,0,0,0-21.83-3.52,20.47,20.47,0,0,1-12.35-1.62,36.32,36.32,0,0,0-6.2-2c-3.24-.85-6.5-1.08-9.31-3.64-2-1.8-5.12-2.44-7.86-3.19-1.3-.35-2.92.58-4.3,0.34a51.81,51.81,0,0,1-6.54-2.06,2.94,2.94,0,0,1-4.29.64c-1.14-.73-2.49-1.12-3.67-1.8-3.15-1.8-6.4-2.31-9.79-.8a6,6,0,0,1-5.51-.31c-2-1.07-4-2.49-5.88,2.47l-3.27-5.27c-2.14,1.41-3.08,4.39-6.11,3.8A5.77,5.77,0,0,1,451.73,616.23ZM287.89,573.15a9,9,0,0,0-5.73-5.75c-1.85-3.68-3.55-5.33-6.4-6l2.43,3.1a7.62,7.62,0,0,0-.95,1.81c-0.45,2.15-1.21,4.42.11,6.43,0.52,0.79,1.61,1.39.71,2.26-0.41.39-1.63-.08-2.48-0.15-0.36,0-.72,0-1.14,0,0.14,3.36,2.25,4.47,4.86,5.11,0.93-1,1.58-2.31,2.58-2.74s2.18,0.16,3.35.3c-1.32-3.52-2.94-6.55-7-7.06l2-4.56,2,1.42,5.75,5.73c0.89,1.56,2,2.87,4.25,2.56Zm178.7-68c-2.25.19-4.28,0.72-5.38,3.29,2.38,4,4.75,7.9,8.38,10.93a28.71,28.71,0,0,1,4.08,3.93,43.82,43.82,0,0,0,14,11.46c1.86-.2,3-2.48,5.26-1.17L491.23,537c6.27,2.36,11.86,5.6,15.73,11.79,1.59-5,3.48-.17,5.93-0.86-1.58-3.67-3.12-7.31-5.73-10s-5.51-5-9.62-5.44c-3-.28-4.43-2.94-4.18-6.75-0.62-.44-1.28-0.92-2-1.37s-1.12-.7-1.91-1.18c0.39,2.14,2.68,3.29,1.51,5.55-5-4.15-5.19-3.73-7.37-4-0.07,1-.14,2.06-0.21,3.11-0.93-.41-2.17-0.56-2.73-1.26-1.77-2.2-3.29-4.61-5.24-7.41l5.37-2.4a43.22,43.22,0,0,1-1.64-5.31c-0.36-2-.28-4-0.48-6.05-0.29-3-4.91-6-7.68-4.9-0.76.3-1.22,1.34-1.81,2ZM452.48,562.6l0.57-.26a33.56,33.56,0,0,1-.36-4.26c0.13-3.51.23-3.6-3.12-5-2.91-1.21-5.38-2.68-5.29-6.42l-4.69-1,2,2.54-4,1.93c0.17,2.48,2,2.59,3.33,2.76,4.16,0.54,6.81,3.08,9.13,6.2C450.81,560.29,451.64,561.45,452.48,562.6Zm119.12,35.48a21.2,21.2,0,0,0-3.37-.95c-1-.11-2.14.18-3.21,0.17a9.24,9.24,0,0,1-7.51-3.42,2.24,2.24,0,0,0-1.76-.52,1.46,1.46,0,0,0-.85,1.18,6.08,6.08,0,0,0,1.13,1.94,1.08,1.08,0,0,0,.77.19c3.6-.08,4.42,2.44,4.86,5.38C565.46,602.78,569,603,571.59,598.08Zm9.62,10.49c0-4.44-1.28-5.56-5.36-4.71ZM456.3,566.88c4.81-2.84,5.15-3.76,2.76-6a10.55,10.55,0,0,1-1.4,2.82C456.86,564.53,455.57,565,456.3,566.88ZM296,580.34l-0.7.46c1,1.4,2,2.81,3.08,4.19a2.39,2.39,0,0,0,1,.16C299.64,582.38,297,581.92,296,580.34Zm246.29,1.47-0.65.93c0.86,0.59,1.71,1.18,2.6,1.72,0,0,.4-0.57.61-0.87Zm-20-27.47-1,.47,2.4,4.27,0.7-.35Zm-83.29,2.92,0.25-1.35-3.37-.54-0.18,1Zm32.78,39.42,0.57-.68-1.79-1.36-0.49.59ZM457,575.77l0.53,0.5,0.42-.76a1.79,1.79,0,0,0-.64-0.29A1.45,1.45,0,0,0,457,575.77Z" transform="translate(-161.28 -274.92)"/><path class="cls-4" d="M452.09,616.73c2.43,2.73,4.84,5.49,7.3,8.19,1.83,2,3.81,3.89,5.53,6,0.48,0.58.28,1.71,0.39,2.59-0.86.06-1.94,0.47-2.53,0.1a23.27,23.27,0,0,0-9.55-3.26c-2.05-.28-4.15-2-5.73-3.53a9.18,9.18,0,0,0-5.55-3c-3.77-.44-7.52-1.13-11.29-1.58s-4.84-2.14-4.78-5.95a46.22,46.22,0,0,0-1.45-10c-0.44-2.11-1.45-4-.2-6.28,0.42-.76-0.15-2.06-0.23-3.12-0.11-1.54-.19-3.09-0.31-5.12-1.48-2.26-4.07-3.8-7-5.15a57.94,57.94,0,0,1-7.93-5,4.8,4.8,0,0,1-1.8-2.17c-1.07-3.1-3.41-5.17-5.48-7.53a58.68,58.68,0,0,1-5.65-7.94c-2.21-3.6-4.34-7.27-6.19-11.06a46.51,46.51,0,0,1-3.59-9.52c-0.47-2,.35-4.22.42-6.35a45.75,45.75,0,0,0-.4-4.85c1.38-1.43,3.06-3.36,4.95-5.08,1.41-1.28,3.28-.41,3.89,1.8a23.21,23.21,0,0,0,6.63,11.51,13.6,13.6,0,0,0,3.9,2.77,11.07,11.07,0,0,1,6.39,5.32c2.13,4.08,4.58,8,6.89,12,1.49-2.18-1.53-3.87-1-6.45l3.19,1.42a8,8,0,0,1,2.29-1c1-.13,2.31-0.16,3,0.39a51,51,0,0,1,4.69,5,25.56,25.56,0,0,0,2,2.56c2.11,1.84,1.92,4.38,2.37,6.76s1.17,4.79-.91,6.91c-0.38.39-.27,1.25-0.4,2,1.43,0.2,2.92-1.91,4.09.8a31.15,31.15,0,0,0-2.76,1.81c-0.91.73-1.69,1.62-2.68,2.59-3.51-3.88-5-8.85-9.57-11.76-1,2,.14,3.25,1.16,4.38,2.11,2.33,4.4,4.47,4.33,8,0,0.74.94,1.62,1.63,2.24,2.58,2.36,5.55,4.06,9.14,4a5,5,0,0,1,4.66,2.75c0.93,1.55,1.67,3.1-.66,4.44-1.74,1-2.11,2.64-.82,4.53,2.38,3.48,4.64,7,6.92,10.57,0.81,1.26,1.55,2.56,2.32,3.83A5.77,5.77,0,0,0,452.09,616.73ZM433.21,592.4l0.5-.74L429.12,588C430.57,591.73,430.57,591.73,433.21,592.4Z" transform="translate(-161.28 -274.92)"/><path class="cls-4" d="M394.89,521.75c-4.74-.81-4.62-5.12-6-8.34-0.56-1.32-.64-3.13-1.6-4-4.52-3.93-6.22-9.49-8.8-14.52a9.1,9.1,0,0,1-.55-3.18q-0.49-5.05-.9-10.11a5.35,5.35,0,0,1,.13-2c0.86-2.7,1.81-5.37,2.75-8.14a4.74,4.74,0,0,1,3.94,2c2.11,2.61,4,5.42,6,8.13,1.05,1.42,2.21,2.78,3.27,4.19,1.36,1.82,3.37,3.5,3.88,5.54,1.17,4.72,4.89,9,2.89,14.36,1.1,4.84-2.09,9.22-1.07,14l-3.2,1.46Z" transform="translate(-161.28 -274.92)"/><path class="cls-4" d="M310,496.09c1.92-1.42,3.37-3.33,6.23-3.54,1.26-.09,2.67-2.15,3.47-3.6a18.07,18.07,0,0,1,4.89-5.91,30.51,30.51,0,0,0,4.33-4.77c0.78-.92,1.49-1.67,2.94-0.11-1.37,2.3-2.68,4.8-4.29,7.1a11.66,11.66,0,0,0-2.44,6.34,11,11,0,0,1-1.37,4.23c-0.31.61-1.29,0.87-2.59,1.66,0.12-2.1.2-3.35,0.3-5.08a16,16,0,0,0-7.91,8.2,2,2,0,0,0-.2,1.19c1.48,5.75-2.75,9-5.79,12.56-1.4,1.66-3.52,2.73-5.31,4.06l-0.7-.62a10.68,10.68,0,0,1,1.2-2.11c1.48-1.61,3.13-3.05,4.58-4.68,1.29-1.46,2.26-3.12,1.42-5.24l-2.91,1.65c0.12-4.71,3.36-7.63,4.16-11.39Z" transform="translate(-161.28 -274.92)"/><path class="cls-4" d="M447.56,579.34c3.18,2.12,6,3.63,8.4,5.68s5.9,1.86,7.84,5.2a14,14,0,0,1-2.59.37c-1.47-.1-3.06-0.81-4.37-0.44-2.8.8-4.67-.29-6.56-2.06-1.46-1.37-3.12-2.54-4.89-4Z" transform="translate(-161.28 -274.92)"/><path class="cls-4" d="M387.09,464.62c1.1,0.74,2.17,1.06,2.52,1.76,2.08,4.14,6.25,6.18,9.19,9.44a15.61,15.61,0,0,1,1.38,1.49c1.31,1.9,1.15,3.05-.46,4.13-2.15,1.44-3.09,1.43-4.38-.62s-2.35-4.54-3.57-6.79a25.72,25.72,0,0,0-1.78-2.61C388.63,469.52,386.77,467.84,387.09,464.62Z" transform="translate(-161.28 -274.92)"/><path class="cls-4" d="M453,597.44c-4.65-.46-5.3-1.17-4.55-4.6C452.06,593.63,452.52,594.07,453,597.44Z" transform="translate(-161.28 -274.92)"/><path class="cls-4" d="M260.51,560c0.93-.89,1.37-1.62,2-1.81,1.06-.34,2.71,1.34,2.65,2.89,0,0.67-.92,1.31-1.41,2Z" transform="translate(-161.28 -274.92)"/><path class="cls-4" d="M440.27,577.6l3.54,4.46C440.27,582.63,439.49,581.79,440.27,577.6Z" transform="translate(-161.28 -274.92)"/><path class="cls-4" d="M398.58,527c2.59-1.44,3.1-1.12,3.79,2.41C400.28,529.75,399.21,528.77,398.58,527Z" transform="translate(-161.28 -274.92)"/><path class="cls-4" d="M542.8,592.53l4.2,0.88c-0.33,2.31-1.6,2.23-2.8,2.06S542.34,594.53,542.8,592.53Z" transform="translate(-161.28 -274.92)"/><path class="cls-4" d="M395.63,521.16a16.25,16.25,0,0,1,2.47,2.6c0.26,0.42-.29,1.34-0.47,2-0.6-.19-1.55-0.21-1.74-0.6a20.41,20.41,0,0,1-1-3.44Z" transform="translate(-161.28 -274.92)"/><path class="cls-4" d="M267.67,554.95c-3.13,1.1-3.23,1-3.5-2.59C266.09,552,266.53,553.61,267.67,554.95Z" transform="translate(-161.28 -274.92)"/><path class="cls-4" d="M297.27,521.54l3.24-2.83C300.55,522.06,300.55,522.06,297.27,521.54Z" transform="translate(-161.28 -274.92)"/><path class="cls-4" d="M292.29,527.89c0.77-1.66,1.7-2.44,3.65-2.12C295.55,528.06,294.56,528.72,292.29,527.89Z" transform="translate(-161.28 -274.92)"/><path class="cls-4" d="M577.32,619.9c1.06,1.1,1.29,2.16.2,3.12a1.82,1.82,0,0,1-1.55-.61C575.18,621,575.92,620.27,577.32,619.9Z" transform="translate(-161.28 -274.92)"/><path class="cls-4" d="M585.25,620a12.85,12.85,0,0,1-1.83,1.65,1.9,1.9,0,0,1-1-.93,8.6,8.6,0,0,1,1-1.89Z" transform="translate(-161.28 -274.92)"/><path class="cls-4" d="M469.22,502.54c0.88,0.57,2.31,1,2.54,1.73a65.83,65.83,0,0,1,2,9.43c0.21,1.5-1.69,2.24-3.38,1.34s-3.42-2.07-5-3l1.16-6.85Z" transform="translate(-161.28 -274.92)"/><path class="cls-4" d="M499.59,539.25l-4-2.39C498.32,534.69,499.15,535.09,499.59,539.25Z" transform="translate(-161.28 -274.92)"/></svg>