<svg id="Objects" xmlns="http://www.w3.org/2000/svg" viewBox="0 0 307.31 151.26"><defs><style>.cls-1,.cls-2{fill:#fff;}.cls-2{stroke:#fff;stroke-miterlimit:10;}</style></defs><title>montagnes</title><path class="cls-1" d="M249,390.27a3.74,3.74,0,0,1,1.5-3,3.17,3.17,0,0,1-.25-3.25c0.86,0.28.86,0.28,1.11,1.31l1.27-.1a0.81,0.81,0,0,0,0-.42c-0.31-.35-0.67-0.66-1-1a0.84,0.84,0,0,1,0-1.35l2.47,2.58a1.2,1.2,0,0,1,1.91.05,4.64,4.64,0,0,1,1.32,1.53c0.38,1.3,1.42,1.71,2.52,2.39,0.08-1.16-1.58-1.28-1.19-2.52,1.35,0.44,2.3,1.48,3.55,2-0.46-.71-0.87-1.39-1.35-2a2.74,2.74,0,0,0-.93-0.81c-1.17-.57-2.13-1.48-3.52-1.73a2.55,2.55,0,0,1-1.31-1.62,17.16,17.16,0,0,0-3.77-6c-0.81-.91-1.3-2.22-2.64-2.62a0.77,0.77,0,0,1-.25-0.38l-1.53-3a3.79,3.79,0,0,0-.65.43,0.84,0.84,0,0,1-1.46-.08c-0.89-1.23-2.25-1.87-3.35-2.83a8.89,8.89,0,0,1-1.18-1.59l-1.54-2.17c0.62-.45.62-0.45,1.73-0.24a1.44,1.44,0,0,0,.09-0.7,8.14,8.14,0,0,0-4.72-3.84c0.25,0.5.47,0.88,0.64,1.29a4.36,4.36,0,0,1,.59,2.87,5.54,5.54,0,0,0,.22,1.78l-1.78.19c-0.47-.7-0.95-1.39-1.39-2.09s-0.79-1.35-1.17-2c0.45-.74.89-0.56,1.24,0a1.5,1.5,0,0,0,1.71.64,1.29,1.29,0,0,0-1.31-1.55c-0.89,0-1.82-.63-2.64.29a1,1,0,0,1-1,0c-1-.83-1.92-1.74-2.85-2.6,0.63-1.28,1.63-.43,2.35-0.75,1.08-.48,1.1,1.18,2.08,1.1a1.63,1.63,0,0,0-.26-1.61,7.31,7.31,0,0,1-.73-3.74c0.15-1.49-.57-3.06-0.88-4.61a22.86,22.86,0,0,1-.37-2.32,1.13,1.13,0,0,1,.23-0.88c1.41-1,.81-2.36.65-3.6-0.09-.7-0.64-1.37.17-2a0.32,0.32,0,0,0,.05-0.3c-0.63-1.32-.69-2.88-1.84-4s-2.43-2.2-2.79-3.93a1.35,1.35,0,0,0-1.42-1c-0.62,0-1.24-.16-2-0.27-0.09-.76-0.54-1.49.42-2.2,0.24-.18-0.09-1.13-0.16-1.84-0.4.14-.59,0.19-0.77,0.27a0.71,0.71,0,0,1-1.1-.66,9.94,9.94,0,0,1,0-1.42c0-.51,0-1,0-1.54a1.59,1.59,0,0,1,.29-1,1.48,1.48,0,0,0,.42-1.72c-0.34-1.31-.69-2.61-1.06-4a2.71,2.71,0,0,0-2.24,1.67,8.41,8.41,0,0,1-3.64,4,9.44,9.44,0,0,0-4.24,4.12,3.33,3.33,0,0,1-1,1,96.46,96.46,0,0,0-13.05,13.29c-0.66.81-1.49,1.47-2.2,2.24a11.17,11.17,0,0,0-.89,1.26v0a8.93,8.93,0,0,0-2.78,4.68,4.42,4.42,0,0,1-1.15,2C188.8,352,187,353.35,186,355.3a7.58,7.58,0,0,1-1.58,1.49,8.51,8.51,0,0,0,.62,1q4.23,5.23,8.47,10.45a3.34,3.34,0,0,1,.6.93,13.15,13.15,0,0,0,4.68,5.83c1,0.81,2,1.75,2.93,2.63a1,1,0,0,1,.3.36c0.68,2.06,2.45,3.11,4,4.37a78.41,78.41,0,0,1,8.47,8.06,25.48,25.48,0,0,0,5.26,5,1.09,1.09,0,0,1,.47.61c0.26,1.19,1.18,1.8,2,2.55,2,1.84,4,3.75,6,5.7a1.39,1.39,0,0,1-2.07.27c-1.47-1-2.92-2.06-4.37-3.1a39.16,39.16,0,0,0-3.2-2.28,31.16,31.16,0,0,0-8.39-3.64,13.66,13.66,0,0,1-3.09-1.17c-2.4-1.22-5-1.57-7.59-2.13a15.89,15.89,0,0,0-5.79-.17,25.12,25.12,0,0,1-4.85-.05,1.65,1.65,0,0,1-.91-0.54,8.16,8.16,0,0,1-1.11-1.34,7.3,7.3,0,0,0-3.74-3.22,2.2,2.2,0,0,1-1.38-2,3.73,3.73,0,0,0-1.39-2.58c-1.31-1-1.73-2.62-2.44-4a3.31,3.31,0,0,1,.25-2.1,4.56,4.56,0,0,1,.92-1.19l-1.35-1.86c0.67-.76,1.44-1.36.77-2.45a1.6,1.6,0,0,0,1.36-2.09c-0.15-.84-0.24-0.95-1.75-1.38,0.62-1.1.08-2-.46-3a1.82,1.82,0,0,1-.25-0.58c-0.46-2.89-2-5.3-3.54-7.67a2.07,2.07,0,0,0-.54-0.68,8.44,8.44,0,0,0,.16,1.08c0.31,1.1.63,2.2,1,3.28a2.13,2.13,0,0,0,.6.7,2.9,2.9,0,0,1,.7.61,2.27,2.27,0,0,1,.37,1.47c-0.55,1.13.71,2.73-.89,3.52l-2.12-.54,0.5-1a2.11,2.11,0,0,1-.21-1,2.58,2.58,0,0,0-.78-2.42,16,16,0,0,1-1.48-2.55,1.5,1.5,0,0,1-.07-0.92c0.14-.65.37-1.29,0.54-1.94s0.29-1.16.46-1.84a3.26,3.26,0,0,0-2,.92,30.82,30.82,0,0,0-6.38,7,36.59,36.59,0,0,1-3.24,3.66,7.85,7.85,0,0,0-1.3,1.76,7.3,7.3,0,0,1-3.39,3.61c-1.4.72-2.71,1.63-4.06,2.45a1.74,1.74,0,0,0-.38.28l-3.69,4.07a1.53,1.53,0,0,1-.21.24c-1.65,1.19-2.29,3.09-3.35,4.7s-1.95,3.17-3.74,4a10.51,10.51,0,0,1-3.69,1,2.42,2.42,0,0,1,.17-0.78c1.81-2.27,3.59-4.55,5.47-6.76a51.85,51.85,0,0,1,3.6-3.77c2.89-2.78,5.82-5.52,8.73-8.27a1.46,1.46,0,0,0,.33-0.34c0.93-1.85,2.56-3,4.1-4.32a7,7,0,0,0,1.82-2.53,10.75,10.75,0,0,1,1.85-2.31c0.62-.71,1.27-1.39,1.94-2.06a17.78,17.78,0,0,1,2.73-2.6,32,32,0,0,0,7-6.38,5.64,5.64,0,0,0,.39-0.62,14.31,14.31,0,0,1,5.86,5.31c0.63,1,1.33,2,2.14,3.19,2.06-1.71,4-3.25,5.81-4.87a5.13,5.13,0,0,0,1-1.6c0.61-1.22,1.2-2.47,1.77-3.71,0.7-1.51,2.06-2.39,3.23-3.43a10.53,10.53,0,0,0,2.76-3.61c1.12-2.52,3.11-4.37,5-6.3,1-1.06,2.09-2.08,3.12-3.13a100.08,100.08,0,0,1,9.75-9.26,3.58,3.58,0,0,0,1-1,8.44,8.44,0,0,1,3.18-3,9.5,9.5,0,0,0,1.24-1c1.62-1.45,2.82-1.42,4.69-.27a15.89,15.89,0,0,1,4,4c2,2.56,4.12,5.07,6.21,7.59,1.45,1.75,2.89,3.49,4.39,5.19a23.56,23.56,0,0,0,2.37,2.31,24.64,24.64,0,0,1,4.39,5.37,16.77,16.77,0,0,0,1.59,1.94A5.47,5.47,0,0,1,250,344c0,0.83.08,0.83,1,1.65,1.45-1.19,2.89-2.38,4.35-3.55a2.34,2.34,0,0,1,.83-0.44c1.19-.32,2.41-0.56,3.6-0.89a3.77,3.77,0,0,1,3.41.74,41.41,41.41,0,0,1,6.87,6.51c0.93,1.08,1.73,2.26,2.65,3.34a9.45,9.45,0,0,0,3.59,3,5.23,5.23,0,0,1,1.9,1.62,21.43,21.43,0,0,0,5.47,4.92c2.05,1.25,3.65,3.26,5.43,4.95a1.94,1.94,0,0,1,.48.81,17.09,17.09,0,0,0,2.64,4.63,8.34,8.34,0,0,0,3,2.77,6,6,0,0,1,2.3,2.32c1,1.65,2.15,3.25,3.25,4.87a4.18,4.18,0,0,0,.58.52,20.35,20.35,0,0,1,2.33,2.35,35.15,35.15,0,0,0,4.94,5.31,7.12,7.12,0,0,1,1.59,2,32.52,32.52,0,0,0,3.94,6.08,3.45,3.45,0,0,1,.25.9l-2.67-2.13c-0.31-.25-0.55-0.71-1-0.21a0.79,0.79,0,0,1-.54-0.2,9,9,0,0,0-4.32-1.82,2.19,2.19,0,0,1-1-.67c-0.89-1-1.71-2-2.62-2.92a2.33,2.33,0,0,0-1.19-.64,12.11,12.11,0,0,0-2,0l-0.16,1-4-.32c0.65-1,1.2-1.74,2.21-1.91,0.49-.08,1.29.16,1.2-0.58a2.37,2.37,0,0,0-1.12-1.36,6.12,6.12,0,0,0-1.87-.62,5.18,5.18,0,0,0-1.15,0l-1.06,0a3.33,3.33,0,0,0-1.23,0,1.53,1.53,0,0,1-1.87-.43,3.92,3.92,0,0,0-2.78-1.58c0.25-1,.14-2,1.12-2.71-1.3-.69-2.33-1.53-3.74-1.39a0.9,0.9,0,0,1-1.08-.85,7.23,7.23,0,0,0-.76-1.46l-1-1.78-2-.32,0.84-1a1.22,1.22,0,0,0-.08-0.22c-0.37-.68-0.79-1.34-1.12-2s-0.6-.95-1.45-0.62l-2.31.88c-0.9.34-1.36-.27-1.84-0.85l-0.8-3c-0.39-1.42-.39-1.42,1-2.5l1.37,1.33c0.28,0.94.52,1.9,0.88,2.82a0.56,0.56,0,0,0,1,.22l-1.89-3c-0.18-.55-0.35-1.1-0.54-1.65a1,1,0,0,0-1-.83c-0.92,0-1.84-.09-2.77-0.13a9,9,0,0,1,.22,1.85,4.75,4.75,0,0,0,2.53,4.87,16.61,16.61,0,0,0,1.72,5.23,2.85,2.85,0,0,0,.81.94,20.32,20.32,0,0,0,4,1,1.7,1.7,0,0,1,1,.57,2.94,2.94,0,0,1-.38,1.1,13.21,13.21,0,0,0,4.62,5.07,72.67,72.67,0,0,1,9.75,8,11.61,11.61,0,0,0,2.86,1.91,4.37,4.37,0,0,1,2,1.94c0.51,0.89,1.07,1.74,1.67,2.71a2.19,2.19,0,0,1-1.88.68c-1.25-.07-2.09-0.88-3.11-1.36s-2.27-.84-3.4-1.28a24.51,24.51,0,0,1-2.91-1.23,12.89,12.89,0,0,0-8.44-1.36,7.91,7.91,0,0,1-4.78-.63,14,14,0,0,0-2.4-.79c-1.25-.33-2.51-0.42-3.6-1.41a7.45,7.45,0,0,0-3-1.23c-0.5-.14-1.13.23-1.66,0.13A20,20,0,0,1,264,391a1.13,1.13,0,0,1-1.66.25c-0.44-.28-1-0.43-1.42-0.69a4,4,0,0,0-3.78-.31,2.31,2.31,0,0,1-2.13-.12c-0.78-.41-1.56-1-2.27,1l-1.26-2c-0.83.55-1.19,1.7-2.36,1.47Zm-63.34-16.66a3.47,3.47,0,0,0-2.22-2.22c-0.71-1.42-1.37-2.06-2.47-2.3l0.94,1.2a3,3,0,0,0-.37.7,3.14,3.14,0,0,0,0,2.49c0.2,0.31.62,0.54,0.27,0.87a1.86,1.86,0,0,1-1-.06h-0.44a2,2,0,0,0,1.88,2,3.85,3.85,0,0,1,1-1.06,3,3,0,0,1,1.29.12c-0.51-1.36-1.14-2.53-2.71-2.73l0.77-1.76,0.76,0.55,2.22,2.21a1.54,1.54,0,0,0,1.64,1Zm69.08-26.29a2.14,2.14,0,0,0-2.08,1.27,15.78,15.78,0,0,0,3.24,4.23,11.1,11.1,0,0,1,1.58,1.52,16.94,16.94,0,0,0,5.4,4.43c0.72-.08,1.15-1,2-0.45l-0.64,1.33a11.35,11.35,0,0,1,6.08,4.56c0.61-1.93,1.35-.06,2.29-0.33A12.57,12.57,0,0,0,270.4,360a6,6,0,0,0-3.72-2.1c-1.16-.11-1.71-1.14-1.62-2.61l-0.76-.53-0.74-.46c0.15,0.83,1,1.27.58,2.15-1.95-1.6-2-1.44-2.85-1.56l-0.08,1.2a2.79,2.79,0,0,1-1.06-.49c-0.69-.85-1.27-1.78-2-2.87l2.08-.93a16.71,16.71,0,0,1-.63-2.05c-0.14-.77-0.11-1.56-0.18-2.34a2.59,2.59,0,0,0-3-1.9,2.5,2.5,0,0,0-.7.79Zm-5.46,22.21,0.22-.1a13,13,0,0,1-.14-1.65c0.05-1.36.09-1.39-1.21-1.93-1.13-.47-2.08-1-2-2.48l-1.81-.37,0.76,1-1.56.74a1.14,1.14,0,0,0,1.29,1.07,5.18,5.18,0,0,1,3.53,2.4Zm46.05,13.72a8.2,8.2,0,0,0-1.3-.37c-0.41,0-.83.07-1.24,0.07a3.57,3.57,0,0,1-2.91-1.32,0.87,0.87,0,0,0-.68-0.2,0.56,0.56,0,0,0-.33.45,2.35,2.35,0,0,0,.44.75,0.42,0.42,0,0,0,.3.07c1.39,0,1.71.94,1.88,2.08C292.94,385.07,294.31,385.16,295.31,383.25Zm3.72,4.06c0-1.71-.49-2.15-2.07-1.82Zm-48.29-16.12c1.86-1.1,2-1.45,1.07-2.33a4.08,4.08,0,0,1-.54,1.09C251,370.28,250.45,370.45,250.73,371.19Zm-62,5.2-0.27.18c0.39,0.54.79,1.09,1.19,1.62a0.92,0.92,0,0,0,.39.06C190.17,377.18,189.16,377,188.75,376.39ZM284,377l-0.25.36c0.33,0.23.66,0.46,1,.66,0,0,.16-0.22.24-0.34Zm-7.74-10.62-0.38.18,0.93,1.65L277,368ZM244,367.47l0.1-.52-1.3-.21-0.07.39Zm12.67,15.24,0.22-.26-0.69-.53-0.19.23ZM251,374.63l0.2,0.19,0.16-.29a0.69,0.69,0,0,0-.25-0.11A0.56,0.56,0,0,0,251,374.63Z" transform="translate(-68.72 -313.21)"/><path class="cls-1" d="M249.11,390.46c0.94,1.06,1.87,2.12,2.82,3.17,0.71,0.78,1.47,1.5,2.14,2.31a2.19,2.19,0,0,1,.15,1,2,2,0,0,1-1,0,9,9,0,0,0-3.69-1.26,4.46,4.46,0,0,1-2.22-1.36,3.55,3.55,0,0,0-2.15-1.18c-1.46-.17-2.91-0.44-4.36-0.61s-1.87-.83-1.85-2.3a17.87,17.87,0,0,0-.56-3.87c-0.17-.82-0.56-1.56-0.08-2.43a2.65,2.65,0,0,0-.09-1.21c0-.6-0.07-1.19-0.12-2a6.26,6.26,0,0,0-2.7-2,22.4,22.4,0,0,1-3.06-1.93,1.85,1.85,0,0,1-.69-0.84,9.12,9.12,0,0,0-2.12-2.91,22.69,22.69,0,0,1-2.18-3.07c-0.85-1.39-1.68-2.81-2.39-4.28a18,18,0,0,1-1.39-3.68,10.05,10.05,0,0,1,.16-2.46,17.69,17.69,0,0,0-.15-1.87c0.53-.55,1.18-1.3,1.91-2,0.54-.49,1.27-0.16,1.51.7a9,9,0,0,0,2.56,4.45,5.26,5.26,0,0,0,1.51,1.07,4.28,4.28,0,0,1,2.47,2.06c0.82,1.58,1.77,3.09,2.67,4.63,0.58-.84-0.59-1.5-0.38-2.49l1.23,0.55a3.08,3.08,0,0,1,.88-0.38,1.63,1.63,0,0,1,1.14.15,19.72,19.72,0,0,1,1.81,1.94,9.88,9.88,0,0,0,.78,1c0.82,0.71.74,1.69,0.92,2.61s0.45,1.85-.35,2.67a1.68,1.68,0,0,0-.15.76c0.55,0.08,1.13-.74,1.58.31a12,12,0,0,0-1.07.7c-0.35.28-.65,0.63-1,1-1.36-1.5-2-3.42-3.7-4.54a1.37,1.37,0,0,0,.45,1.69c0.82,0.9,1.7,1.73,1.68,3.11a1.6,1.6,0,0,0,.63.87,5.07,5.07,0,0,0,3.54,1.54,1.94,1.94,0,0,1,1.8,1.06c0.36,0.6.65,1.2-.26,1.71a1.1,1.1,0,0,0-.32,1.75c0.92,1.34,1.79,2.72,2.68,4.09,0.31,0.49.6,1,.9,1.48Zm-7.3-9.41,0.19-.29-1.77-1.4C240.79,380.8,240.79,380.8,241.81,381.06Z" transform="translate(-68.72 -313.21)"/><path class="cls-1" d="M227,353.75c-1.83-.31-1.78-2-2.32-3.22a4.33,4.33,0,0,0-.62-1.53c-1.75-1.52-2.4-3.67-3.4-5.62a3.52,3.52,0,0,1-.21-1.23q-0.19-2-.35-3.91a2.07,2.07,0,0,1,.05-0.77c0.33-1,.7-2.08,1.06-3.15a1.83,1.83,0,0,1,1.52.78c0.82,1,1.54,2.1,2.31,3.14,0.41,0.55.85,1.07,1.26,1.62a7.18,7.18,0,0,1,1.5,2.14c0.45,1.83,1.89,3.48,1.12,5.55,0.42,1.87-.81,3.57-0.41,5.4l-1.24.56Z" transform="translate(-68.72 -313.21)"/><path class="cls-1" d="M194.19,343.83c0.74-.55,1.3-1.29,2.41-1.37a2.6,2.6,0,0,0,1.34-1.39,7,7,0,0,1,1.89-2.28,11.8,11.8,0,0,0,1.67-1.84c0.3-.36.58-0.65,1.14,0-0.53.89-1,1.86-1.66,2.74a4.51,4.51,0,0,0-.94,2.45,4.26,4.26,0,0,1-.53,1.64,3.09,3.09,0,0,1-1,.64l0.12-2a6.17,6.17,0,0,0-3.06,3.17,0.79,0.79,0,0,0-.08.46c0.57,2.22-1.06,3.46-2.24,4.86a11.68,11.68,0,0,1-2.05,1.57l-0.27-.24a4.13,4.13,0,0,1,.47-0.81c0.57-.62,1.21-1.18,1.77-1.81a1.86,1.86,0,0,0,.55-2l-1.12.64c0-1.82,1.3-2.95,1.61-4.4v0Z" transform="translate(-68.72 -313.21)"/><path class="cls-1" d="M247.36,376a32.54,32.54,0,0,1,3.25,2.2c0.88,0.76,2.28.72,3,2a5.43,5.43,0,0,1-1,.14,5.53,5.53,0,0,0-1.69-.17,2.43,2.43,0,0,1-2.54-.8c-0.57-.53-1.21-1-1.89-1.53Z" transform="translate(-68.72 -313.21)"/><path class="cls-1" d="M224,331.66a3.05,3.05,0,0,1,1,.68c0.8,1.6,2.42,2.39,3.55,3.65a6,6,0,0,1,.53.58c0.5,0.73.45,1.18-.18,1.6-0.83.56-1.19,0.55-1.69-.24s-0.91-1.76-1.38-2.62a9.94,9.94,0,0,0-.69-1A3.56,3.56,0,0,1,224,331.66Z" transform="translate(-68.72 -313.21)"/><path class="cls-1" d="M249.47,383c-1.8-.18-2-0.45-1.76-1.78C249.09,381.53,249.27,381.7,249.47,383Z" transform="translate(-68.72 -313.21)"/><path class="cls-1" d="M175,368.54a3.1,3.1,0,0,1,.77-0.7,1.08,1.08,0,0,1,1,1.12,1.93,1.93,0,0,1-.55.76Z" transform="translate(-68.72 -313.21)"/><path class="cls-1" d="M244.54,375.33l1.37,1.72C244.54,377.28,244.24,377,244.54,375.33Z" transform="translate(-68.72 -313.21)"/><path class="cls-1" d="M228.42,355.76c1-.56,1.2-0.43,1.46.93A1.18,1.18,0,0,1,228.42,355.76Z" transform="translate(-68.72 -313.21)"/><path class="cls-1" d="M284.18,381.11l1.63,0.34a0.79,0.79,0,0,1-1.08.8C284.23,382.17,284,381.88,284.18,381.11Z" transform="translate(-68.72 -313.21)"/><path class="cls-1" d="M227.28,353.51a6.28,6.28,0,0,1,1,1,1.52,1.52,0,0,1-.18.79,1.34,1.34,0,0,1-.67-0.23,7.89,7.89,0,0,1-.39-1.33Z" transform="translate(-68.72 -313.21)"/><path class="cls-1" d="M177.81,366.58c-1.21.42-1.25,0.39-1.35-1C177.2,365.46,177.37,366.06,177.81,366.58Z" transform="translate(-68.72 -313.21)"/><path class="cls-1" d="M189.25,353.66l1.25-1.09C190.52,353.87,190.52,353.87,189.25,353.66Z" transform="translate(-68.72 -313.21)"/><path class="cls-1" d="M187.33,356.12a1.16,1.16,0,0,1,1.41-.82C188.59,356.18,188.21,356.44,187.33,356.12Z" transform="translate(-68.72 -313.21)"/><path class="cls-1" d="M297.52,391.69a0.74,0.74,0,0,1,.08,1.21,0.71,0.71,0,0,1-.6-0.24C296.7,392.11,297,391.83,297.52,391.69Z" transform="translate(-68.72 -313.21)"/><path class="cls-1" d="M300.59,391.72a5,5,0,0,1-.71.64,0.73,0.73,0,0,1-.38-0.36,3.32,3.32,0,0,1,.4-0.73Z" transform="translate(-68.72 -313.21)"/><path class="cls-1" d="M255.73,346.32a2.31,2.31,0,0,1,1,.67,25.45,25.45,0,0,1,.79,3.65c0.08,0.58-.65.86-1.31,0.52s-1.32-.8-1.93-1.18l0.45-2.65Z" transform="translate(-68.72 -313.21)"/><path class="cls-1" d="M267.47,360.51l-1.54-.92C267,358.75,267.3,358.9,267.47,360.51Z" transform="translate(-68.72 -313.21)"/><path class="cls-2" d="M138.81,424.19c-1.18,1.48-2.34,3-3.62,4.43-2.07,2.36-4.05,5.1-6.81,6.67-1.67,1-4.69,1.91-6.16.13s0.18-4.51.87-6.38c1-3.05,1.21-6.37,2.39-9.22,0.49-1.28,1.86-2.26,2.25-3.64a8.23,8.23,0,0,0,.79-3.05c-0.2-2.07-3.55-1.43-4.73-.93-2.17,1-3.46,3.21-5.13,4.79a55.54,55.54,0,0,0-5.59,6.17c-0.89,1.08-1.39,2.43-2.18,3.61-0.55.83-1.35,0.32-1.88,1.16a15.07,15.07,0,0,0-1,2.2c-0.49,1.38-.32,3.07-0.92,4.35a7.61,7.61,0,0,1-2,1.55c-0.49.39-1.45,1.25-1.85,0.86s0.63-1.49.83-2.08c0.3-1,0-2.09.54-3s0.32-1.15.87-2.18a14.82,14.82,0,0,0,1.36-2c0.49-1.48.63-3,1-4.61,0.79-2.76,2.3-5.7,2.1-8.55-0.1-1.18-.83-3-2.21-3-0.59,0-1,.88-1.51,1.08-1.48.69-3.35,1-4.44,2.16-3.15,3.15-4.65,7.72-7,11.46-1.67,2.78-2.45,2.32-4,5.14-0.72,1.26-.14,1.58-0.82,2.86a12.29,12.29,0,0,1-1.4,2,1.13,1.13,0,0,1-1.67,0,1.72,1.72,0,0,1-.34-1.47c0.64-1.33.61-1.34,1.24-2.67,1.28-2.76,3.51-5,4.69-7.79a36.26,36.26,0,0,0,1.88-6.59c0.39-1.38.93-3.77-.25-5a1.55,1.55,0,0,0-1.77-.39,12.44,12.44,0,0,0-2.82,2.28c-1.08,1-2.34,1.77-3.32,2.86-1.73,2-1,2.6-2.73,4.57-0.64.74-1.25,0.22-1.88,1-0.3.39-.14,1-0.64,1.07a18.38,18.38,0,0,0-1.75,1.65c-3.27,3.91-2.49,4.57-5.77,8.47-0.9,1.07-1.6.48-2.5,1.56-0.59.69-1.49,0.68-1.68-.31-0.1-.49.59-0.32,0.88-0.71,3.44-3.94,6.55-8.18,9.9-12.12a1.49,1.49,0,0,1,.91-0.36c0.29-.25-0.46-1-0.21-1.31,1.67-2,1.71-1.95,3.4-3.9,1.87-2.07,3.56-4.35,5.92-5.83,1.57-1.18,4-1.91,5.68-.33,2.17,2,1.14,5.65.45,8.11,1.67-2.36,3.9-4,6.06-5.84,1.57-1.38,3-3.72,5.12-3.92,2.36-.1,3.81,1.93,4.21,4.19a26.14,26.14,0,0,1-.43,9.18,52.26,52.26,0,0,1,7.92-8.9c2-1.67,4-3.6,6.62-3.89a4.29,4.29,0,0,1,3.23,1.06c0.79,0.79.6,1.63,0.6,2.62a22.86,22.86,0,0,1-2.06,8.57c-1.18,2.76-1.62,5.7-2.5,8.55-0.3.89-1.1,1.73-.91,2.72a1.31,1.31,0,0,0,1.53,1.25c1.87-.39,3.31-2.55,4.69-3.83a69.93,69.93,0,0,0,5.3-5.5c1-1.27,1.21-1.14,2.25-2.41,0.49-.59.63-1.13,1.52-0.44C140.4,423.16,139.4,423.5,138.81,424.19Z" transform="translate(-68.72 -313.21)"/><path class="cls-2" d="M166.9,424.89c-1.31,1.35-1.29,1.36-2.65,2.66a14.86,14.86,0,0,1-4.91,3.28,8.19,8.19,0,0,1-3.47.33,12.48,12.48,0,0,1-1.66-.75c-0.3-.1-0.54.34-0.84,0.14a3,3,0,0,0-1.09.58,15.63,15.63,0,0,1-7.57,4.67c-2.76.59-5.44-.16-6.82-2.71a11.06,11.06,0,0,1-1-6.86,26.55,26.55,0,0,1,7-12.92c1-1,2-2.09,3.07-3a4.33,4.33,0,0,1,1.9-.62,0.84,0.84,0,0,1,.87,1,2.26,2.26,0,0,1-1,1.6,10.53,10.53,0,0,0-1.8,1,21.14,21.14,0,0,0-2.57,3.3c-1.57,2.07-3.42,4-4.31,6.42a15.08,15.08,0,0,0-1,6.29c0.1,2.56,1.5,4.87,4.36,4.47,3.05-.39,5.77-2.48,7.74-4.65-3.44-3.15-3-9-1.73-13.17a11.67,11.67,0,0,1,4-5.91c2.07-1.48,4.52-1.24,5.7,1a11.56,11.56,0,0,1,.39,9c-1,3.05-3.19,6-5.16,8.41,2.07,0.79,4.25.06,6.12-1.12a18.23,18.23,0,0,0,3.6-2.53c1-1.09.86-1.24,1.86-2.35a1.21,1.21,0,0,1,1.86-.38C169,423.14,167.49,424.2,166.9,424.89Zm-11.38-1.3c1.67-2.76,3-6,2.67-9.34a3.8,3.8,0,0,0-1.43-2.91c-0.89-.39-1.9.31-2.49,0.9a14.33,14.33,0,0,0-3.5,7.38,8.82,8.82,0,0,0,2,7.54A31.25,31.25,0,0,0,155.52,423.59Z" transform="translate(-68.72 -313.21)"/><path class="cls-2" d="M210.11,422.47a1.54,1.54,0,0,1-.47,1.15,11.65,11.65,0,0,1-1.07,1.89,64.78,64.78,0,0,1-4.69,5.65,18.32,18.32,0,0,1-6.8,4.35c-2.07.69-5.07,1.09-5.66-1.37-0.29-1.08.4-2.24,0.69-3.32a21.37,21.37,0,0,1,1.64-4.14c1.18-2.85,2.37-5.75,3.45-8.6a15.79,15.79,0,0,0,.59-3.66c0.1-.69.5-1.43,0-2s-1.6-.15-2.29,0a6.7,6.7,0,0,0-2.45.34c-3.74,2-6.73,5.54-9.2,8.89s-4.3,7.17-6.37,10.81a23.36,23.36,0,0,1-2.38,3.08c-0.29.49-1,1.45-1.6,1.15s-0.29-1,0-1.61c0.4-.88,0-1.08.41-1.95,1.67-3.35,3.21-6.75,4.68-10.19a41.43,41.43,0,0,0,2.28-6.14,10.17,10.17,0,0,0,.07-2.46c0.1-.59.42-1.64-0.17-2a2.85,2.85,0,0,0-2.17.31,25.44,25.44,0,0,0-2.29,2.32c-2.17,2-4.69,3.81-6.56,6.08-0.76,1-.14,1.45-0.88,2.43a1.39,1.39,0,0,1-1.71.28c-0.69-.2-1.22-0.9-0.83-1.4a3.09,3.09,0,0,1,.59-0.56c1.46-1.88,1.45-1.89,3-3.73a48.4,48.4,0,0,1,4.26-4.7,13.5,13.5,0,0,1,4.69-3.12c1.87-.59,3.56.5,4.15,2.57a8.59,8.59,0,0,1,.25,3.53A28.28,28.28,0,0,1,182,421c1.18-1.57,2.56-2.87,3.74-4.25a24.9,24.9,0,0,1,6.66-5.76c1.87-1,4.58-1.76,6.55-.18s1.51,4.43.91,6.4c-1,3.15-2.92,5.83-4.2,8.88-0.49,1.28-.83,2.67-1.22,4a8,8,0,0,0-.81,3c0.2,2,3.41,0,4.3-.46a27.71,27.71,0,0,0,5.76-4.36c1.57-1.77,3.23-4.44,4.71-6.31A1,1,0,0,1,210.11,422.47Z" transform="translate(-68.72 -313.21)"/><path class="cls-2" d="M231.28,422.69a1,1,0,0,1-.36,1.09c-0.59.69-1,1.62-1.69,2.31-2.17,2.66-4.21,5.56-7,7.72a7.77,7.77,0,0,1-7.13,1.6,4.55,4.55,0,0,1-3.73-3.59c-0.3-2,.38-4,0.78-5.84a70.26,70.26,0,0,1,2.62-8.86c-1.28,1.87-3.07,3.71-4.45,5.58-0.49.59-1.32,2.12-2.2,1.33s0-2,.57-2.67a95.92,95.92,0,0,0,7.11-10.68c-1.12-1.91-1.94-.4-4.15-0.4-0.89,0-1.2-.43-0.81-1.21a1.27,1.27,0,0,1,1.3-.9c2.61,0,2.83,1.28,5.31.45,1.09-.36,0-1.49.54-2.52,1.87-3.64,4.11-7.17,5.69-11,0.39-1,1.73-1,1.82.16a4.39,4.39,0,0,1-.46,2c-0.74,1.87-.83,1.84-1.59,3.69-1.08,2.46-2,4.62-3,7.18,3.11,1.37,3.28.47,6.67,0.47,0.79,0,2.1-.42,2.49.47a1.17,1.17,0,0,1-.92,1.74c-4.63,0-4.63-.59-9.25-0.59-0.2,0-.35,2.16-0.45,2.35-0.4,1-.91.83-1.3,1.87-0.8,2.16-.46,2.28-1.22,4.46a57.35,57.35,0,0,0-2.37,8c-0.3,1.77-.7,4,0.09,5.63,1.08,2.56,4.46.92,6-.26,2.66-1.87,4.57-4.51,6.64-7.07,1.27-1.54,1.7-1.17,3-2.7A0.76,0.76,0,0,1,231.28,422.69Z" transform="translate(-68.72 -313.21)"/><path class="cls-2" d="M263.08,423.08a2.56,2.56,0,0,1-.65,1c-1,1.08-1.82,2.3-2.7,3.38a53.55,53.55,0,0,1-7,7.22c-1.87,1.58-4.33,2.57-6.79,1.39-2.76-1.18-2.85-3.68-2.45-6.24a21,21,0,0,1-6.79,5.69c-2.26,1.08-5.14,1.55-7.3.08A5.94,5.94,0,0,1,227,430.4a16.69,16.69,0,0,1,1.87-7.21,27.76,27.76,0,0,1,6.25-7.74,27,27,0,0,1,6.65-4.89,18.1,18.1,0,0,1,9.94-1.42,11.1,11.1,0,0,1,1.72.44c1.57,0.49.42,2.47,0,3.36-1.18,2.66-2.82,4.94-4.2,7.5-0.39.79-.36,1.86-0.85,2.65s-1.37,1.21-1.66,2.1a35.13,35.13,0,0,0-.95,4.63,6.15,6.15,0,0,0,.3,3.75,1.9,1.9,0,0,0,2.19.9,6.28,6.28,0,0,0,2.61-1.51,29.57,29.57,0,0,0,3.34-2.53c2.56-2.56,4.92-5.43,7.28-8.18A0.91,0.91,0,0,1,263.08,423.08Zm-23.14,7.53a39.67,39.67,0,0,0,4.93-6.42,7.86,7.86,0,0,0,.91-2.08c0.43-.94.43-0.94,0.85-1.89a40,40,0,0,1,2.06-3.45c1-1.87,1.41-3.58,2.49-5.35a14.92,14.92,0,0,0-8.56,1.37,26.32,26.32,0,0,0-6.82,4.93,25.23,25.23,0,0,0-5.69,8,10.58,10.58,0,0,0-.58,6.3,2.66,2.66,0,0,0,1.36,2.12,5.54,5.54,0,0,0,3.33-.26A12.73,12.73,0,0,0,239.95,430.62Z" transform="translate(-68.72 -313.21)"/><path class="cls-2" d="M288.63,423.37a8.25,8.25,0,0,1-1.25,1.46c-0.56.63-.29,0.87-0.86,1.48-1.67,1.67-3.31,3.3-5.08,4.78-1.18,1-2.75,1.34-3.93,2.22s-0.5,1.58-1.57,2.32c-0.39.29-.91,0.12-1.1,0.62-1.22,2.81-1.43,2.72-2.67,5.52-2.07,4.63-3.82,9.29-6.18,13.72-1,2-1.55,4.3-3,6.07a6.78,6.78,0,0,1-4.12,2.38c-3,.39-5-2.2-5.17-4.86-0.2-1.87.91-3.68,1.5-5.45,1.48-4.53,4.51-8.37,8-11.62a47,47,0,0,1,7.17-6.1c1.49-1,1.81-.47,3.29-1.46,0.3-.2-0.3-1.11-0.2-1.3,0.74-1.77,1.86-1.37,2.38-3.22,0.14-.5-0.7.33-1,0.72-2,2.26-4.21,4.73-7.06,5.71-2.36.79-5.58,0.7-7.35-1.27a7.67,7.67,0,0,1-1.69-6.13c0.39-2.76,2.28-5.12,3.85-7.48a30.57,30.57,0,0,1,9.33-9.27c3.85-2.38,8.17-4.23,12.65-3.49a1.64,1.64,0,0,1,1.36,1.55,5,5,0,0,1,.11,2.4c-0.75,1.67-1.4,1.38-2.13,3.05-3.45,7.82-4.34,7.52-6.43,15.81a62.13,62.13,0,0,0,9.74-9.28A1,1,0,1,1,288.63,423.37Zm-16.46,14.41c-2.26,1.48-4.84,2.67-6.91,4.44a35.31,35.31,0,0,0-4.42,4.95,22.66,22.66,0,0,0-4.26,8.75c-0.1.69-.85,1.33-0.85,2.11-0.1,1.08.91,2.27,1.89,3,1.57,1,3.09-.48,4-1.66a36.61,36.61,0,0,0,4.06-6.81c1.57-3.15,2.82-6.32,4.2-9.57C271.51,440.59,272.16,440.53,272.16,437.78Zm-3.27-4.51a21.61,21.61,0,0,0,4.87-4.59A54.91,54.91,0,0,0,278,422.3a115.76,115.76,0,0,0,5.54-11.05,15.12,15.12,0,0,0-9.08,1.16c-2.46,1.28-4.13,3.88-6.1,5.85-2.26,2.26-4.81,4.51-6.19,7.46-0.79,1.87-1.71,4.37-1.21,6.44a3.75,3.75,0,0,0,1.94,2.31c1.08,0.39,2.35-.41,3.44-0.7C267.08,433.57,268.11,433.77,268.89,433.27Z" transform="translate(-68.72 -313.21)"/><path class="cls-2" d="M330.76,422.47a1.54,1.54,0,0,1-.47,1.15,11.65,11.65,0,0,1-1.07,1.89,64.78,64.78,0,0,1-4.69,5.65,18.32,18.32,0,0,1-6.8,4.35c-2.07.69-5.07,1.09-5.66-1.37-0.29-1.08.4-2.24,0.69-3.32a21.37,21.37,0,0,1,1.64-4.14c1.18-2.85,2.37-5.75,3.45-8.6a15.79,15.79,0,0,0,.59-3.66c0.1-.69.5-1.43,0-2s-1.6-.15-2.29,0a6.7,6.7,0,0,0-2.45.34c-3.74,2-6.73,5.54-9.2,8.89s-4.3,7.17-6.37,10.81a23.36,23.36,0,0,1-2.38,3.08c-0.29.49-1,1.45-1.6,1.15s-0.29-1,0-1.61c0.4-.88,0-1.08.41-1.95,1.67-3.35,3.21-6.75,4.68-10.19a41.43,41.43,0,0,0,2.28-6.14,10.17,10.17,0,0,0,.07-2.46c0.1-.59.42-1.64-0.17-2a2.85,2.85,0,0,0-2.17.31,25.44,25.44,0,0,0-2.29,2.32c-2.17,2-4.69,3.81-6.56,6.08-0.76,1-.14,1.45-0.88,2.43a1.39,1.39,0,0,1-1.71.28c-0.69-.2-1.22-0.9-0.83-1.4a3.09,3.09,0,0,1,.59-0.56c1.46-1.88,1.45-1.89,3-3.73a48.4,48.4,0,0,1,4.26-4.7,13.5,13.5,0,0,1,4.69-3.12c1.87-.59,3.56.5,4.15,2.57a8.59,8.59,0,0,1,.25,3.53,28.28,28.28,0,0,1-1.28,4.74c1.18-1.57,2.56-2.87,3.74-4.25A24.9,24.9,0,0,1,313,411c1.87-1,4.58-1.76,6.55-.18s1.51,4.43.91,6.4c-1,3.15-2.92,5.83-4.2,8.88-0.49,1.28-.83,2.67-1.22,4a8,8,0,0,0-.81,3c0.2,2,3.41,0,4.3-.46a27.71,27.71,0,0,0,5.76-4.36c1.57-1.77,3.23-4.44,4.71-6.31A1,1,0,0,1,330.76,422.47Z" transform="translate(-68.72 -313.21)"/><path class="cls-2" d="M350.74,424.41c-1.15,1.35-1.16,1.34-2.35,2.66a58.22,58.22,0,0,1-4.22,4.33c-3.15,2.66-7.31,5.45-11.64,5a5.66,5.66,0,0,1-4.48-3.51,12.17,12.17,0,0,1-.68-7.23,27,27,0,0,1,8-13.08,11.29,11.29,0,0,1,5.5-3c2.26-.39,4.77.05,5.56,2.42,1,3.54-2.14,6.72-4.7,8.49a32.74,32.74,0,0,1-7.16,3.07,22.16,22.16,0,0,1-2.34.81c-0.59.15-.67-0.18-1.26-0.06-0.2,0-.36.05-0.56,0.05s0,0.63-.09.63a16.73,16.73,0,0,0-1.08,4.89,5.53,5.53,0,0,0,1.45,3.06c0.69,0.59,1.38,1.38,2.26,1.38,1.87,0.2,3.74-.75,5.41-1.53a32.36,32.36,0,0,0,6.23-4.88c1.18-1.08,2.32-2.3,3.4-3.48,0.91-1.06.78-1.17,1.66-2.25a1.18,1.18,0,0,1,1.64,0C352.13,422.92,351.23,423.72,350.74,424.41Zm-15-9.55a28.43,28.43,0,0,0-4.49,7.18c4-1,8.6-2.68,11.45-5.73a5.56,5.56,0,0,0,1.63-2.84c0.2-1.77-1.44-2.42-2.92-2.22C339.29,411.44,337.26,413.29,335.78,414.86Z" transform="translate(-68.72 -313.21)"/><path class="cls-2" d="M375.31,423.52c-0.79,1-1.46,2-2.35,2.95a36.57,36.57,0,0,1-5.87,5.83c-4.33,3.35-10.08,5.95-15.69,4.67-2.76-.59-5-2.37-7.05-4.34-0.49-.39-1.79-0.73-1.89-1.42a1.32,1.32,0,0,1,1.29-1.12c0.79-.1,1.12.76,1.61,1.25a11.7,11.7,0,0,0,1.74,1.34,12.88,12.88,0,0,0,3.8,1.53,7.83,7.83,0,0,0,2,.61,5.56,5.56,0,0,0,1.8,0,4.93,4.93,0,0,0,3.77-3.13,21.06,21.06,0,0,0,1-7.05c0-3.15-.7-6.27-0.5-9.52-2,2.36-4,4.35-6.1,6.61-0.88.94-.51,1.28-1.37,2.23-0.3.39-1.06,0.07-1.45-.32-1.38-1,.39-2.29,1.08-3,3.05-3.35,5.82-7,8.77-10.41,0.59-.69.66-0.63,1.26-1.31a1.31,1.31,0,0,1,2.13,1.32c-0.3.69-1.34,0.83-1.54,1.52a13,13,0,0,0-.69,4c-0.1,3.25.63,6.6,0.53,9.85a17.52,17.52,0,0,1-2,8.58c3.15-1.18,5.88-3.58,8.34-5.84a36.73,36.73,0,0,0,5.82-5.91A1,1,0,1,1,375.31,423.52Z" transform="translate(-68.72 -313.21)"/><path class="cls-1" d="M82.13,449.39A1,1,0,0,1,81,450.67a6.24,6.24,0,0,0-4.31-2,6.16,6.16,0,0,0-4.19,1.75,5.73,5.73,0,0,0-1.81,4.13,5.78,5.78,0,0,0,1.78,4.16,6.06,6.06,0,0,0,4.22,1.52,6.41,6.41,0,0,0,4.31-1.8,0.92,0.92,0,0,1,.94,1.25,7.75,7.75,0,0,1-5.33,2.14,7.51,7.51,0,0,1-3.71-.91,6.83,6.83,0,0,1-3.83-6.36,7.06,7.06,0,0,1,1.09-3.69A7.35,7.35,0,0,1,73,448.21a7.86,7.86,0,0,1,3.76-.9A8,8,0,0,1,82.13,449.39Z" transform="translate(-68.72 -313.21)"/><path class="cls-1" d="M99.51,454.61a7.16,7.16,0,0,1-4,6.3,7.66,7.66,0,0,1-3.71,1,7.78,7.78,0,0,1-3.75-1,7.28,7.28,0,0,1-2.78-2.66,7.17,7.17,0,0,1-1.19-3.7,6.53,6.53,0,0,1,4-6.32,8.34,8.34,0,0,1,7.46,0,7.37,7.37,0,0,1,2.89,2.57A7.27,7.27,0,0,1,99.51,454.61Zm-13.57,0a5.59,5.59,0,0,0,1.69,4.11,5.8,5.8,0,0,0,8.36,0,5.7,5.7,0,0,0,0-8.28,6,6,0,0,0-4.21-1.52,5.87,5.87,0,0,0-4.09,1.66A5.42,5.42,0,0,0,85.94,454.61Z" transform="translate(-68.72 -313.21)"/><path class="cls-1" d="M111.4,460.24a0.89,0.89,0,0,1,0,1.64c-1.87.74-2-.12-4-0.12s-2.51,1.45-4,.1,0-1.8,0-3.61,0-1.82,0-3.64-0.15-1.82-.15-3.65-0.79-2,0-3.69a0.91,0.91,0,0,1,1.7.08c0.78,2,0,2.13,0,4.3s0,2.17,0,4.33-1.17,2.56.11,4.3c0.95,1.29,1.58.27,3.16,0S110,459.53,111.4,460.24Z" transform="translate(-68.72 -313.21)"/><path class="cls-1" d="M128.87,454.61a7.16,7.16,0,0,1-4,6.3,7.66,7.66,0,0,1-3.71,1,7.78,7.78,0,0,1-3.75-1,7.28,7.28,0,0,1-2.78-2.66,7.17,7.17,0,0,1-1.19-3.7,6.53,6.53,0,0,1,4-6.32,8.34,8.34,0,0,1,7.46,0,7.37,7.37,0,0,1,2.89,2.57A7.27,7.27,0,0,1,128.87,454.61Zm-13.57,0a5.59,5.59,0,0,0,1.69,4.11,5.8,5.8,0,0,0,8.36,0,5.7,5.7,0,0,0,0-8.28,6,6,0,0,0-4.21-1.52,5.87,5.87,0,0,0-4.09,1.66A5.42,5.42,0,0,0,115.3,454.61Z" transform="translate(-68.72 -313.21)"/><path class="cls-1" d="M141.69,448.6a1.12,1.12,0,0,1-.79,1.57,7.75,7.75,0,0,0-4-1.35c-1.87,0-3.13.83-3.13,2.06,0,1.42,1.19,2.08,2.65,2.57a19.81,19.81,0,0,1,3.65,1.36,3.41,3.41,0,0,1,2,3.15,3.73,3.73,0,0,1-1.73,3.19,6.81,6.81,0,0,1-3.61.72,7.92,7.92,0,0,1-3-.62,7.74,7.74,0,0,1-2.55-1.52c0-.84-0.17-1.47.67-1.55a7.3,7.3,0,0,0,4.85,2.1c2.1,0,3.47-.85,3.47-2.24s-1.2-2-2.65-2.52a21.69,21.69,0,0,1-3.66-1.34,3.38,3.38,0,0,1-2-3.15,3.5,3.5,0,0,1,1.64-3,6.61,6.61,0,0,1,3.44-.8A8.91,8.91,0,0,1,141.69,448.6Z" transform="translate(-68.72 -313.21)"/><path class="cls-1" d="M155.25,448.6a1.12,1.12,0,0,1-.79,1.57,7.75,7.75,0,0,0-4-1.35c-1.87,0-3.13.83-3.13,2.06,0,1.42,1.19,2.08,2.65,2.57a19.81,19.81,0,0,1,3.65,1.36,3.41,3.41,0,0,1,2,3.15,3.73,3.73,0,0,1-1.73,3.19,6.81,6.81,0,0,1-3.61.72,7.92,7.92,0,0,1-3-.62,7.74,7.74,0,0,1-2.55-1.52c0-.84-0.17-1.47.67-1.55a7.3,7.3,0,0,0,4.85,2.1c2.1,0,3.47-.85,3.47-2.24s-1.2-2-2.65-2.52a21.69,21.69,0,0,1-3.66-1.34,3.38,3.38,0,0,1-2-3.15,3.5,3.5,0,0,1,1.64-3,6.61,6.61,0,0,1,3.44-.8A8.91,8.91,0,0,1,155.25,448.6Z" transform="translate(-68.72 -313.21)"/><path class="cls-1" d="M160.92,458.28c-1.68,1.11-.31,2.13-1.67,3.61-0.6.65-1.6,0.89-1.63,0-0.08-2,.72-1.8,1.53-3.62s0.85-1.81,1.66-3.63,0.83-1.82,1.65-3.64,0.15-2.26,1.51-3.73a1.15,1.15,0,0,1,1.87,0c1.35,1.47.65,1.93,1.46,3.75s0.78,1.83,1.59,3.65,0.85,1.81,1.67,3.63,1.84,1.62,1.75,3.62c0,0.9-1.25.67-1.86,0-1.37-1.47.09-2.63-1.59-3.73s-2,.38-4,0.05S162.58,457.18,160.92,458.28Zm3.91-9c-2,0-.82,1.76-1.63,3.61s-2.55,1.91-1.73,3.75c0.66,1.49,1.75,0,3.38,0s2.67,1.49,3.33,0c0.81-1.85-1.28-1.74-1.62-3.74C166.18,450.7,166.85,449.3,164.83,449.3Z" transform="translate(-68.72 -313.21)"/><path class="cls-1" d="M183.48,460.24a0.89,0.89,0,0,1,0,1.64c-1.87.74-2-.12-4-0.12s-2.51,1.45-4,.1,0-1.8,0-3.61,0-1.82,0-3.64-0.15-1.82-.15-3.65-0.79-2,0-3.69a0.91,0.91,0,0,1,1.7.08c0.78,2,0,2.13,0,4.3s0,2.17,0,4.33-1.17,2.56.11,4.3c0.95,1.29,1.58.27,3.16,0S182,459.53,183.48,460.24Z" transform="translate(-68.72 -313.21)"/><path class="cls-1" d="M188.71,449c-1.56,1.82-1.52,2.84-.07,4.74,1.12,1.46,1.84.12,3.68,0.12s2-.83,3.66-0.1a0.79,0.79,0,0,1,0,1.51c-1.68.73-1.81,0-3.65,0s-2.53-1.36-3.62.12c-1.48,2-1.58,3,0,4.88,1.37,1.62,2,.16,4.16.16s2.22-.71,4.2,0a0.72,0.72,0,0,1,0,1.4c-1.53.72-1.66,0.11-3.35,0.11s-1.69,0-3.39,0-2.19,1.2-3.35,0,0-1.78,0-3.6,0-1.82,0-3.64-0.07-1.82-.07-3.65-1.5-2.66,0-3.74c2-1.47,2.54,0,5,0s2.58-.67,4.93.1a0.85,0.85,0,0,1,0,1.6c-1.91.75-2.11,0.4-4.12,0S190,447.42,188.71,449Z" transform="translate(-68.72 -313.21)"/><path class="cls-1" d="M210.4,448.6a1.12,1.12,0,0,1-.79,1.57,7.75,7.75,0,0,0-4-1.35c-1.87,0-3.13.83-3.13,2.06,0,1.42,1.19,2.08,2.65,2.57a19.81,19.81,0,0,1,3.65,1.36,3.41,3.41,0,0,1,2,3.15,3.73,3.73,0,0,1-1.73,3.19,6.81,6.81,0,0,1-3.61.72,7.92,7.92,0,0,1-3-.62,7.74,7.74,0,0,1-2.55-1.52c0-.84-0.17-1.47.67-1.55a7.3,7.3,0,0,0,4.85,2.1c2.1,0,3.47-.85,3.47-2.24s-1.2-2-2.65-2.52a21.69,21.69,0,0,1-3.66-1.34,3.38,3.38,0,0,1-2-3.15,3.5,3.5,0,0,1,1.64-3,6.61,6.61,0,0,1,3.44-.8A8.91,8.91,0,0,1,210.4,448.6Z" transform="translate(-68.72 -313.21)"/><path class="cls-1" d="M365.05,457.55c-2.21,1-2.4-.13-4.83-0.13s-2.43.07-4.86,0.07-2.43.34-4.86,0.34-2.43-.12-4.86-0.12-2.43.13-4.87,0.13-2.59.64-4.8-.37a1,1,0,0,1,0-1.89c2.21-1,2.34-.32,4.77-0.32s2.43,0.33,4.86.33,2.43-.48,4.86-0.48,2.43,0.51,4.86.51,2.43-.28,4.87-0.28,2.57-.77,4.91-0.09C366.29,455.58,366.06,457.08,365.05,457.55Z" transform="translate(-68.72 -313.21)"/><path class="cls-1" d="M339.05,457.55c-2.21,1-2.4-.13-4.83-0.13s-2.43.07-4.86,0.07-2.43.34-4.86,0.34-2.43-.12-4.86-0.12-2.43.13-4.87,0.13-2.59.64-4.8-.37a1,1,0,0,1,0-1.89c2.21-1,2.34-.32,4.77-0.32s2.43,0.33,4.86.33,2.43-.48,4.86-0.48,2.43,0.51,4.86.51,2.43-.28,4.87-0.28,2.57-.77,4.91-0.09C340.29,455.58,340.06,457.08,339.05,457.55Z" transform="translate(-68.72 -313.21)"/><path class="cls-1" d="M313.55,457.55c-2.21,1-2.4-.13-4.83-0.13s-2.43.07-4.86,0.07-2.43.34-4.86,0.34-2.43-.12-4.86-0.12-2.43.13-4.87,0.13-2.59.64-4.8-.37a1,1,0,0,1,0-1.89c2.21-1,2.34-.32,4.77-0.32s2.43,0.33,4.86.33,2.43-.48,4.86-0.48,2.43,0.51,4.86.51,2.43-.28,4.87-0.28,2.57-.77,4.91-0.09C314.79,455.58,314.56,457.08,313.55,457.55Z" transform="translate(-68.72 -313.21)"/></svg>